<svg xmlns="http://www.w3.org/2000/svg" xmlns:xlink="http://www.w3.org/1999/xlink" viewBox="0 3750 1920 540"><defs><style>.a{clip-path:url(#b);}.b{fill:none;}.b,.c{stroke:#c98142;}.b,.d{stroke-width:2px;}.c,.f{fill:#fff;}.c{stroke-miterlimit:10;stroke-width:3px;}.d{fill:rgba(0,0,0,0);stroke:#003f7e;}.e,.h{fill:#428bca;font-family:ArialMT, Arial;}.e{font-size:40px;}.g{fill:#003f7e;}.h{font-size:39px;}.i{fill:#2c2c2c;font-size:30px;font-family:Georgia;}</style><clipPath id="b"><rect y="3750" width="1920" height="540"/></clipPath></defs><g id="a" class="a"><rect class="f" y="3750" width="1920" height="540"/><line class="b" x2="1920" transform="translate(0.5 3994.5)"/><path class="c" d="M79.046-3653.047h0l-17.519-17.521-29.44-29.419L42.947-3700H126l-46.953,46.953Z" transform="translate(869 7695)"/><g transform="translate(-0.5 3732)"><path class="d" d="M0,0,1920,4" transform="translate(0.5 103.5)"/><text class="e" transform="translate(588 74)"><tspan x="-52.266" y="0">About</tspan></text><text class="e" transform="translate(773 74)"><tspan x="-46.67" y="0">Skills</tspan></text><text class="e" transform="translate(1185 74)"><tspan x="-73.369" y="0">Portfolio</tspan></text><text class="e" transform="translate(1428 74)"><tspan x="-68.926" y="0">Contact</tspan></text><g transform="translate(899.587 62.751)"><rect class="f" width="39" height="46" transform="translate(28.413 18.249)"/><path class="g" d="M146.164,74.37,128.632,56.838,74.484,110.986,45.065,81.568,27.534,99.1l29.43,29.43.01-.01,17.52,17.52Z" transform="translate(-27.534 -56.838)"/></g></g><rect class="f" width="96" height="73" transform="translate(931.939 3921.921) rotate(45)"/><line class="b" x2="138" y2="1" transform="translate(1358.5 3819.5)"/><g transform="translate(1.262 3740)"><text class="h" transform="translate(68.738 336)"><tspan x="0" y="0">Get In Touch</tspan></text><text class="i" transform="translate(70 398)"><tspan x="0" y="0">Got some work? Need some help? Just want to chat? </tspan><tspan x="0" y="40">Can&apos;t figure out what the hell&apos;s going on in the Middle East? </tspan><tspan x="0" y="80">Drop me a line!</tspan></text></g><g transform="translate(1114.119 3640)"><path d="M34.117.3a34.119,34.119,0,0,0-10.79,66.486c1.706.321,2.331-.734,2.331-1.64,0-.81-.028-2.957-.043-5.8-9.49,2.058-11.492-4.577-11.492-4.577-1.552-3.938-3.8-4.99-3.8-4.99-3.09-2.115.239-2.073.239-2.073,3.426.239,5.226,3.514,5.226,3.514,3.042,5.217,7.986,3.71,9.937,2.837a7.274,7.274,0,0,1,2.161-4.563c-7.577-.853-15.54-3.787-15.54-16.86a13.162,13.162,0,0,1,3.511-9.155,12.13,12.13,0,0,1,.3-9.03s2.857-.915,9.382,3.5a32.166,32.166,0,0,1,17.059,0c6.482-4.412,9.34-3.5,9.34-3.5a12.466,12.466,0,0,1,.341,9.03,13.216,13.216,0,0,1,3.5,9.155c0,13.107-7.975,15.992-15.566,16.831,1.194,1.024,2.3,3.116,2.3,6.312,0,4.566-.043,8.234-.043,9.342,0,.9.6,1.962,2.346,1.621A34.075,34.075,0,0,0,34.117.3" transform="translate(434.881 459.703)"/></g><g transform="translate(1222.119 3640)"><path d="M34.117.3a34.119,34.119,0,0,0-10.79,66.486c1.706.321,2.331-.734,2.331-1.64,0-.81-.028-2.957-.043-5.8-9.49,2.058-11.492-4.577-11.492-4.577-1.552-3.938-3.8-4.99-3.8-4.99-3.09-2.115.239-2.073.239-2.073,3.426.239,5.226,3.514,5.226,3.514,3.042,5.217,7.986,3.71,9.937,2.837a7.274,7.274,0,0,1,2.161-4.563c-7.577-.853-15.54-3.787-15.54-16.86a13.162,13.162,0,0,1,3.511-9.155,12.13,12.13,0,0,1,.3-9.03s2.857-.915,9.382,3.5a32.166,32.166,0,0,1,17.059,0c6.482-4.412,9.34-3.5,9.34-3.5a12.466,12.466,0,0,1,.341,9.03,13.216,13.216,0,0,1,3.5,9.155c0,13.107-7.975,15.992-15.566,16.831,1.194,1.024,2.3,3.116,2.3,6.312,0,4.566-.043,8.234-.043,9.342,0,.9.6,1.962,2.346,1.621A34.075,34.075,0,0,0,34.117.3" transform="translate(434.881 459.703)"/></g><g transform="translate(1329.119 3640)"><path d="M34.117.3a34.119,34.119,0,0,0-10.79,66.486c1.706.321,2.331-.734,2.331-1.64,0-.81-.028-2.957-.043-5.8-9.49,2.058-11.492-4.577-11.492-4.577-1.552-3.938-3.8-4.99-3.8-4.99-3.09-2.115.239-2.073.239-2.073,3.426.239,5.226,3.514,5.226,3.514,3.042,5.217,7.986,3.71,9.937,2.837a7.274,7.274,0,0,1,2.161-4.563c-7.577-.853-15.54-3.787-15.54-16.86a13.162,13.162,0,0,1,3.511-9.155,12.13,12.13,0,0,1,.3-9.03s2.857-.915,9.382,3.5a32.166,32.166,0,0,1,17.059,0c6.482-4.412,9.34-3.5,9.34-3.5a12.466,12.466,0,0,1,.341,9.03,13.216,13.216,0,0,1,3.5,9.155c0,13.107-7.975,15.992-15.566,16.831,1.194,1.024,2.3,3.116,2.3,6.312,0,4.566-.043,8.234-.043,9.342,0,.9.6,1.962,2.346,1.621A34.075,34.075,0,0,0,34.117.3" transform="translate(434.881 459.703)"/></g><g transform="translate(1007.119 3640)"><path d="M34.117.3a34.119,34.119,0,0,0-10.79,66.486c1.706.321,2.331-.734,2.331-1.64,0-.81-.028-2.957-.043-5.8-9.49,2.058-11.492-4.577-11.492-4.577-1.552-3.938-3.8-4.99-3.8-4.99-3.09-2.115.239-2.073.239-2.073,3.426.239,5.226,3.514,5.226,3.514,3.042,5.217,7.986,3.71,9.937,2.837a7.274,7.274,0,0,1,2.161-4.563c-7.577-.853-15.54-3.787-15.54-16.86a13.162,13.162,0,0,1,3.511-9.155,12.13,12.13,0,0,1,.3-9.03s2.857-.915,9.382,3.5a32.166,32.166,0,0,1,17.059,0c6.482-4.412,9.34-3.5,9.34-3.5a12.466,12.466,0,0,1,.341,9.03,13.216,13.216,0,0,1,3.5,9.155c0,13.107-7.975,15.992-15.566,16.831,1.194,1.024,2.3,3.116,2.3,6.312,0,4.566-.043,8.234-.043,9.342,0,.9.6,1.962,2.346,1.621A34.075,34.075,0,0,0,34.117.3" transform="translate(434.881 459.703)"/></g></g></svg>