<svg xmlns="http://www.w3.org/2000/svg" xmlns:xlink="http://www.w3.org/1999/xlink" viewBox="0 -1170 1920 1080"><defs><style>.a{clip-path:url(#b);}.b{fill:#428bca;stroke:#428bca;font-size:50px;font-family:Arial-BoldMT, Arial;font-weight:700;}.c{fill:none;stroke:#003f7e;stroke-miterlimit:10;stroke-width:40px;}.d{fill:#003f7e;}.e{fill:#fff;}</style><clipPath id="b"><rect y="-1170" width="1920" height="1080"/></clipPath></defs><g id="a" class="a"><rect class="e" y="-1170" width="1920" height="1080"/><g transform="translate(-17 -1170)"><text class="b" transform="translate(166 585)"><tspan x="-72.192" y="0">About</tspan></text><text class="b" transform="translate(427 585)"><tspan x="-65.32" y="0">Skills</tspan></text><text class="b" transform="translate(1452 585)"><tspan x="-102.759" y="0">Portfolio</tspan></text><text class="b" transform="translate(1767 585)"><tspan x="-93.054" y="0">Contact</tspan></text><g transform="translate(628 236)"><circle class="c" cx="300" cy="300" r="300" transform="translate(4 4)"/><g transform="translate(62.349 135.003)"><g transform="translate(0 0)"><path class="d" d="M502.055,126.966,431.927,56.838,302.978,185.786l-46.272,46.273-41.372,41.372L97.66,155.756,27.534,225.882,145.253,343.6l.04-.04,70.081,70.081,43.859-43.859L429.622,199.4Z" transform="translate(-27.534 -56.838)"/></g></g></g></g></g></svg>