<svg xmlns="http://www.w3.org/2000/svg" xmlns:xlink="http://www.w3.org/1999/xlink" viewBox="0 1290 1920 1080"><defs><style>.a{clip-path:url(#b);}.b{fill:rgba(0,0,0,0);stroke:#003f7e;}.b,.o{stroke-width:2px;}.c{fill:#428bca;font-size:40px;font-family:ArialMT, Arial;}.d{fill:#fff;}.e{fill:#003f7e;}.f{fill:#dd4c35;}.g{fill:#f5de19;}.h,.k{fill:#83cd29;}.i{fill:#42a5f5;}.j{fill:#8ebf55;}.k{fill-rule:evenodd;}.l{fill:#c2c2c2;}.m{fill:#829ec2;}.n{fill:#007acc;}.o{fill:none;stroke:#c98142;}</style><clipPath id="b"><rect y="1290" width="1920" height="1080"/></clipPath></defs><g id="a" class="a"><rect class="d" y="1290" width="1920" height="1080"/><g transform="translate(-0.5 1272)"><path class="b" d="M0,0,1920,4" transform="translate(0.5 103.5)"/><text class="c" transform="translate(588 74)"><tspan x="-52.266" y="0">About</tspan></text><text class="c" transform="translate(773 74)"><tspan x="-46.67" y="0">Skills</tspan></text><text class="c" transform="translate(1185 74)"><tspan x="-73.369" y="0">Portfolio</tspan></text><text class="c" transform="translate(1428 74)"><tspan x="-68.926" y="0">Contact</tspan></text><g transform="translate(899.587 62.751)"><rect class="d" width="39" height="46" transform="translate(28.413 18.249)"/><path class="e" d="M146.164,74.37,128.632,56.838,74.484,110.986,45.065,81.568,27.534,99.1l29.43,29.43.01-.01,17.52,17.52Z" transform="translate(-27.534 -56.838)"/></g></g><g transform="translate(0 1290)"><path class="f" d="M80.109,38.261,45.352,3.5a5.118,5.118,0,0,0-7.25,0l-7.219,7.219,9.155,9.155a6.087,6.087,0,0,1,7.711,7.762l8.814,8.814a6.093,6.093,0,1,1-3.653,3.44l-8.231-8.231V53.318a6.087,6.087,0,1,1-5.015-.176V31.287a6.1,6.1,0,0,1-3.312-8l-9.013-9.018L3.5,38.11a5.118,5.118,0,0,0,0,7.253L38.262,80.108a5.118,5.118,0,0,0,7.25,0L80.109,45.5a5.118,5.118,0,0,0,0-7.253" transform="translate(322.002 458.002)"/><path class="d" d="M14.456,5.067l9.155,9.155a6.087,6.087,0,0,1,7.711,7.762L40.135,30.8a6.093,6.093,0,1,1-3.653,3.44l-8.231-8.231V47.662a6.087,6.087,0,1,1-5.015-.176V25.631a6.1,6.1,0,0,1-3.312-8L10.911,8.612" transform="translate(338.429 463.657)"/></g><g transform="translate(0 1290)"><path d="M34.117.3a34.119,34.119,0,0,0-10.79,66.486c1.706.321,2.331-.734,2.331-1.64,0-.81-.028-2.957-.043-5.8-9.49,2.058-11.492-4.577-11.492-4.577-1.552-3.938-3.8-4.99-3.8-4.99-3.09-2.115.239-2.073.239-2.073,3.426.239,5.226,3.514,5.226,3.514,3.042,5.217,7.986,3.71,9.937,2.837a7.274,7.274,0,0,1,2.161-4.563c-7.577-.853-15.54-3.787-15.54-16.86a13.162,13.162,0,0,1,3.511-9.155,12.13,12.13,0,0,1,.3-9.03s2.857-.915,9.382,3.5a32.166,32.166,0,0,1,17.059,0c6.482-4.412,9.34-3.5,9.34-3.5a12.466,12.466,0,0,1,.341,9.03,13.216,13.216,0,0,1,3.5,9.155c0,13.107-7.975,15.992-15.566,16.831,1.194,1.024,2.3,3.116,2.3,6.312,0,4.566-.043,8.234-.043,9.342,0,.9.6,1.962,2.346,1.621A34.075,34.075,0,0,0,34.117.3" transform="translate(434.881 459.703)"/></g><g transform="translate(3 1290)"><rect class="g" width="79.607" height="79.607" transform="translate(531.547 460)"/><path d="M41.889,40.793a8.148,8.148,0,0,0,7.392,4.549c3.1,0,5.081-1.549,5.081-3.7,0-2.559-2.036-3.474-5.447-4.967l-1.871-.8c-5.4-2.3-8.984-5.18-8.984-11.27,0-5.609,4.265-9.883,10.954-9.883a11.057,11.057,0,0,1,10.639,5.99L53.8,24.454A5.086,5.086,0,0,0,49,21.247a3.255,3.255,0,0,0-3.579,3.207c0,2.243,1.39,3.153,4.6,4.549l1.871.8c6.357,2.727,9.951,5.5,9.951,11.751,0,6.735-5.291,10.426-12.4,10.426A14.372,14.372,0,0,1,35.816,44.33Zm-26.427.648c1.174,2.084,2.243,3.847,4.813,3.847,2.456,0,4.009-.961,4.009-4.7V15.151h7.48V40.688c0,7.745-4.549,11.27-11.171,11.27A11.614,11.614,0,0,1,9.372,45.135Z" transform="translate(543.134 481.4)"/></g><g transform="translate(0 1290)"><path class="h" d="M38.882,81.606a6.115,6.115,0,0,1-3.059-.819l-9.735-5.763c-1.453-.813-.745-1.1-.264-1.268a19.413,19.413,0,0,0,4.4-1.99.748.748,0,0,1,.725.054l7.48,4.444a.967.967,0,0,0,.9,0l29.17-16.837a.918.918,0,0,0,.446-.79V24.957a.941.941,0,0,0-.452-.8L39.331,7.33a.918.918,0,0,0-.9,0L9.277,24.158a.938.938,0,0,0-.461.8V58.623a.9.9,0,0,0,.458.779l8,4.617c4.336,2.166,6.991-.387,6.991-2.951V27.829a.853.853,0,0,1,.853-.853h3.7a.853.853,0,0,1,.853.853V61.07c0,5.786-3.15,9.1-8.637,9.1a12.478,12.478,0,0,1-6.718-1.825l-7.668-4.4a6.158,6.158,0,0,1-3.059-5.322V24.957a6.147,6.147,0,0,1,3.059-5.331L35.817,2.784a6.386,6.386,0,0,1,6.13,0l29.17,16.843a6.155,6.155,0,0,1,3.062,5.317V58.623a6.172,6.172,0,0,1-3.062,5.322L41.947,80.787a6.118,6.118,0,0,1-3.065.819Z" transform="translate(636 458)"/><path class="h" d="M14.054,31.929a.853.853,0,0,1,.853-.853H18.68a.853.853,0,0,1,.839.714c.569,3.841,2.274,5.777,9.988,5.777,6.144,0,8.762-1.39,8.762-4.651,0-1.879-.742-3.275-10.292-4.211-7.983-.79-12.919-2.559-12.919-8.939,0-5.885,4.961-9.4,13.277-9.4,9.345,0,13.971,3.244,14.557,10.2a.853.853,0,0,1-.839.918h-3.8a.853.853,0,0,1-.819-.66c-.907-4.04-3.127-5.331-9.1-5.331-6.71,0-7.489,2.337-7.489,4.088,0,2.121.921,2.741,9.979,3.938,8.964,1.186,13.223,2.863,13.223,9.163,0,6.357-5.3,10-14.543,10C16.729,42.7,14.054,36.845,14.054,31.929Z" transform="translate(655.296 473.426)"/></g><g transform="translate(0 1290)"><path class="i" d="M33.274,21.9H27.588V16.216h5.686m0,28.431H27.588V27.588h5.686M30.431,2A28.431,28.431,0,1,0,58.862,30.431,28.431,28.431,0,0,0,30.431,2Z" transform="translate(737.094 458)"/></g><g transform="translate(0 1290)"><path class="j" d="M70.076,5.5H43.635L37.664,17.441H4.4V65.205H76.046V5.5Zm0,11.941H46.762l3.127-5.971H70.076Z" transform="translate(819.987 454.5)"/><path class="k" d="M39.853,10A29.853,29.853,0,1,1,10,39.853,29.853,29.853,0,0,1,39.853,10Z" transform="translate(830.309 462.794)"/><path class="d" d="M37.654,69.7a4.586,4.586,0,0,1-2.294-.614l-7.307-4.322c-1.089-.611-.569-.827-.2-.952a14.559,14.559,0,0,0,3.3-1.5.569.569,0,0,1,.543.043l5.612,3.332a.725.725,0,0,0,.68,0L59.884,53.057a.688.688,0,0,0,.335-.591V27.213a.705.705,0,0,0-.338-.6L38.012,13.993a.691.691,0,0,0-.677,0L15.449,26.614a.7.7,0,0,0-.347.6v25.25a.671.671,0,0,0,.344.586l6,3.463c3.253,1.626,5.246-.284,5.246-2.212V29.369a.628.628,0,0,1,.634-.631H30.1a.631.631,0,0,1,.631.631V54.3a6.061,6.061,0,0,1-6.477,6.823,9.36,9.36,0,0,1-5.041-1.37l-5.729-3.3a4.62,4.62,0,0,1-2.294-3.98V27.213a4.609,4.609,0,0,1,2.294-3.98L35.379,10.59a4.791,4.791,0,0,1,4.6,0L61.82,23.225a4.617,4.617,0,0,1,2.3,3.98v25.25a4.629,4.629,0,0,1-2.3,3.98L39.928,69.067A4.589,4.589,0,0,1,37.654,69.7Zm7.438-17.607C52.023,52.093,56,49.364,56,44.6s-3.2-5.971-9.917-6.875c-6.8-.9-7.483-1.362-7.483-2.954,0-1.314.583-3.068,5.615-3.068,4.495,0,6.152.969,6.823,4a.631.631,0,0,0,.614.495h2.843a.631.631,0,0,0,.628-.688c-.438-5.22-3.906-7.651-10.918-7.651-6.238,0-9.951,2.633-9.951,7.048,0,4.788,3.7,6.113,9.689,6.7,7.162.7,7.719,1.749,7.719,3.159,0,2.445-1.962,3.488-6.57,3.488-5.789,0-7.065-1.453-7.489-4.333a.634.634,0,0,0-.628-.535H34.131a.628.628,0,0,0-.631.631c.006,3.682,2.01,8.074,11.586,8.074Z" transform="translate(832.507 462.799)"/></g><g transform="translate(0 1290)"><path class="l" d="M54.132,2H9.6A4.99,4.99,0,0,0,4.625,6.975V76.631A4.99,4.99,0,0,0,9.6,81.607H64.33a4.99,4.99,0,0,0,4.975-4.975V15.806Zm1.493,8.086,4.728,4.353H55.625ZM9.6,76.631V6.975H50.649V19.414H64.333V76.631Z" transform="translate(924.957 458)"/><rect class="m" width="37.176" height="4.975" transform="translate(939.533 497.236)"/><rect class="m" width="27.754" height="4.975" transform="translate(939.533 523.797)"/><rect class="m" width="44.779" height="4.975" transform="translate(939.533 510.502)"/><rect class="m" width="44.779" height="4.975" transform="translate(939.533 483.399)"/></g><g transform="translate(0 1290)"><path class="n" d="M80.768,8.6,64.284,2,28.66,36.72,6.882,20.153l-4.7,2.38v38.6l4.674,2.351L28.6,46.921,64.284,81.607l16.49-6.6V8.6ZM9.2,50.879V32.757l10.093,9Zm32.269-9.118L61.609,26.692V56.94L41.445,41.761Z" transform="translate(1021.226 458)"/></g><g transform="translate(189 1290)"><line class="o" x2="94" y2="1" transform="translate(536.5 69.5)"/></g></g></svg>