<svg xmlns="http://www.w3.org/2000/svg" xmlns:xlink="http://www.w3.org/1999/xlink" viewBox="0 2520 1920 1080"><defs><style>.a{clip-path:url(#b);}.b,.i{fill:none;}.b{stroke:#95989a;}.c,.g{fill:rgba(0,0,0,0);stroke-width:2px;}.c{stroke:#003f7e;}.d{fill:#428bca;font-size:40px;font-family:ArialMT, Arial;}.e{fill:#fff;}.f{fill:#003f7e;}.g{stroke:#c98142;}.h{stroke:none;}</style><clipPath id="b"><rect y="2520" width="1920" height="1080"/></clipPath></defs><g id="a" class="a"><rect class="e" y="2520" width="1920" height="1080"/><g transform="translate(0 2520)"><g class="b" transform="translate(100 170)"><rect class="h" width="350" height="450"/><rect class="i" x="0.5" y="0.5" width="349" height="449"/></g></g><g transform="translate(685 2767)"><g class="b" transform="translate(100 170)"><rect class="h" width="350" height="450"/><rect class="i" x="0.5" y="0.5" width="349" height="449"/></g></g><g transform="translate(1891 2622) rotate(90)"><g class="b" transform="translate(100 170)"><rect class="h" width="350" height="450"/><rect class="i" x="0.5" y="0.5" width="349" height="449"/></g></g><g transform="translate(873 3112) rotate(90)"><g class="b" transform="translate(100 170)"><rect class="h" width="350" height="450"/><rect class="i" x="0.5" y="0.5" width="349" height="449"/></g></g><g transform="translate(1331 2960)"><g class="b" transform="translate(100 170)"><rect class="h" width="350" height="450"/><rect class="i" x="0.5" y="0.5" width="349" height="449"/></g></g><g transform="translate(-0.5 2502)"><path class="c" d="M0,0,1920,4" transform="translate(0.5 103.5)"/><text class="d" transform="translate(588 74)"><tspan x="-52.266" y="0">About</tspan></text><text class="d" transform="translate(773 74)"><tspan x="-46.67" y="0">Skills</tspan></text><text class="d" transform="translate(1185 74)"><tspan x="-73.369" y="0">Portfolio</tspan></text><text class="d" transform="translate(1428 74)"><tspan x="-68.926" y="0">Contact</tspan></text><g transform="translate(899.587 62.751)"><rect class="e" width="39" height="46" transform="translate(28.413 18.249)"/><path class="f" d="M146.164,74.37,128.632,56.838,74.484,110.986,45.065,81.568,27.534,99.1l29.43,29.43.01-.01,17.52,17.52Z" transform="translate(-27.534 -56.838)"/></g></g><path class="g" d="M0,0,146,1" transform="translate(1111.5 2589.5)"/></g></svg>