<svg xmlns="http://www.w3.org/2000/svg" viewBox="0 0 750.05 1000"><defs><style>.cls-1,.cls-13,.cls-16,.cls-18,.cls-3,.cls-5,.cls-8{fill:#00925b;}.cls-2{fill:#b4282f;}.cls-18,.cls-3,.cls-5,.cls-9{stroke:#e6e4cf;}.cls-17,.cls-18,.cls-3,.cls-5,.cls-6,.cls-8,.cls-9{stroke-miterlimit:10;}.cls-3{stroke-width:8px;}.cls-11,.cls-19,.cls-21,.cls-4{fill:#e6e4cf;}.cls-5{stroke-width:2px;}.cls-17,.cls-6,.cls-9{fill:none;}.cls-17,.cls-6,.cls-8{stroke:#00925b;}.cls-6{stroke-linecap:round;stroke-width:6px;}.cls-7{fill:#b73438;}.cls-9{stroke-width:25px;}.cls-10{fill:#b73337;}.cls-11{font-size:24px;}.cls-11,.cls-13,.cls-19,.cls-21{font-family:Roboto-Black, Roboto;}.cls-12{fill:#e9e6cc;}.cls-13{font-size:60px;letter-spacing:0.03em;}.cls-14{letter-spacing:-0.02em;}.cls-15{letter-spacing:0.02em;}.cls-16{font-size:50px;font-family:Yesteryear-Regular, Yesteryear;}.cls-17{stroke-width:5px;}.cls-19{font-size:36px;}.cls-20{letter-spacing:-0.03em;}.cls-21{font-size:14px;}</style></defs><title>Bot_Rev1</title><g id="Background"><path id="Background-2" data-name="Background" class="cls-1" d="M.07,500Q.07,252.24,0,4.48C0,.82.8,0,4.46,0Q375,.15,745.54,0C749.2,0,750,.82,750,4.48q-.15,495.53,0,991c0,3.67-.82,4.49-4.48,4.49Q375,999.85,4.46,1000C.8,1000,0,999.18,0,995.51Q.13,747.76.07,500Z" transform="translate(0.02 0)"/><ellipse class="cls-2" cx="372.03" cy="424.73" rx="315.58" ry="376.8"/></g><g id="Uniform"><g id="Shoulders"><path class="cls-3" d="M100.9,559.93a4.59,4.59,0,0,1-3.21,3.38,4.78,4.78,0,0,1-2.94.94h-.18a4.95,4.95,0,0,1-7.36-.27l-.55,20.3,567,15.21.66-24.7Z" transform="translate(0.02 0)"/><g id="ShoulderL"><polygon class="cls-1" points="608.41 520.1 590.18 521 581.83 537.53 591.71 553.17 609.93 552.27 618.29 535.74 608.41 520.1"/><polygon class="cls-1" points="564.23 532.3 551.96 546.07 557.53 563.78 575.37 567.72 587.63 553.95 582.06 536.24 564.23 532.3"/><polygon class="cls-1" points="542.26 573.66 543.14 592.24 559.37 600.74 574.72 590.68 573.83 572.11 557.61 563.6 542.26 573.66"/><polygon class="cls-1" points="555.31 618.62 568.82 631.12 586.2 625.45 590.07 607.27 576.56 594.77 559.18 600.45 555.31 618.62"/><polygon class="cls-1" points="612.53 607.03 594.31 607.93 585.96 624.46 595.83 640.1 614.06 639.2 622.41 622.67 612.53 607.03"/><polygon class="cls-1" points="635.6 528.79 649.11 541.28 645.24 559.46 627.86 565.13 614.35 552.63 618.22 534.46 635.6 528.79"/><polygon class="cls-1" points="661.38 567.79 662.26 586.36 646.91 596.43 630.69 587.92 629.8 569.35 645.15 559.28 661.38 567.79"/><polygon class="cls-1" points="652.65 613.83 640.38 627.6 622.54 623.65 616.98 605.95 629.24 592.18 647.08 596.12 652.65 613.83"/><ellipse class="cls-1" cx="602.26" cy="580.09" rx="49.83" ry="50.77"/></g><g id="ShoulderR"><polygon class="cls-1" points="154.78 507.17 136.55 508.07 128.2 524.6 138.07 540.24 156.3 539.34 164.66 522.81 154.78 507.17"/><polygon class="cls-1" points="110.6 519.38 98.33 533.14 103.9 550.85 121.74 554.79 134 541.02 128.43 523.31 110.6 519.38"/><polygon class="cls-1" points="88.63 560.73 89.51 579.3 105.74 587.81 121.08 577.75 120.2 559.17 103.97 550.67 88.63 560.73"/><polygon class="cls-1" points="101.68 605.69 115.19 618.19 132.57 612.52 136.44 594.34 122.93 581.85 105.55 587.52 101.68 605.69"/><polygon class="cls-1" points="158.9 594.1 140.68 595 132.32 611.53 142.2 627.17 160.43 626.27 168.78 609.74 158.9 594.1"/><polygon class="cls-1" points="181.96 515.86 195.48 528.36 191.61 546.53 174.23 552.2 160.72 539.71 164.58 521.53 181.96 515.86"/><polygon class="cls-1" points="207.75 554.86 208.63 573.43 193.28 583.5 177.06 574.99 176.17 556.42 191.52 546.35 207.75 554.86"/><polygon class="cls-1" points="199.02 600.9 186.75 614.66 168.91 610.73 163.34 593.02 175.61 579.25 193.45 583.19 199.02 600.9"/><ellipse class="cls-1" cx="148.63" cy="567.16" rx="49.83" ry="50.77"/></g><polygon class="cls-1" points="558.49 560.88 550.21 561.85 551.96 546.07 558.49 546.79 558.49 560.88"/><polygon class="cls-1" points="553.74 591.67 540.51 589.44 542.26 573.66 553.74 579.5 553.74 591.67"/><polygon class="cls-1" points="642.36 555.75 647.36 557.06 649.11 541.28 642.36 541.28 642.36 555.75"/><polygon class="cls-1" points="112.08 546.41 94.58 546.92 98.33 533.14 112.08 533.14 112.08 546.41"/><polygon class="cls-1" points="196.19 586.79 204.88 587.21 208.63 573.43 196.19 573.43 196.19 586.79"/><g id="ShoulderL-2" data-name="ShoulderL"><polygon class="cls-4" points="606.66 535.88 588.43 536.77 580.08 553.31 589.96 568.95 608.19 568.05 616.54 551.51 606.66 535.88"/><polygon class="cls-4" points="562.48 548.08 550.21 561.85 555.78 579.56 573.62 583.5 585.89 569.73 580.32 552.02 562.48 548.08"/><polygon class="cls-4" points="540.51 589.44 541.39 608.01 557.62 616.52 572.97 606.46 572.09 587.88 555.86 579.37 540.51 589.44"/><polygon class="cls-4" points="553.56 634.4 567.08 646.9 584.46 641.22 588.32 623.05 574.81 610.55 557.43 616.23 553.56 634.4"/><polygon class="cls-4" points="610.79 622.81 592.56 623.71 584.21 640.24 594.09 655.88 612.32 654.98 620.67 638.44 610.79 622.81"/><polygon class="cls-4" points="633.85 544.56 647.36 557.06 643.49 575.24 626.12 580.91 612.6 568.41 616.47 550.24 633.85 544.56"/><polygon class="cls-4" points="659.63 583.57 660.51 602.14 645.17 612.21 628.94 603.7 628.06 585.12 643.4 575.06 659.63 583.57"/><polygon class="cls-4" points="650.9 629.6 638.63 643.37 620.8 639.43 615.23 621.72 627.49 607.96 645.33 611.89 650.9 629.6"/><ellipse class="cls-4" cx="600.52" cy="595.87" rx="49.83" ry="50.77"/></g><g id="ShoulderR-2" data-name="ShoulderR"><polygon class="cls-4" points="151.03 520.95 132.8 521.85 124.45 538.38 134.33 554.01 152.56 553.12 160.91 536.58 151.03 520.95"/><polygon class="cls-4" points="106.85 533.15 94.58 546.92 100.15 564.63 117.99 568.57 130.25 554.8 124.69 537.09 106.85 533.15"/><polygon class="cls-4" points="84.88 574.51 85.76 593.08 101.99 601.59 117.34 591.52 116.45 572.95 100.23 564.44 84.88 574.51"/><polygon class="cls-4" points="97.93 619.47 111.45 631.97 128.83 626.29 132.69 608.12 119.18 595.62 101.8 601.3 97.93 619.47"/><polygon class="cls-4" points="155.16 607.88 136.93 608.78 128.58 625.31 138.46 640.95 156.68 640.05 165.03 623.51 155.16 607.88"/><polygon class="cls-4" points="178.22 529.63 191.73 542.13 187.86 560.3 170.48 565.98 156.97 553.48 160.84 535.31 178.22 529.63"/><polygon class="cls-4" points="204 568.64 204.88 587.21 189.53 597.27 173.31 588.77 172.43 570.19 187.77 560.13 204 568.64"/><polygon class="cls-4" points="195.27 614.67 183 628.44 165.17 624.5 159.6 606.79 171.86 593.02 189.7 596.96 195.27 614.67"/><ellipse class="cls-4" cx="144.89" cy="580.94" rx="49.83" ry="50.77"/></g></g><circle class="cls-1" cx="603.4" cy="599.78" r="40"/><circle class="cls-1" cx="137.12" cy="586.56" r="40"/><rect class="cls-4" x="138.85" y="587.81" width="464.93" height="24.71" transform="translate(16.25 -9.74) rotate(1.54)"/><circle class="cls-4" cx="603.4" cy="599.78" r="18.5"/><circle class="cls-4" cx="137.12" cy="586.56" r="19.76"/><polygon class="cls-1" points="507.87 778.08 180.05 730.96 104.12 605.54 641.69 619.96 507.87 778.08"/><polygon class="cls-4" points="522.68 680.43 205.02 675.54 202.11 640.65 527.35 649.38 522.68 680.43"/><polygon class="cls-4" points="501.46 648.68 223.91 641.24 234.98 607.15 501.18 614.3 501.46 648.68"/><rect class="cls-1" x="209.95" y="650.13" width="8.79" height="1.88" transform="translate(17.56 -5.51) rotate(1.54)"/><rect class="cls-1" x="507.35" y="660.18" width="8.79" height="1.88" transform="translate(17.94 -13.48) rotate(1.54)"/><rect class="cls-1" x="252.44" y="597.91" width="233.24" height="81.13"/><polygon class="cls-1" points="252.44 679.05 239.51 679.05 240.47 642.17 252.44 602.2 252.44 679.05"/><rect class="cls-4" x="275.41" y="643.65" width="2" height="30" transform="translate(17.82 -7.19) rotate(1.54)"/><rect class="cls-4" x="448.17" y="648.3" width="2" height="30" transform="translate(18.01 -11.83) rotate(1.54)"/><rect class="cls-4" x="439.07" y="648.05" width="2" height="30" transform="translate(18 -11.59) rotate(1.54)"/><rect class="cls-4" x="429.98" y="647.81" width="2" height="30" transform="translate(17.99 -11.34) rotate(1.54)"/><rect class="cls-4" x="420.89" y="647.56" width="2" height="30" transform="translate(17.98 -11.1) rotate(1.54)"/><rect class="cls-4" x="411.8" y="647.32" width="2" height="30" transform="translate(17.97 -10.85) rotate(1.54)"/><rect class="cls-4" x="402.7" y="647.07" width="2" height="30" transform="translate(17.96 -10.61) rotate(1.54)"/><rect class="cls-4" x="393.61" y="646.83" width="2" height="30" transform="translate(17.95 -10.37) rotate(1.54)"/><rect class="cls-4" x="384.52" y="646.59" width="2" height="30" transform="translate(17.94 -10.12) rotate(1.54)"/><rect class="cls-4" x="375.43" y="646.34" width="2" height="30" transform="translate(17.93 -9.88) rotate(1.54)"/><rect class="cls-4" x="366.33" y="646.1" width="2" height="30" transform="translate(17.92 -9.63) rotate(1.54)"/><rect class="cls-4" x="357.24" y="645.85" width="2" height="30" transform="translate(17.91 -9.39) rotate(1.54)"/><rect class="cls-4" x="348.15" y="645.61" width="2" height="30" transform="translate(17.9 -9.14) rotate(1.54)"/><rect class="cls-4" x="339.06" y="645.36" width="2" height="30" transform="translate(17.89 -8.9) rotate(1.54)"/><rect class="cls-4" x="329.97" y="645.12" width="2" height="30" transform="translate(17.88 -8.66) rotate(1.54)"/><rect class="cls-4" x="320.87" y="644.87" width="2" height="30" transform="translate(17.87 -8.41) rotate(1.54)"/><rect class="cls-4" x="311.78" y="644.63" width="2" height="30" transform="translate(17.86 -8.17) rotate(1.54)"/><rect class="cls-4" x="302.69" y="644.39" width="2" height="30" transform="translate(17.85 -7.92) rotate(1.54)"/><rect class="cls-4" x="293.6" y="644.14" width="2" height="30" transform="translate(17.84 -7.68) rotate(1.54)"/><rect class="cls-4" x="284.5" y="643.9" width="2" height="30" transform="translate(17.83 -7.43) rotate(1.54)"/></g><g id="Collar"><path class="cls-4" d="M517.6,575.93c.36-1,.68-2,.95-3.07l18.91-61.14a32.64,32.64,0,0,0,3.07-13.62c0-39.27-74.76-71.1-167-71.1s-167,31.83-167,71.1a31.2,31.2,0,0,0,.74,6.67l-.12,0,.61,1.93c.21.75.45,1.5.71,2.24l19.06,59.92c4.74,35.67,68.24,63.91,145.9,63.91,72.32,0,132.37-24.5,144.1-56.67h0Z" transform="translate(0.02 0)"/><path class="cls-1" d="M506.71,577.88c.33-1,.63-1.91.87-2.87l17.47-57a30.78,30.78,0,0,0,2.84-12.71c0-36.63-69.05-66.33-154.22-66.33s-154.21,29.7-154.21,66.33a29,29,0,0,0,.68,6.23l-.12,0,.57,1.8c.2.7.41,1.39.66,2.09l17.59,55.91c4.38,33.28,63,59.63,134.73,59.63,66.79,0,122.24-22.86,133.08-52.88h0Z" transform="translate(0.02 0)"/><ellipse class="cls-4" cx="373.6" cy="554.47" rx="130" ry="63.62"/><ellipse class="cls-1" cx="363.22" cy="598.33" rx="12.5" ry="6.64"/><ellipse class="cls-1" cx="422.13" cy="594.85" rx="9.88" ry="5.29"/><ellipse class="cls-1" cx="465.36" cy="578.05" rx="7.66" ry="4.28"/><ellipse class="cls-1" cx="481.54" cy="557.59" rx="6.12" ry="3.39"/><ellipse class="cls-1" cx="306.02" cy="589.76" rx="9.88" ry="5.29"/><ellipse class="cls-1" cx="271.98" cy="570.59" rx="7.66" ry="4.28"/><ellipse class="cls-1" cx="263.73" cy="549.85" rx="6.12" ry="3.39"/></g><g id="Neck"><ellipse class="cls-5" cx="373.37" cy="554.02" rx="77.23" ry="25.28"/><ellipse class="cls-5" cx="373.42" cy="538.86" rx="77.23" ry="25.28"/><ellipse class="cls-5" cx="373.65" cy="523.02" rx="77.23" ry="25.28"/><ellipse class="cls-5" cx="373.7" cy="507.86" rx="77.23" ry="25.28"/><ellipse class="cls-5" cx="372.49" cy="491.52" rx="77.23" ry="25.28"/><ellipse class="cls-5" cx="372.54" cy="476.36" rx="77.23" ry="25.28"/><g id="Layer_8" data-name="Layer 8"><line class="cls-6" x1="366.88" y1="501.64" x2="437.17" y2="489.34"/><line class="cls-6" x1="332.11" y1="513.5" x2="441.22" y2="501.82"/><line class="cls-6" x1="343.69" y1="530.8" x2="442.45" y2="517.65"/><line class="cls-6" x1="346.46" y1="546.38" x2="440.96" y2="534.38"/><line class="cls-6" x1="336.67" y1="560.35" x2="434.86" y2="553.22"/><ellipse class="cls-1" cx="405.86" cy="497.88" rx="29.48" ry="5.06" transform="translate(-79.74 77.43) rotate(-9.93)"/><rect class="cls-1" x="340.88" y="507.39" width="104.12" height="11.11" transform="translate(-52.36 44.75) rotate(-6.11)"/><rect class="cls-1" x="350.58" y="524.77" width="92.37" height="9.94" transform="translate(-54.13 45.26) rotate(-6.11)"/><rect class="cls-1" x="354.33" y="541.84" width="85.85" height="9.53" transform="matrix(0.99, -0.13, 0.13, 0.99, -65.65, 54.38)"/><rect class="cls-1" x="342.07" y="556.88" width="94.7" height="8.81" transform="translate(-19.87 14.34) rotate(-2.06)"/></g></g><g id="Hat"><polygon class="cls-4" points="433.69 137.39 282.9 121.07 237.28 217.13 160.73 317.18 193.04 364.91 244.93 364.91 260.8 364.42 486.75 370.53 554.35 371.83 588.36 339.56 520.31 238.5 433.69 137.39"/><g id="Flash"><polygon class="cls-7" points="415.32 124.32 399.23 126.29 392.89 141.21 402.64 154.16 418.73 152.19 425.06 137.27 415.32 124.32"/><polygon class="cls-7" points="376.97 137.81 366.98 150.58 373.05 165.61 389.1 167.87 399.08 155.1 393.02 140.07 376.97 137.81"/><polygon class="cls-7" points="360.15 175.19 362.12 191.28 377.04 197.62 389.99 187.87 388.02 171.78 373.1 165.44 360.15 175.19"/><polygon class="cls-7" points="374.59 213.43 387.36 223.41 402.39 217.35 404.65 201.3 391.88 191.31 376.85 197.38 374.59 213.43"/><polygon class="cls-7" points="424.53 199.62 408.44 201.59 402.1 216.51 411.85 229.46 427.94 227.49 434.28 212.57 424.53 199.62"/><polygon class="cls-7" points="439.95 130.1 452.72 140.09 450.46 156.14 435.43 162.2 422.66 152.22 424.92 136.17 439.95 130.1"/><polygon class="cls-7" points="465.28 162.33 467.25 178.42 454.3 188.17 439.38 181.83 437.42 165.74 450.36 155.99 465.28 162.33"/><polygon class="cls-7" points="460.49 202.92 450.51 215.68 434.46 213.42 428.39 198.39 438.38 185.62 454.43 187.88 460.49 202.92"/><circle class="cls-7" cx="413.71" cy="176.87" r="44.25"/><polygon class="cls-8" points="411.32 120.32 395.23 122.29 388.89 137.21 398.64 150.16 414.73 148.19 421.06 133.27 411.32 120.32"/><polygon class="cls-8" points="372.97 133.81 362.98 146.58 369.05 161.61 385.1 163.87 395.08 151.1 389.02 136.07 372.97 133.81"/><polygon class="cls-8" points="356.15 171.19 358.12 187.28 373.04 193.62 385.99 183.87 384.02 167.78 369.1 161.44 356.15 171.19"/><polygon class="cls-8" points="370.59 209.43 383.36 219.41 398.39 213.35 400.65 197.3 387.88 187.31 372.85 193.38 370.59 209.43"/><polygon class="cls-8" points="420.53 195.62 404.44 197.59 398.1 212.51 407.85 225.46 423.94 223.49 430.28 208.57 420.53 195.62"/><polygon class="cls-8" points="435.95 126.1 448.72 136.09 446.46 152.14 431.43 158.2 418.66 148.22 420.92 132.17 435.95 126.1"/><polygon class="cls-8" points="461.28 158.33 463.25 174.42 450.3 184.17 435.38 177.83 433.42 161.74 446.36 151.99 461.28 158.33"/><polygon class="cls-8" points="456.49 198.92 446.51 211.68 430.46 209.42 424.39 194.39 434.38 181.62 450.43 183.88 456.49 198.92"/><circle class="cls-1" cx="409.71" cy="172.87" r="44.25"/><circle class="cls-7" cx="408.71" cy="172.87" r="32.62"/><circle class="cls-4" cx="411.71" cy="175.87" r="32.12"/></g><g id="Stars"><path class="cls-1" d="M427.92,164.66c-3.43,2.1-4.48,2.28-8.21,4.6a39.26,39.26,0,0,0,4.27-5.55,78.81,78.81,0,0,0-12,1.45,46.14,46.14,0,0,1,12.52-4.1c-.75-1.09-6.85-4.52-8.37-5.19,4.83.4,10.73,2.27,13.6,4.09a22.24,22.24,0,0,1,4.39-.58,6,6,0,0,1-2.61,2.93c.56,1.58-.8,10.29-1.92,12.6,0-3.64-.35-8.25-1.66-10.25M402.8,195.92a13.66,13.66,0,0,1-5-3.17,16.33,16.33,0,0,1,1.88-3.73c-1.61.24-2.79.43-4.17.7a22.76,22.76,0,0,1-2.2-6.76,25.21,25.21,0,0,0,0,7.31,19.38,19.38,0,0,0-3.21,1.17,39.19,39.19,0,0,0,4.27,2.44,15.2,15.2,0,0,0,3.26,4.78,9.14,9.14,0,0,1-.3-3.65,20,20,0,0,0,5.46.91m5.13-29a12.44,12.44,0,0,0-1.52,3.1,24.72,24.72,0,0,1,9.16,3.42,29,29,0,0,0-8.44-.56,6.3,6.3,0,0,0-2,.36,37.89,37.89,0,0,0-1.92,7.43c-.8-2-2-6.09-2-6.09-2.24,1.25-7.4,6.29-7.4,6.29a30.61,30.61,0,0,1,5.71-8.59c-1-1-3.59-1.56-5.48-1.65a20.36,20.36,0,0,1,5.45-1,26.27,26.27,0,0,1,3.13.06,15.26,15.26,0,0,1,5.27-2.77m5.39,25.32a42.58,42.58,0,0,1-2.66,3.41,15.77,15.77,0,0,1-4.74.69,11.29,11.29,0,0,0,3.08,1.11,20.65,20.65,0,0,1-3,2.4,21.08,21.08,0,0,0,5.73-2.24,10.19,10.19,0,0,0,2.32-.14,14.41,14.41,0,0,1-.38-1.64,40.88,40.88,0,0,0,4.1-3.85,28.62,28.62,0,0,1-4.29,2.6c-.07-.79-.11-1.46-.15-2.34" transform="translate(0.02 0)"/></g></g><g id="Head"><g id="Head-2" data-name="Head"><polygon class="cls-1" points="416.21 284.13 396.38 477.96 468.21 461.79 484.04 349.79 416.21 284.13"/><polygon class="cls-1" points="259.15 272 414.08 304.63 416.21 284.13 263.21 262.31 259.15 272"/><polygon class="cls-1" points="245.02 364.91 260.8 364.84 263.52 314.13 264.18 273.06 259.15 272 244.93 323.13 245.02 364.91"/></g><polygon id="Face" class="cls-4" points="484.04 349.79 468.21 461.79 396.38 477.96 414.08 304.63 264.18 273.06 260.8 364.84 266.15 471.5 395.71 483.38 469.27 463.33 490.02 353.17 484.04 349.79"/><path id="Eye-L" class="cls-1" d="M309.31,328.75v-7.38l-43.5-.81-.31,8.19h4.94l2.31,48a142.14,142.14,0,0,1,18.5.12,139.69,139.69,0,0,1,18.31,2.57Z" transform="translate(0.02 0)"/><rect id="Retina-L" class="cls-4" x="281.27" y="328" width="9.63" height="19.13"/><path id="Eye-R" class="cls-1" d="M366.81,330.25l-.43-6.94-2.57-.5-41.43-1.19.12,58.57a107.8,107.8,0,0,1,35.56,3.31l5-53Z" transform="translate(0.02 0)"/><rect id="Retina-R" class="cls-4" x="331.44" y="330" width="9.63" height="19.13"/><g id="Mouth"><path class="cls-1" d="M349,424.2a239.28,239.28,0,0,0-59.86-1.57l.51,5.22a234.51,234.51,0,0,1,58.55,1.54C348.43,427.66,348.7,425.93,349,424.2Z" transform="translate(0.02 0)"/></g><g id="Ear"><path id="Ear-Outter" class="cls-4" d="M446.77,374.56l0,0h-6.37c-6.07.11-11,8.14-11,18s5,18,11.08,18h5.69l0,0,.29,0c6.12,0,11.08-8.08,11.08-18S452.76,374.8,446.77,374.56Zm-3.26.66h0ZM443.43,410l.07,0,.07,0Z" transform="translate(0.02 0)"/><ellipse id="Ear-Inner" class="cls-1" cx="445.52" cy="392.59" rx="10.58" ry="17.55"/></g></g><g id="Frame"><ellipse id="Frame-2" data-name="Frame" class="cls-9" cx="373.03" cy="424.73" rx="315.58" ry="376.8"/><polygon class="cls-10" points="373.04 40.43 374.77 46.2 380.54 46.16 375.85 49.68 377.67 55.43 373.04 51.83 368.4 55.43 370.22 49.68 365.54 46.16 371.3 46.2 373.04 40.43"/><polygon class="cls-10" points="450.94 63.15 446.55 66.83 448.12 61.16 443.44 57.91 449.05 57.74 450.54 52.05 452.43 57.6 458.04 57.34 453.6 60.95 455.57 66.47 450.94 63.15"/><polygon class="cls-10" points="521.78 95.6 517.64 99.36 518.97 93.78 514.29 90.8 519.74 90.4 520.99 84.8 523.04 90.13 528.49 89.65 524.3 93.34 526.42 98.64 521.78 95.6"/><polygon class="cls-10" points="583.21 146.35 579.32 150.19 580.4 144.7 575.72 142 581.02 141.37 582.02 135.86 584.23 140.97 589.52 140.26 585.58 144.05 587.85 149.13 583.21 146.35"/><polygon class="cls-10" points="632.86 212.59 629.22 216.52 630.04 211.1 625.37 208.67 630.52 207.82 631.27 202.4 633.63 207.29 638.77 206.36 635.08 210.23 637.5 215.09 632.86 212.59"/><polygon class="cls-10" points="668.36 291.48 664.96 295.49 665.54 290.16 660.87 288.01 665.87 286.94 666.37 281.6 668.88 286.27 673.87 285.12 670.42 289.08 673 293.71 668.36 291.48"/><polygon class="cls-10" points="687.34 380.21 684.19 384.3 684.52 379.05 679.85 377.17 684.7 375.88 684.96 370.63 687.62 375.08 692.46 373.71 689.25 377.75 691.98 382.17 687.34 380.21"/><polygon class="cls-10" points="687.53 474.55 684.64 478.72 684.72 473.56 680.05 471.95 684.75 470.44 684.76 465.27 687.58 469.5 692.26 467.91 689.3 472.04 692.18 476.23 687.53 474.55"/><polygon class="cls-10" points="668.78 563.28 666.14 567.53 665.97 562.45 661.3 561.12 665.85 559.38 665.61 554.3 668.59 558.31 673.11 556.5 670.4 560.72 673.44 564.68 668.78 563.28"/><polygon class="cls-10" points="633.49 642.17 631.08 646.51 630.67 641.51 626 640.45 630.4 638.49 629.91 633.5 633.05 637.29 637.41 635.26 634.95 639.56 638.14 643.3 633.49 642.17"/><polygon class="cls-10" points="584.03 708.41 581.88 712.83 581.22 707.91 576.55 707.13 580.8 704.95 580.07 700.04 583.35 703.61 587.57 701.36 585.35 705.75 588.69 709.27 584.03 708.41"/><polygon class="cls-10" points="522.8 759.16 520.9 763.67 519.99 758.83 515.32 758.32 519.41 755.92 518.44 751.09 521.88 754.44 525.94 751.98 523.97 756.45 527.46 759.75 522.8 759.16"/><polygon class="cls-10" points="452.15 791.61 450.49 796.2 449.33 791.45 444.67 791.21 448.61 788.58 447.39 783.84 450.98 786.97 454.89 784.28 453.17 788.85 456.81 791.92 452.15 791.61"/><polygon class="cls-10" points="374.44 802.93 373.04 807.6 371.63 802.93 366.97 802.96 370.76 800.11 369.29 795.46 373.04 798.37 376.79 795.46 375.31 800.11 379.1 802.96 374.44 802.93"/><polygon class="cls-10" points="296.74 791.45 295.58 796.2 293.92 791.61 289.26 791.92 292.9 788.85 291.18 784.28 295.09 786.97 298.68 783.84 297.46 788.58 301.4 791.21 296.74 791.45"/><polygon class="cls-10" points="226.09 758.83 225.17 763.67 223.27 759.16 218.61 759.75 222.1 756.45 220.13 751.98 224.19 754.44 227.63 751.09 226.66 755.92 230.75 758.32 226.09 758.83"/><polygon class="cls-10" points="164.85 707.91 164.19 712.83 162.04 708.41 157.38 709.27 160.72 705.75 158.5 701.36 162.72 703.61 166 700.04 165.27 704.95 169.52 707.13 164.85 707.91"/><polygon class="cls-10" points="115.4 641.51 114.99 646.51 112.58 642.17 107.93 643.3 111.12 639.56 108.66 635.26 113.02 637.29 116.16 633.5 115.67 638.49 120.07 640.45 115.4 641.51"/><polygon class="cls-10" points="80.1 562.45 79.93 567.53 77.28 563.28 72.63 564.68 75.67 560.72 72.96 556.5 77.48 558.31 80.46 554.3 80.22 559.38 84.77 561.12 80.1 562.45"/><polygon class="cls-10" points="61.35 473.56 61.43 478.72 58.54 474.55 53.89 476.23 56.77 472.04 53.81 467.91 58.49 469.5 61.31 465.27 61.32 470.44 66.02 471.95 61.35 473.56"/><polygon class="cls-10" points="61.55 379.05 61.88 384.3 58.73 380.21 54.09 382.17 56.82 377.75 53.62 373.71 58.45 375.08 61.12 370.63 61.37 375.88 66.22 377.17 61.55 379.05"/><polygon class="cls-10" points="80.53 290.16 81.11 295.49 77.72 291.48 73.07 293.71 75.65 289.08 72.2 285.12 77.19 286.27 79.7 281.6 80.2 286.94 85.2 288.01 80.53 290.16"/><polygon class="cls-10" points="116.03 211.1 116.85 216.52 113.21 212.59 108.57 215.09 111 210.23 107.3 206.36 112.44 207.29 114.8 202.4 115.55 207.82 120.7 208.67 116.03 211.1"/><polygon class="cls-10" points="165.67 144.7 166.75 150.19 162.86 146.35 158.22 149.13 160.49 144.05 156.55 140.26 161.84 140.97 164.05 135.86 165.04 141.37 170.35 142 165.67 144.7"/><polygon class="cls-10" points="227.1 93.78 228.43 99.36 224.29 95.6 219.65 98.64 221.77 93.34 217.58 89.65 223.03 90.13 225.08 84.8 226.33 90.4 231.78 90.8 227.1 93.78"/><polygon class="cls-10" points="297.95 61.16 299.52 66.83 295.13 63.15 290.5 66.47 292.47 60.95 288.03 57.34 293.64 57.6 295.53 52.05 297.02 57.74 302.63 57.91 297.95 61.16"/><polygon class="cls-10" points="373.04 40.43 374.77 46.2 380.54 46.16 375.85 49.68 377.67 55.43 373.04 51.83 368.4 55.43 370.22 49.68 365.54 46.16 371.3 46.2 373.04 40.43"/><rect class="cls-4" x="298.41" y="764.58" width="147.61" height="16.67"/><rect class="cls-4" x="307.52" y="781.25" width="129.37" height="25.13"/></g><g id="Banner"><g id="Ribbon"><path class="cls-2" d="M587.73,854.68c-29,12.69-57,21.2-90.81,22.5,4.75-1.9,7.13-2.91,11.87-5,14.78-6.5,22.11-10.41,36.73-19.53l-2.25-24.4-.37-4c16.53-4.28,24.74-7.1,41-15.35l-4.45,6.34c-8.89,12.5-13.35,18.29-22.26,29.37a183.45,183.45,0,0,0,25.18,8.32C584.52,853.65,585.6,854,587.73,854.68Z" transform="translate(0.02 0)"/><path class="cls-2" d="M541.05,804.19l.45,4.9c1.42,15.29,2.12,22.94,3.54,38.23l.48,5.28c-29.06,5.65-57.7,6.43-86.25,5.13s-57-4.87-85.53-8-57.1-5.81-85.73-5.5-57.28,3.75-85.76,12.83c-.35-2.1-.52-3.15-.87-5.25-2.53-15.19-3.79-22.78-6.31-38-.33-1.95-.49-2.92-.81-4.87C223,799.82,252,796.32,280.9,796s57.8,2.34,86.61,5.41,57.56,6.66,86.39,8S511.68,809.85,541.05,804.19Z" transform="translate(0.02 0)"/><path class="cls-2" d="M189.77,857.56a177.28,177.28,0,0,0-26.28-7c-2.08-.41-3.12-.6-5.2-.94,15.29-10.49,23.17-14.6,39.27-20.78.27,1.58.4,2.37.66,4,1.61,9.69,2.42,14.54,4,24.23,15.58-.53,23.54.24,39.56,2.65,5.15.82,7.74,1.3,12.92,2.36-33.72,4.17-61.12,16.09-88.47,33,1.57-3,2.36-4.45,4-7.36C177.87,874.9,181.78,868.87,189.77,857.56Z" transform="translate(0.02 0)"/><path class="cls-2" d="M496.92,877.18q6.45-2.58,12.73-5.44T522,865.86q12.16-6.18,23.5-13.26" transform="translate(0.02 0)"/><path class="cls-2" d="M215.31,852.47a183.92,183.92,0,0,1,36.74-7.76c.78,5.08,1.18,7.62,2,12.7.28,1.85.43,2.77.71,4.62a232.36,232.36,0,0,0-25.93-4,205.88,205.88,0,0,0-26.55-1C207.44,855,210.05,854.07,215.31,852.47Z" transform="translate(0.02 0)"/><path class="cls-2" d="M545.52,852.6q-11.31,7-23.5,13.26-6.09,3.07-12.37,5.88t-12.73,5.44l-.48-4.64c-.53-5.11-.79-7.66-1.32-12.76,14.92-.68,22.34-1.31,37-4.2C537.52,854.53,540.2,854,545.52,852.6Z" transform="translate(0.02 0)"/><path class="cls-2" d="M545.52,852.6c-7.54,4.7-16,2.53-24.13,6.65q-6.07,3.07-12.36,5.87t-12.74,5.44l-.48-4.64c-.52-5.11-.79-7.66-1.31-12.76,14.91-.67,22.34-1.31,37-4.2C536.9,847.92,540.2,854,545.52,852.6Z" transform="translate(0.02 0)"/><text class="cls-11" transform="matrix(0.97, -0.26, 0.26, 0.97, 199.62, 840.23)">J</text><text class="cls-11" transform="translate(212.41 836.79) rotate(-11.62)">O</text><text class="cls-11" transform="translate(228.48 833.59) rotate(-9.2)">I</text><text class="cls-11" transform="matrix(0.99, -0.12, 0.12, 0.99, 235.45, 832.36)">N</text><text class="cls-11" transform="matrix(1, -0.08, 0.08, 1, 252.06, 830.45)"> </text><text class="cls-11" transform="translate(257.19 829.94) rotate(-3.17)">T</text><text class="cls-11" transform="translate(272.11 829.11) rotate(-0.78)">H</text><text class="cls-11" transform="translate(288.83 828.92) rotate(1.19)">E</text><text class="cls-11" transform="matrix(1, 0.04, -0.04, 1, 302.16, 829.23)"> </text><text class="cls-11" transform="matrix(1, 0.06, -0.06, 1, 308.08, 829.42)">R</text><text class="cls-11" transform="translate(323.62 830.32) rotate(4.56)">O</text><text class="cls-11" transform="translate(340.07 831.65) rotate(5.46)">B</text><text class="cls-11" transform="translate(355.45 833.12) rotate(6)">O</text><text class="cls-11" transform="translate(370.9 834.76) rotate(6.33)">T</text><text class="cls-11" transform="translate(385.23 836.35) rotate(6.29)"> </text><text class="cls-11" transform="matrix(0.99, 0.11, -0.11, 0.99, 391.17, 837.02)">R</text><text class="cls-11" transform="translate(406.69 838.68) rotate(5.58)">E</text><text class="cls-11" transform="translate(420.01 840) rotate(4.77)">V</text><text class="cls-11" transform="translate(435.56 841.31) rotate(3.55)">O</text><text class="cls-11" transform="translate(452.01 842.31) rotate(2.1)">L</text><text class="cls-11" transform="translate(464.6 842.81) rotate(0.52)">U</text><text class="cls-11" transform="translate(480.6 842.95) rotate(-1.57)">T</text><text class="cls-11" transform="matrix(1, -0.06, 0.06, 1, 496.06, 842.46)">I</text><text class="cls-11" transform="translate(503.68 842.1) rotate(-5.37)">O</text><text class="cls-11" transform="matrix(0.99, -0.15, 0.15, 0.99, 520.76, 840.49)">N</text></g><rect class="cls-1" x="91.01" y="670.24" width="565" height="107"/><rect class="cls-12" x="657.95" y="680.5" width="3.8" height="17.29"/><rect class="cls-12" x="657.95" y="697.79" width="3.8" height="17.29"/><rect class="cls-12" x="657.95" y="715.09" width="3.8" height="17.29"/><rect class="cls-12" x="657.95" y="732.38" width="3.8" height="17.29"/><rect class="cls-12" x="657.95" y="749.68" width="3.8" height="17.29"/><rect class="cls-12" x="632.93" y="774.7" width="17.29" height="3.8"/><rect class="cls-12" x="615.63" y="774.7" width="17.29" height="3.8"/><rect class="cls-12" x="598.34" y="774.7" width="17.29" height="3.8"/><rect class="cls-12" x="581.05" y="774.7" width="17.29" height="3.8"/><rect class="cls-12" x="563.75" y="774.7" width="17.29" height="3.8"/><rect class="cls-12" x="546.46" y="774.7" width="17.29" height="3.8"/><rect class="cls-12" x="529.16" y="774.7" width="17.29" height="3.8"/><rect class="cls-12" x="511.87" y="774.7" width="17.29" height="3.8"/><rect class="cls-12" x="494.57" y="774.7" width="17.29" height="3.8"/><rect class="cls-12" x="477.28" y="774.7" width="17.29" height="3.8"/><rect class="cls-12" x="459.98" y="774.7" width="17.29" height="3.8"/><rect class="cls-12" x="442.69" y="774.7" width="17.29" height="3.8"/><rect class="cls-12" x="425.39" y="774.7" width="17.29" height="3.8"/><rect class="cls-12" x="408.1" y="774.7" width="17.29" height="3.8"/><rect class="cls-12" x="390.8" y="774.7" width="17.29" height="3.8"/><rect class="cls-12" x="373.51" y="774.7" width="17.29" height="3.8"/><rect class="cls-12" x="356.21" y="774.7" width="17.29" height="3.8"/><rect class="cls-12" x="338.92" y="774.7" width="17.29" height="3.8"/><rect class="cls-12" x="321.63" y="774.7" width="17.29" height="3.8"/><rect class="cls-12" x="304.33" y="774.7" width="17.29" height="3.8"/><rect class="cls-12" x="287.04" y="774.7" width="17.29" height="3.8"/><rect class="cls-12" x="269.74" y="774.7" width="17.29" height="3.8"/><rect class="cls-12" x="252.45" y="774.7" width="17.29" height="3.8"/><rect class="cls-12" x="235.15" y="774.7" width="17.29" height="3.8"/><rect class="cls-12" x="217.86" y="774.7" width="17.29" height="3.8"/><rect class="cls-12" x="200.56" y="774.7" width="17.29" height="3.8"/><rect class="cls-12" x="183.27" y="774.7" width="17.29" height="3.8"/><rect class="cls-12" x="165.97" y="774.7" width="17.29" height="3.8"/><rect class="cls-12" x="148.68" y="774.7" width="17.29" height="3.8"/><rect class="cls-12" x="131.38" y="774.7" width="17.29" height="3.8"/><rect class="cls-12" x="114.09" y="774.7" width="17.29" height="3.8"/><rect class="cls-12" x="96.79" y="774.7" width="17.29" height="3.8"/><rect class="cls-12" x="85.26" y="749.68" width="3.8" height="17.29"/><rect class="cls-12" x="85.26" y="732.38" width="3.8" height="17.29"/><rect class="cls-12" x="85.26" y="715.09" width="3.8" height="17.29"/><rect class="cls-12" x="85.26" y="697.79" width="3.8" height="17.29"/><rect class="cls-12" x="85.26" y="680.5" width="3.8" height="17.29"/><rect class="cls-12" x="96.79" y="668.97" width="17.29" height="3.8"/><rect class="cls-12" x="114.09" y="668.97" width="17.29" height="3.8"/><rect class="cls-12" x="131.38" y="668.97" width="17.29" height="3.8"/><rect class="cls-12" x="148.68" y="668.97" width="17.29" height="3.8"/><rect class="cls-12" x="165.97" y="668.97" width="17.29" height="3.8"/><rect class="cls-12" x="183.27" y="668.97" width="17.29" height="3.8"/><rect class="cls-12" x="200.56" y="668.97" width="17.29" height="3.8"/><rect class="cls-12" x="217.86" y="668.97" width="17.29" height="3.8"/><rect class="cls-12" x="235.15" y="668.97" width="17.29" height="3.8"/><rect class="cls-12" x="252.45" y="668.97" width="17.29" height="3.8"/><rect class="cls-12" x="269.74" y="668.97" width="17.29" height="3.8"/><rect class="cls-12" x="287.04" y="668.97" width="17.29" height="3.8"/><rect class="cls-12" x="304.33" y="668.97" width="17.29" height="3.8"/><rect class="cls-12" x="321.63" y="668.97" width="17.29" height="3.8"/><rect class="cls-12" x="338.92" y="668.97" width="17.29" height="3.8"/><rect class="cls-12" x="356.21" y="668.97" width="17.29" height="3.8"/><rect class="cls-12" x="373.51" y="668.97" width="17.29" height="3.8"/><rect class="cls-12" x="390.8" y="668.97" width="17.29" height="3.8"/><rect class="cls-12" x="408.1" y="668.97" width="17.29" height="3.8"/><rect class="cls-12" x="425.39" y="668.97" width="17.29" height="3.8"/><rect class="cls-12" x="442.69" y="668.97" width="17.29" height="3.8"/><rect class="cls-12" x="459.98" y="668.97" width="17.29" height="3.8"/><rect class="cls-12" x="477.28" y="668.97" width="17.29" height="3.8"/><rect class="cls-12" x="494.57" y="668.97" width="17.29" height="3.8"/><rect class="cls-12" x="511.87" y="668.97" width="17.29" height="3.8"/><rect class="cls-12" x="529.16" y="668.97" width="17.29" height="3.8"/><rect class="cls-12" x="546.46" y="668.97" width="17.29" height="3.8"/><rect class="cls-12" x="563.75" y="668.97" width="17.29" height="3.8"/><rect class="cls-12" x="581.05" y="668.97" width="17.29" height="3.8"/><rect class="cls-12" x="598.34" y="668.97" width="17.29" height="3.8"/><rect class="cls-12" x="615.63" y="668.97" width="17.29" height="3.8"/><rect class="cls-12" x="632.93" y="668.97" width="17.29" height="3.8"/><path class="cls-12" d="M650.19,778.51h5.74l0-.17,0-.17,0-.18,0-.18,0-.18v-.18l0-.19v-.66l0-.23,0-.23.06-.22.06-.22.07-.21.08-.21.09-.2.1-.2.12-.19.11-.19.13-.18.14-.17.14-.17.16-.16.15-.15.17-.14.17-.14.18-.13.19-.12.19-.11.2-.1.2-.09.21-.08.22-.08.21-.06.23,0,.22,0,.23,0,.24,0h.61l.18,0,.18,0,.18,0,.18,0,.17,0,.17.05V767h-3.8v2.59l-.56.12-.27.07-.25.08-.25.08-.24.08-.23.1-.22.09-.21.11-.21.11-.2.12-.19.12-.18.13-.17.14-.17.14-.16.16-.15.16-.15.16-.13.18-.13.18-.13.19-.12.19-.11.21-.1.21-.1.22-.09.24-.09.23-.08.25-.07.26-.07.26-.12.56h-2.59Z" transform="translate(0.02 0)"/><path class="cls-12" d="M85.24,767v5.75l.17-.06.17,0,.17,0,.18,0,.18,0,.19,0h.61l.23,0,.23,0,.23,0,.22.06.22.06.21.07.21.08.21.09.19.11.2.11.18.12.18.12.18.14.16.14.16.16.15.16.15.16.13.18.13.18.12.18.11.19.1.2.1.21.08.2.07.22.06.22,0,.22,0,.22,0,.23,0,.24v.61l0,.18,0,.18,0,.18,0,.18,0,.17-.06.18h5.75V774.7H94.19l-.12-.56-.07-.27-.07-.25-.08-.25-.09-.24-.09-.23-.1-.22-.1-.21-.11-.21-.12-.2-.13-.19-.13-.18-.13-.17-.15-.17-.15-.16-.16-.15-.17-.14-.17-.14-.18-.13-.19-.13-.2-.12-.21-.11-.21-.1-.22-.1-.23-.09-.24-.09-.25-.08-.25-.07-.27-.07-.55-.12V767Z" transform="translate(0.02 0)"/><path class="cls-12" d="M96.78,669H91l0,.17,0,.17,0,.18,0,.18,0,.18,0,.19v.61l0,.23,0,.23,0,.23-.05.22-.06.22L91,672l-.08.21-.09.2-.1.2-.11.19-.12.19-.13.18-.14.17-.14.17-.15.16-.16.15-.17.14-.17.14-.18.13-.19.12-.19.11-.2.1-.2.09-.21.08-.21.08-.22.06-.22,0-.23,0-.23,0-.23,0h-.61l-.19,0-.18,0-.18,0-.18,0-.17-.05-.17,0v5.75h3.81v-2.59l.55-.12.27-.07.26-.08.24-.08.24-.08.23-.09.22-.1.22-.11.2-.11.2-.12.19-.12.18-.13.18-.14.16-.14.16-.15.15-.16.15-.17.14-.17.13-.19.12-.19.12-.19.11-.21.11-.21.09-.22.1-.23.08-.24.08-.25.08-.26.07-.26.12-.56h2.58Z" transform="translate(0.02 0)"/><path class="cls-12" d="M661.74,680.51v-5.74l-.17.05-.17,0-.18,0-.18,0-.18,0h-.19l-.18,0h-.66l-.23,0-.23,0-.22,0-.22-.07-.21-.07-.21-.08-.2-.09-.2-.1-.19-.12-.19-.11-.18-.13-.17-.14-.17-.14-.16-.16-.15-.15-.14-.17-.14-.17-.13-.18-.12-.19-.11-.19-.1-.2-.09-.2L656,672l-.08-.22-.06-.21-.05-.23,0-.22,0-.23,0-.24V670l0-.18,0-.18,0-.18,0-.18,0-.17.05-.17h-5.75v3.8h2.59l.12.56.07.27.08.25.08.25.08.24.09.23.1.22.11.21.11.21.12.2.12.19.13.18.14.17.14.17.16.16.15.15.17.15.17.13.19.13.19.13.19.12.21.11.21.1.22.1.23.09.24.09.25.08.26.07.26.07.56.12v2.59Z" transform="translate(0.02 0)"/><rect class="cls-4" x="100.34" y="679.76" width="545.4" height="87.95"/><ellipse class="cls-1" cx="373.03" cy="775.5" rx="23.5" ry="25"/><polygon class="cls-4" points="372.99 750.5 378.17 767.9 395.31 767.76 381.37 778.38 386.79 795.69 372.99 784.86 359.19 795.69 364.61 778.38 350.66 767.76 367.81 767.9 372.99 750.5"/><text class="cls-13" transform="translate(106.66 755.85) scale(1 1.5)">ROB<tspan class="cls-14" x="123.77" y="0">O</tspan><tspan class="cls-15" x="164.2" y="0">T</tspan><tspan x="203.06" y="0">S</tspan></text><text class="cls-16" transform="translate(408.23 738.75)">lead the way!</text><line class="cls-17" x1="355.53" y1="723.74" x2="390.53" y2="723.74"/><g id="BoTW"><path class="cls-18" d="M205.61,945.82h-25v-25h25Z" transform="translate(0.02 0)"/><path class="cls-4" d="M200.11,927.4c-1.55.9-2,1-3.7,2a16.43,16.43,0,0,0,1.92-2.4,37.62,37.62,0,0,0-5.39.63,21,21,0,0,1,5.62-1.77,19.19,19.19,0,0,0-3.76-2.25,16.05,16.05,0,0,1,6.11,1.77,10.53,10.53,0,0,1,2-.25,2.64,2.64,0,0,1-1.18,1.27c.26.68-.35,4.45-.86,5.45,0-1.58-.15-3.57-.74-4.43m-11.3,13.51a6.07,6.07,0,0,1-2.23-1.37,6.91,6.91,0,0,1,.84-1.61c-.72.1-1.25.19-1.87.3a9.73,9.73,0,0,1-1-2.92,10.45,10.45,0,0,0,0,3.16,8.78,8.78,0,0,0-1.45.51,17.71,17.71,0,0,0,1.93,1,6.43,6.43,0,0,0,1.46,2.07,3.67,3.67,0,0,1-.13-1.58,9.17,9.17,0,0,0,2.45.39m2.31-12.53a5.19,5.19,0,0,0-.69,1.34,11.38,11.38,0,0,1,4.12,1.48,13.32,13.32,0,0,0-3.79-.24,2.8,2.8,0,0,0-.9.16,15.65,15.65,0,0,0-.86,3.21c-.36-.88-.89-2.64-.89-2.64a26.59,26.59,0,0,0-3.32,2.72,13.22,13.22,0,0,1,2.56-3.71,4.37,4.37,0,0,0-2.46-.72,9.62,9.62,0,0,1,2.45-.43,13.39,13.39,0,0,1,1.41,0,7,7,0,0,1,2.37-1.2m2.42,11a17.22,17.22,0,0,1-1.2,1.48,7.49,7.49,0,0,1-2.13.29,5.22,5.22,0,0,0,1.39.48,9.08,9.08,0,0,1-1.35,1,9.52,9.52,0,0,0,2.57-1,4.79,4.79,0,0,0,1.05-.06,4.56,4.56,0,0,1-.18-.71,16.5,16.5,0,0,0,1.84-1.66,12.39,12.39,0,0,1-1.92,1.12c0-.34-.05-.63-.07-1" transform="translate(0.02 0)"/><text class="cls-19" transform="translate(208.41 945.66) rotate(0.1)">BANK</text><text class="cls-19" transform="translate(328.02 945.66) rotate(0.1)">WES<tspan class="cls-20" x="73.97" y="0">T</tspan></text><text class="cls-21" transform="translate(310.99 930.29) rotate(0.1)">of<tspan x="-3.7" y="15">the</tspan></text></g><path class="cls-4" d="M442,928.56c-1,0-2.17.75-3.58,2.24V946h-4.27V925h4.27v2a6,6,0,0,1,4.9-2.48c2.07,0,3.2.78,3.4,2.34a29.88,29.88,0,0,1,.3,3.44l-3.67.45a5.38,5.38,0,0,0-.24-1.56Q442.94,928.56,442,928.56Z" transform="translate(0.02 0)"/><path class="cls-4" d="M466.1,935.59q0,10.9-8.71,10.91-6.56,0-7.66-4a26.73,26.73,0,0,1-1.11-7q0-5.76,2.28-8.39c1.51-1.76,3.72-2.63,6.62-2.63s5.06.87,6.47,2.63S466.1,931.69,466.1,935.59Zm-8.74-7.49a3.53,3.53,0,0,0-3.23,1.61q-1,1.62-1,5.78c0,2.78.34,4.7,1,5.78a4,4,0,0,0,6.46,0c.67-1.08,1-3,1-5.78s-.34-4.7-1-5.78A3.53,3.53,0,0,0,457.36,928.1Z" transform="translate(0.02 0)"/><path class="cls-4" d="M475,926.32a11.26,11.26,0,0,1,5.88-1.83,6,6,0,0,1,4.84,2.42q2,2.42,2,8.34t-2.41,8.59a8.15,8.15,0,0,1-6.32,2.66,14,14,0,0,1-4.28-.73,13.3,13.3,0,0,1-3.94-2V917.14l4.26-.79Zm8.2,8.93q0-6.91-4-6.92a5.94,5.94,0,0,0-2.24.39,12.92,12.92,0,0,0-2,1.06v11.93a6.71,6.71,0,0,0,3.71,1.18q3.13,0,3.81-2.74A20.92,20.92,0,0,0,483.17,935.25Z" transform="translate(0.02 0)"/><path class="cls-4" d="M508.4,935.59q0,10.9-8.71,10.91-6.56,0-7.66-4a26.73,26.73,0,0,1-1.11-7q0-5.76,2.28-8.39c1.51-1.76,3.72-2.63,6.62-2.63s5.06.87,6.47,2.63S508.4,931.69,508.4,935.59Zm-8.74-7.49a3.53,3.53,0,0,0-3.23,1.61q-1,1.62-1,5.78c0,2.78.34,4.7,1,5.78a4,4,0,0,0,6.46,0c.67-1.08,1-3,1-5.78s-.34-4.7-1-5.78A3.53,3.53,0,0,0,499.66,928.1Z" transform="translate(0.02 0)"/><path class="cls-4" d="M518.19,946.5a5,5,0,0,1-3.33-1.16,4.6,4.6,0,0,1-1.35-3.69v-13h-2.84V925h3v-3.53l4.13-1.18V925H523l-.56,3.61h-4.69v11.77c0,1.44.6,2.15,1.81,2.15a7.89,7.89,0,0,0,3.59-1.18l1,3.15A10.53,10.53,0,0,1,518.19,946.5Z" transform="translate(0.02 0)"/><path class="cls-4" d="M531.6,917.53v4.66h-4.26v-4.66Zm0,7.48v21h-4.26V925Z" transform="translate(0.02 0)"/><path class="cls-4" d="M546.7,928.72a4.62,4.62,0,0,0-2.1-.62,3.87,3.87,0,0,0-1.64.33,2.84,2.84,0,0,0-1.19,1.17,6.86,6.86,0,0,0-.69,2.27,34,34,0,0,0-.22,4.64,8,8,0,0,0,1.19,4.78,4,4,0,0,0,3.4,1.6,8.71,8.71,0,0,0,3.56-.62,18.77,18.77,0,0,0,2.36-1.27l.91,3.2a18,18,0,0,1-3.2,1.6,11.31,11.31,0,0,1-4.19.7,7.75,7.75,0,0,1-6.32-2.67q-2.21-2.67-2.21-8.28c0-3.74.68-6.51,2-8.33s3.49-2.73,6.41-2.73c2.52,0,4.39.65,5.59,2a7.79,7.79,0,0,1,1.88,5.26c-1.32.09-2.74.22-4.27.38C547.92,930.26,547.49,929.14,546.7,928.72Z" transform="translate(0.02 0)"/><path class="cls-4" d="M562.09,942.89c2,0,3-.76,3-2.29a1.79,1.79,0,0,0-.72-1.42,9.6,9.6,0,0,0-1.81-1.13q-1.1-.56-4.17-2a5.35,5.35,0,0,1-3.08-5.31,5.74,5.74,0,0,1,1.92-4.55,7.75,7.75,0,0,1,5.3-1.68,6.77,6.77,0,0,1,5.09,1.75,6.15,6.15,0,0,1,1.7,4.46l-3.59.63a4.28,4.28,0,0,0-.83-2.31,2.59,2.59,0,0,0-2.19-.92c-2.09,0-3.13.76-3.13,2.29a2.24,2.24,0,0,0,.73,1.68,7.87,7.87,0,0,0,1.82,1.26c.72.38,1.5.76,2.34,1.16a21.65,21.65,0,0,1,3.07,1.89,4.65,4.65,0,0,1,1.82,4.06,5.56,5.56,0,0,1-1.89,4.41,7.77,7.77,0,0,1-5.28,1.65,11.26,11.26,0,0,1-4.43-.81,9.35,9.35,0,0,1-3-2l1.41-3.16a8.41,8.41,0,0,0,2.68,1.7A8.62,8.62,0,0,0,562.09,942.89Z" transform="translate(0.02 0)"/><polygon class="cls-4" points="529.87 914.04 528.41 914.22 527.84 915.57 528.72 916.75 530.18 916.57 530.76 915.22 529.87 914.04"/><path class="cls-4" d="M528.58,917l-1.08-1.43.7-1.64,1.77-.22,1.08,1.43-.7,1.64Zm-.45-1.5.69.92,1.15-.14.45-1.06-.69-.93-1.15.14Z" transform="translate(0.02 0)"/><polygon class="cls-4" points="526.39 915.26 525.49 916.42 526.04 917.79 527.49 917.99 528.4 916.84 527.85 915.47 526.39 915.26"/><path class="cls-4" d="M527.59,918.29l-1.77-.25-.67-1.66,1.1-1.41,1.77.25.67,1.66Zm-1.38-.75,1.14.16.71-.91-.43-1.07-1.14-.16-.71.91Z" transform="translate(0.02 0)"/><polygon class="cls-4" points="524.87 918.66 525.05 920.12 526.4 920.69 527.58 919.81 527.4 918.35 526.04 917.77 524.87 918.66"/><path class="cls-4" d="M526.42,921l-1.65-.7-.22-1.78,1.43-1.07,1.65.7.21,1.77Zm-1.14-1.08,1.06.45.92-.7-.14-1.14-1.06-.45-.92.69Z" transform="translate(0.02 0)"/><polygon class="cls-4" points="526.18 922.13 527.34 923.03 528.7 922.48 528.9 921.03 527.75 920.12 526.38 920.67 526.18 922.13"/><path class="cls-4" d="M527.27,923.35l-1.41-1.1.25-1.77,1.66-.67,1.41,1.1-.25,1.77Zm-.82-1.34.91.71,1.07-.43.16-1.15-.91-.71-1.07.44Z" transform="translate(0.02 0)"/><polygon class="cls-4" points="530.71 920.87 529.25 921.05 528.67 922.41 529.56 923.58 531.02 923.4 531.59 922.05 530.71 920.87"/><path class="cls-4" d="M529.41,923.87l-1.07-1.43.7-1.64,1.77-.22,1.08,1.43-.7,1.65Zm-.44-1.5.69.92,1.15-.14.45-1.06-.7-.92-1.14.14Z" transform="translate(0.02 0)"/><polygon class="cls-4" points="532.11 914.57 533.27 915.47 533.06 916.93 531.7 917.48 530.54 916.57 530.75 915.12 532.11 914.57"/><path class="cls-4" d="M531.63,917.79l-1.41-1.1.25-1.77,1.66-.67,1.41,1.1-.25,1.77Zm-.82-1.34.91.71,1.07-.43.16-1.14-.91-.71-1.07.43Z" transform="translate(0.02 0)"/><polygon class="cls-4" points="534.41 917.49 534.59 918.95 533.41 919.84 532.06 919.26 531.88 917.8 533.05 916.91 534.41 917.49"/><path class="cls-4" d="M533.43,920.15l-1.65-.7-.22-1.77L533,916.6l1.65.7.21,1.77Zm-1.14-1.08,1.06.45.92-.69-.14-1.15-1.06-.45-.92.69Z" transform="translate(0.02 0)"/><polygon class="cls-4" points="533.97 921.17 533.07 922.33 531.61 922.13 531.06 920.76 531.97 919.6 533.42 919.81 533.97 921.17"/><path class="cls-4" d="M533.16,922.63l-1.77-.25-.67-1.66,1.1-1.41,1.77.25.67,1.66Zm-1.38-.75,1.15.16.71-.91-.44-1.07-1.14-.16-.71.91Z" transform="translate(0.02 0)"/><circle class="cls-1" cx="529.73" cy="918.81" r="2.77"/><circle class="cls-4" cx="529.71" cy="918.77" r="1.53"/></g></svg>