<svg id="Layer_1" data-name="Layer 1" xmlns="http://www.w3.org/2000/svg" viewBox="0 0 389.27 41.83"><defs><style>.cls-1,.cls-6{fill:#00925b;}.cls-1{stroke:#e6e4cf;stroke-miterlimit:10;}.cls-2,.cls-3,.cls-5{fill:#e6e4cf;}.cls-3{font-size:36px;}.cls-3,.cls-5{font-family:Roboto-Black, Roboto;}.cls-4{letter-spacing:-0.03em;}.cls-5{font-size:14px;}</style></defs><title>BoTW_Robotics</title><g id="BoTW"><g id="BoTW-2" data-name="BoTW"><path class="cls-1" d="M191.61,280.82h-25v-25h25Z" transform="translate(-166.11 -248.75)"/><path class="cls-2" d="M186.11,262.4c-1.55.9-2,1-3.7,2a16.43,16.43,0,0,0,1.92-2.4,37.62,37.62,0,0,0-5.39.63,21,21,0,0,1,5.62-1.77,19.19,19.19,0,0,0-3.76-2.25,16.05,16.05,0,0,1,6.11,1.77,10.53,10.53,0,0,1,2-.25,2.64,2.64,0,0,1-1.18,1.27c.26.68-.35,4.45-.86,5.45,0-1.58-.15-3.57-.74-4.43m-11.3,13.51a6.07,6.07,0,0,1-2.23-1.37,6.91,6.91,0,0,1,.84-1.61c-.72.1-1.25.19-1.87.3a9.73,9.73,0,0,1-1-2.92,10.45,10.45,0,0,0,0,3.16,8.78,8.78,0,0,0-1.45.51,17.71,17.71,0,0,0,1.93,1,6.43,6.43,0,0,0,1.46,2.07,3.67,3.67,0,0,1-.13-1.58,9.17,9.17,0,0,0,2.45.39m2.31-12.53a5.19,5.19,0,0,0-.69,1.34,11.38,11.38,0,0,1,4.12,1.48,13.32,13.32,0,0,0-3.79-.24,2.8,2.8,0,0,0-.9.16,15.65,15.65,0,0,0-.86,3.21c-.36-.88-.89-2.64-.89-2.64a26.59,26.59,0,0,0-3.32,2.72,13.22,13.22,0,0,1,2.56-3.71,4.37,4.37,0,0,0-2.46-.72,9.62,9.62,0,0,1,2.45-.43,13.39,13.39,0,0,1,1.41,0,7,7,0,0,1,2.37-1.2m2.42,10.95a17.22,17.22,0,0,1-1.2,1.48,7.49,7.49,0,0,1-2.13.29,5.22,5.22,0,0,0,1.39.48,9.08,9.08,0,0,1-1.35,1,9.52,9.52,0,0,0,2.57-1,4.79,4.79,0,0,0,1.05-.06,4.56,4.56,0,0,1-.18-.71,16.5,16.5,0,0,0,1.84-1.66,12.39,12.39,0,0,1-1.92,1.12c0-.34-.05-.63-.07-1" transform="translate(-166.11 -248.75)"/><text class="cls-3" transform="translate(28.28 31.91) rotate(0.1)">BANK</text><text class="cls-3" transform="translate(147.88 31.91) rotate(0.1)">WES<tspan class="cls-4" x="73.97" y="0">T</tspan></text><text class="cls-5" transform="translate(130.85 16.54) rotate(0.1)">of<tspan x="-3.7" y="15">the</tspan></text></g><path class="cls-2" d="M428,263.56c-1,0-2.17.75-3.58,2.24V281h-4.27V260h4.27v2a6,6,0,0,1,4.9-2.48c2.07,0,3.2.78,3.4,2.34a29.88,29.88,0,0,1,.3,3.44l-3.67.45a5.38,5.38,0,0,0-.24-1.56Q428.94,263.56,428,263.56Z" transform="translate(-166.11 -248.75)"/><path class="cls-2" d="M452.1,270.59q0,10.91-8.71,10.91-6.56,0-7.66-4a26.73,26.73,0,0,1-1.11-7q0-5.76,2.28-8.39c1.51-1.76,3.72-2.63,6.62-2.63s5.06.87,6.47,2.63S452.1,266.69,452.1,270.59Zm-8.74-7.49a3.53,3.53,0,0,0-3.23,1.61q-1,1.62-1,5.78c0,2.78.34,4.7,1,5.78a4,4,0,0,0,6.46,0c.67-1.08,1-3,1-5.78s-.34-4.7-1-5.78A3.53,3.53,0,0,0,443.36,263.1Z" transform="translate(-166.11 -248.75)"/><path class="cls-2" d="M461,261.32a11.26,11.26,0,0,1,5.88-1.83,6,6,0,0,1,4.84,2.42q2,2.41,2,8.34t-2.41,8.59a8.15,8.15,0,0,1-6.32,2.66,14,14,0,0,1-4.28-.73,13.3,13.3,0,0,1-3.94-2V252.14l4.26-.79Zm8.2,8.93q0-6.92-4-6.92a5.94,5.94,0,0,0-2.24.39,12.92,12.92,0,0,0-2,1.06v11.93a6.71,6.71,0,0,0,3.71,1.18q3.13,0,3.81-2.74A20.92,20.92,0,0,0,469.17,270.25Z" transform="translate(-166.11 -248.75)"/><path class="cls-2" d="M494.4,270.59q0,10.91-8.71,10.91-6.56,0-7.66-4a26.73,26.73,0,0,1-1.11-7q0-5.76,2.28-8.39c1.51-1.76,3.72-2.63,6.62-2.63s5.06.87,6.47,2.63S494.4,266.69,494.4,270.59Zm-8.74-7.49a3.53,3.53,0,0,0-3.23,1.61q-1,1.62-1,5.78c0,2.78.34,4.7,1,5.78a4,4,0,0,0,6.46,0c.67-1.08,1-3,1-5.78s-.34-4.7-1-5.78A3.53,3.53,0,0,0,485.66,263.1Z" transform="translate(-166.11 -248.75)"/><path class="cls-2" d="M504.19,281.5a5,5,0,0,1-3.33-1.16,4.6,4.6,0,0,1-1.35-3.69v-13h-2.84V260h3v-3.53l4.13-1.18V260H509l-.56,3.61h-4.69v11.77c0,1.44.6,2.15,1.81,2.15a7.89,7.89,0,0,0,3.59-1.18l.95,3.15A10.53,10.53,0,0,1,504.19,281.5Z" transform="translate(-166.11 -248.75)"/><path class="cls-2" d="M517.6,252.53v4.66h-4.26v-4.66Zm0,7.48v21h-4.26V260Z" transform="translate(-166.11 -248.75)"/><path class="cls-2" d="M532.7,263.72a4.62,4.62,0,0,0-2.1-.62,3.87,3.87,0,0,0-1.64.33,2.84,2.84,0,0,0-1.19,1.17,6.86,6.86,0,0,0-.69,2.27,34,34,0,0,0-.22,4.64,8,8,0,0,0,1.19,4.78,4,4,0,0,0,3.4,1.6,8.71,8.71,0,0,0,3.56-.62,18.77,18.77,0,0,0,2.36-1.27l.91,3.2a18,18,0,0,1-3.2,1.6,11.31,11.31,0,0,1-4.19.7,7.75,7.75,0,0,1-6.32-2.67q-2.21-2.67-2.21-8.28c0-3.74.68-6.51,2-8.33s3.49-2.73,6.41-2.73c2.52,0,4.39.65,5.59,1.95a7.79,7.79,0,0,1,1.88,5.26c-1.32.09-2.74.22-4.27.38C533.92,265.26,533.49,264.14,532.7,263.72Z" transform="translate(-166.11 -248.75)"/><path class="cls-2" d="M548.09,277.89c2,0,3-.76,3-2.29a1.79,1.79,0,0,0-.72-1.42,9.6,9.6,0,0,0-1.81-1.13q-1.1-.56-4.17-2a5.35,5.35,0,0,1-3.08-5.31,5.74,5.74,0,0,1,1.92-4.55,7.75,7.75,0,0,1,5.3-1.68,6.77,6.77,0,0,1,5.09,1.75,6.15,6.15,0,0,1,1.7,4.46l-3.59.63a4.28,4.28,0,0,0-.83-2.31,2.59,2.59,0,0,0-2.19-.92c-2.09,0-3.13.76-3.13,2.29a2.24,2.24,0,0,0,.73,1.68,7.87,7.87,0,0,0,1.82,1.26c.72.38,1.5.76,2.34,1.16a21.65,21.65,0,0,1,3.07,1.89,4.65,4.65,0,0,1,1.82,4.06,5.56,5.56,0,0,1-1.89,4.41,7.77,7.77,0,0,1-5.28,1.65,11.26,11.26,0,0,1-4.43-.81,9.35,9.35,0,0,1-3-2l1.41-3.16a8.41,8.41,0,0,0,2.68,1.7A8.62,8.62,0,0,0,548.09,277.89Z" transform="translate(-166.11 -248.75)"/><polygon class="cls-2" points="349.74 0.29 348.28 0.47 347.7 1.82 348.59 3 350.05 2.82 350.62 1.47 349.74 0.29"/><path class="cls-2" d="M514.58,252l-1.08-1.43.7-1.64,1.77-.22,1.08,1.43-.7,1.64Zm-.45-1.5.69.92,1.15-.14.45-1.06-.69-.93-1.15.14Z" transform="translate(-166.11 -248.75)"/><polygon class="cls-2" points="346.26 1.51 345.35 2.67 345.9 4.04 347.36 4.24 348.26 3.08 347.71 1.72 346.26 1.51"/><path class="cls-2" d="M513.59,253.29l-1.77-.25-.67-1.66,1.1-1.41,1.77.25.67,1.66Zm-1.38-.75,1.14.16.71-.91-.43-1.07-1.14-.16-.71.91Z" transform="translate(-166.11 -248.75)"/><polygon class="cls-2" points="344.73 4.91 344.91 6.37 346.26 6.94 347.44 6.06 347.26 4.6 345.91 4.02 344.73 4.91"/><path class="cls-2" d="M512.42,256l-1.65-.7-.22-1.78,1.43-1.07,1.65.7.21,1.77Zm-1.14-1.08,1.06.45.92-.7-.14-1.14-1.06-.45-.92.69Z" transform="translate(-166.11 -248.75)"/><polygon class="cls-2" points="346.04 8.38 347.2 9.28 348.56 8.73 348.77 7.28 347.61 6.37 346.25 6.92 346.04 8.38"/><path class="cls-2" d="M513.27,258.35l-1.41-1.1.25-1.77,1.66-.67,1.41,1.1-.25,1.77Zm-.82-1.34.91.71,1.07-.43.16-1.15-.91-.71-1.07.44Z" transform="translate(-166.11 -248.75)"/><polygon class="cls-2" points="350.57 7.12 349.11 7.3 348.54 8.66 349.42 9.83 350.88 9.65 351.46 8.3 350.57 7.12"/><path class="cls-2" d="M515.41,258.87l-1.07-1.43.7-1.64,1.77-.22,1.08,1.43-.7,1.65Zm-.44-1.5.69.92,1.15-.14.45-1.06-.7-.92-1.14.14Z" transform="translate(-166.11 -248.75)"/><polygon class="cls-2" points="351.97 0.82 353.13 1.72 352.93 3.18 351.56 3.73 350.4 2.82 350.61 1.37 351.97 0.82"/><path class="cls-2" d="M517.63,252.79l-1.41-1.1.25-1.77,1.66-.67,1.41,1.1-.25,1.77Zm-.82-1.34.91.71,1.07-.43.16-1.14-.91-.71-1.07.43Z" transform="translate(-166.11 -248.75)"/><polygon class="cls-2" points="354.27 3.74 354.45 5.2 353.27 6.08 351.92 5.51 351.74 4.05 352.92 3.17 354.27 3.74"/><path class="cls-2" d="M519.43,255.15l-1.65-.7-.22-1.77L519,251.6l1.65.7.21,1.77Zm-1.14-1.08,1.06.45.92-.69-.14-1.15-1.06-.45-.92.69Z" transform="translate(-166.11 -248.75)"/><polygon class="cls-2" points="353.84 7.42 352.93 8.58 351.47 8.38 350.92 7.01 351.83 5.85 353.29 6.06 353.84 7.42"/><path class="cls-2" d="M519.16,257.63l-1.77-.25-.67-1.66,1.1-1.41,1.77.25.67,1.66Zm-1.38-.75,1.15.16.71-.91-.44-1.07-1.14-.16-.71.91Z" transform="translate(-166.11 -248.75)"/><circle class="cls-6" cx="349.59" cy="5.06" r="2.77"/><circle class="cls-2" cx="349.58" cy="5.02" r="1.53"/></g></svg>