<svg xmlns="http://www.w3.org/2000/svg" viewBox="0 0 758.4 593.5"><defs><style>.cls-1,.cls-11,.cls-3,.cls-5,.cls-8{fill:#00925b;}.cls-2{fill:#b4282f;}.cls-11,.cls-17,.cls-18,.cls-3,.cls-5,.cls-9{stroke:#e6e4cf;}.cls-11,.cls-17,.cls-18,.cls-3,.cls-5,.cls-6,.cls-8,.cls-9{stroke-miterlimit:10;}.cls-3{stroke-width:8px;}.cls-12,.cls-14,.cls-15,.cls-16,.cls-19,.cls-22,.cls-4{fill:#e6e4cf;}.cls-5{stroke-width:2px;}.cls-18,.cls-6,.cls-9{fill:none;}.cls-6,.cls-8{stroke:#00925b;}.cls-6{stroke-linecap:round;stroke-width:6px;}.cls-17,.cls-7{fill:#b73438;}.cls-9{stroke-width:25px;}.cls-10{fill:#b73337;}.cls-12{font-size:36px;}.cls-12,.cls-14{font-family:Roboto-Black, Roboto;}.cls-13{letter-spacing:-0.03em;}.cls-14{font-size:14px;}.cls-15{font-size:21px;font-family:BNPPSans, BNPP Sans;}.cls-16{font-size:40px;font-family:BNPPSans-Bold, BNPP Sans;}.cls-16,.cls-19,.cls-22{font-weight:700;}.cls-17,.cls-18{stroke-width:3px;}.cls-19{font-size:12px;}.cls-19,.cls-22{font-family:Roboto-Bold, Roboto;}.cls-20{letter-spacing:-0.06em;}.cls-21{letter-spacing:-0.02em;}.cls-22{font-size:10px;}.cls-23{letter-spacing:-0.01em;}.cls-24{letter-spacing:0.01em;}.cls-25{letter-spacing:-0.01em;}.cls-26{letter-spacing:-0.01em;}.cls-27{letter-spacing:-0.04em;}.cls-28{letter-spacing:-0.03em;}.cls-29{letter-spacing:-0.01em;}.cls-30{letter-spacing:-0.01em;}.cls-31{letter-spacing:-0.01em;}.cls-32{letter-spacing:-0.1em;}.cls-33{letter-spacing:-0.01em;}.cls-34{letter-spacing:0.02em;}.cls-35{letter-spacing:0.01em;}</style></defs><title>PowerPoint</title><g id="Background"><path id="Background-2" data-name="Background" class="cls-1" d="M-1.93,270Q-1.93,135.72-2,1.43C-2-.55-1.23-1,2.3-1q357.2.08,714.38,0c3.53,0,4.32.45,4.32,2.43q-.13,268.58,0,537.14c0,2-.79,2.43-4.32,2.43q-357.19-.07-714.38,0c-3.53,0-4.33-.45-4.32-2.43Q-1.87,404.29-1.93,270Z" transform="translate(37.4 1)"/></g><g id="Footer"><g id="Talus"><ellipse class="cls-2" cx="135.71" cy="433.42" rx="123.6" ry="147.58"/><g id="Shoulders"><path class="cls-3" d="M-7.87,485.37a1.8,1.8,0,0,1-1.26,1.33,1.9,1.9,0,0,1-1.15.36h-.07a1.79,1.79,0,0,1-1.4.59,1.79,1.79,0,0,1-1.49-.7l-.21,8,222.1,6,.25-9.68Z" transform="translate(37.4 1)"/><g id="ShoulderL"><polygon class="cls-1" points="228.29 470.77 221.15 471.13 217.88 477.6 221.75 483.73 228.89 483.37 232.16 476.9 228.29 470.77"/><polygon class="cls-1" points="210.99 475.55 206.18 480.95 208.36 487.88 215.35 489.43 220.16 484.03 217.97 477.1 210.99 475.55"/><polygon class="cls-1" points="202.38 491.75 202.73 499.03 209.08 502.36 215.09 498.42 214.75 491.14 208.39 487.81 202.38 491.75"/><polygon class="cls-1" points="207.5 509.36 212.79 514.26 219.59 512.03 221.11 504.92 215.82 500.02 209.01 502.24 207.5 509.36"/><polygon class="cls-1" points="229.91 504.82 222.77 505.17 219.5 511.65 223.37 517.77 230.51 517.42 233.78 510.95 229.91 504.82"/><polygon class="cls-1" points="238.94 474.18 244.23 479.07 242.72 486.19 235.91 488.41 230.62 483.52 232.13 476.4 238.94 474.18"/><polygon class="cls-1" points="249.04 489.45 249.38 496.73 243.37 500.67 237.02 497.34 236.67 490.06 242.68 486.12 249.04 489.45"/><polygon class="cls-1" points="245.62 507.48 240.81 512.88 233.83 511.33 231.65 504.4 236.45 499 243.44 500.55 245.62 507.48"/><ellipse class="cls-1" cx="225.88" cy="494.27" rx="19.52" ry="19.88"/></g><g id="ShoulderR"><polygon class="cls-1" points="50.62 465.71 43.48 466.06 40.21 472.54 44.08 478.66 51.22 478.31 54.49 471.83 50.62 465.71"/><polygon class="cls-1" points="33.31 470.49 28.51 475.88 30.69 482.82 37.67 484.36 42.48 478.97 40.3 472.03 33.31 470.49"/><polygon class="cls-1" points="24.71 486.69 25.05 493.96 31.41 497.29 37.42 493.35 37.08 486.08 30.72 482.75 24.71 486.69"/><polygon class="cls-1" points="29.82 504.3 35.11 509.19 41.92 506.97 43.43 499.85 38.14 494.96 31.33 497.18 29.82 504.3"/><polygon class="cls-1" points="52.23 499.76 45.09 500.11 41.82 506.58 45.69 512.71 52.83 512.36 56.1 505.88 52.23 499.76"/><polygon class="cls-1" points="61.27 469.11 66.56 474.01 65.04 481.12 58.24 483.35 52.94 478.45 54.46 471.33 61.27 469.11"/><polygon class="cls-1" points="71.36 484.39 71.71 491.66 65.7 495.6 59.34 492.27 59 485 65.01 481.06 71.36 484.39"/><polygon class="cls-1" points="67.94 502.42 63.14 507.81 56.15 506.27 53.97 499.33 58.78 493.94 65.76 495.48 67.94 502.42"/><ellipse class="cls-1" cx="48.21" cy="489.21" rx="19.52" ry="19.88"/></g><polygon class="cls-1" points="208.74 486.74 205.5 487.13 206.18 480.95 208.74 481.23 208.74 486.74"/><polygon class="cls-1" points="206.88 498.8 201.7 497.93 202.38 491.75 206.88 494.04 206.88 498.8"/><polygon class="cls-1" points="241.59 484.74 243.55 485.25 244.23 479.07 241.59 479.07 241.59 484.74"/><polygon class="cls-1" points="33.89 481.08 27.04 481.28 28.51 475.88 33.89 475.88 33.89 481.08"/><polygon class="cls-1" points="66.84 496.89 70.24 497.06 71.71 491.66 66.84 491.66 66.84 496.89"/><g id="ShoulderL-2" data-name="ShoulderL"><polygon class="cls-4" points="227.61 476.95 220.47 477.3 217.2 483.78 221.07 489.9 228.21 489.55 231.48 483.08 227.61 476.95"/><polygon class="cls-4" points="210.3 481.73 205.5 487.13 207.68 494.06 214.67 495.6 219.47 490.21 217.29 483.27 210.3 481.73"/><polygon class="cls-4" points="201.7 497.93 202.04 505.2 208.4 508.54 214.41 504.6 214.06 497.32 207.71 493.99 201.7 497.93"/><polygon class="cls-4" points="206.81 515.54 212.1 520.44 218.91 518.21 220.43 511.1 215.13 506.2 208.32 508.42 206.81 515.54"/><polygon class="cls-4" points="229.22 511 222.08 511.35 218.81 517.83 222.68 523.95 229.82 523.6 233.09 517.13 229.22 511"/><polygon class="cls-4" points="238.26 480.35 243.55 485.25 242.03 492.37 235.23 494.59 229.93 489.69 231.45 482.58 238.26 480.35"/><polygon class="cls-4" points="248.35 495.63 248.7 502.91 242.69 506.85 236.33 503.51 235.99 496.24 242 492.3 248.35 495.63"/><polygon class="cls-4" points="244.94 513.66 240.13 519.05 233.14 517.51 230.96 510.58 235.77 505.18 242.75 506.73 244.94 513.66"/><ellipse class="cls-4" cx="225.2" cy="500.45" rx="19.52" ry="19.88"/></g><g id="ShoulderR-2" data-name="ShoulderR"><polygon class="cls-4" points="49.15 471.1 42.01 471.46 38.74 477.93 42.61 484.06 49.75 483.7 53.02 477.23 49.15 471.1"/><polygon class="cls-4" points="31.84 475.88 27.04 481.28 29.22 488.21 36.21 489.76 41.01 484.36 38.83 477.43 31.84 475.88"/><polygon class="cls-4" points="23.24 492.08 23.59 499.36 29.94 502.69 35.95 498.75 35.61 491.47 29.25 488.14 23.24 492.08"/><polygon class="cls-4" points="28.35 509.69 33.65 514.59 40.45 512.37 41.97 505.25 36.67 500.35 29.87 502.57 28.35 509.69"/><polygon class="cls-4" points="50.77 505.15 43.63 505.5 40.35 511.98 44.22 518.11 51.36 517.75 54.63 511.28 50.77 505.15"/><polygon class="cls-4" points="59.8 474.51 65.09 479.4 63.58 486.52 56.77 488.74 51.48 483.85 52.99 476.73 59.8 474.51"/><polygon class="cls-4" points="69.9 489.78 70.24 497.06 64.23 501 57.87 497.67 57.53 490.39 63.54 486.45 69.9 489.78"/><polygon class="cls-4" points="66.48 507.81 61.67 513.21 54.69 511.66 52.5 504.73 57.31 499.33 64.3 500.88 66.48 507.81"/><ellipse class="cls-4" cx="46.74" cy="494.6" rx="19.52" ry="19.88"/></g></g><circle class="cls-1" cx="226.33" cy="501.98" r="15.67"/><circle class="cls-1" cx="43.7" cy="496.8" r="15.67"/><rect class="cls-4" x="6.99" y="496.29" width="182.1" height="9.68" transform="translate(50.87 -1.45) rotate(1.54)"/><circle class="cls-4" cx="226.33" cy="501.98" r="7.25"/><circle class="cls-4" cx="43.7" cy="496.8" r="7.74"/><polygon class="cls-1" points="188.91 571.82 60.52 553.36 30.77 504.24 241.33 509.88 188.91 571.82"/><polygon class="cls-4" points="194.72 533.57 70.3 531.65 69.16 517.99 196.54 521.41 194.72 533.57"/><polygon class="cls-4" points="186.4 521.14 77.69 518.22 82.03 504.87 186.29 507.67 186.4 521.14"/><rect class="cls-1" x="34.84" y="520.7" width="3.44" height="0.74" transform="translate(51.38 0.21) rotate(1.54)"/><rect class="cls-1" x="151.32" y="524.64" width="3.44" height="0.74" transform="translate(51.53 -2.92) rotate(1.54)"/><rect class="cls-1" x="88.87" y="501.25" width="91.35" height="31.78"/><polygon class="cls-1" points="88.87 533.03 83.8 533.03 84.18 518.59 88.87 502.93 88.87 533.03"/><rect class="cls-4" x="60.48" y="518.16" width="0.78" height="11.75" transform="translate(51.5 -0.45) rotate(1.54)"/><rect class="cls-4" x="128.14" y="519.98" width="0.78" height="11.75" transform="translate(51.57 -2.26) rotate(1.54)"/><rect class="cls-4" x="124.58" y="519.89" width="0.78" height="11.75" transform="translate(51.57 -2.17) rotate(1.54)"/><rect class="cls-4" x="121.02" y="519.79" width="0.78" height="11.75" transform="translate(51.57 -2.07) rotate(1.54)"/><rect class="cls-4" x="117.46" y="519.7" width="0.78" height="11.75" transform="translate(51.56 -1.98) rotate(1.54)"/><rect class="cls-4" x="113.9" y="519.6" width="0.78" height="11.75" transform="translate(51.56 -1.88) rotate(1.54)"/><rect class="cls-4" x="110.34" y="519.51" width="0.78" height="11.75" transform="translate(51.56 -1.79) rotate(1.54)"/><rect class="cls-4" x="106.77" y="519.41" width="0.78" height="11.75" transform="translate(51.55 -1.69) rotate(1.54)"/><rect class="cls-4" x="103.21" y="519.31" width="0.78" height="11.75" transform="translate(51.55 -1.59) rotate(1.54)"/><rect class="cls-4" x="99.65" y="519.22" width="0.78" height="11.75" transform="translate(51.54 -1.5) rotate(1.54)"/><rect class="cls-4" x="96.09" y="519.12" width="0.78" height="11.75" transform="translate(51.54 -1.4) rotate(1.54)"/><rect class="cls-4" x="92.53" y="519.03" width="0.78" height="11.75" transform="translate(51.54 -1.31) rotate(1.54)"/><rect class="cls-4" x="88.97" y="518.93" width="0.78" height="11.75" transform="translate(51.53 -1.21) rotate(1.54)"/><rect class="cls-4" x="85.41" y="518.83" width="0.78" height="11.75" transform="translate(51.53 -1.12) rotate(1.54)"/><rect class="cls-4" x="81.85" y="518.74" width="0.78" height="11.75" transform="translate(51.52 -1.02) rotate(1.54)"/><rect class="cls-4" x="78.28" y="518.64" width="0.78" height="11.75" transform="translate(51.52 -0.92) rotate(1.54)"/><rect class="cls-4" x="74.72" y="518.55" width="0.78" height="11.75" transform="translate(51.52 -0.83) rotate(1.54)"/><rect class="cls-4" x="71.16" y="518.45" width="0.78" height="11.75" transform="translate(51.51 -0.73) rotate(1.54)"/><rect class="cls-4" x="67.6" y="518.36" width="0.78" height="11.75" transform="translate(51.51 -0.64) rotate(1.54)"/><rect class="cls-4" x="64.04" y="518.26" width="0.78" height="11.75" transform="translate(51.51 -0.54) rotate(1.54)"/><path class="cls-4" d="M155.34,491.64c.14-.4.26-.8.37-1.2l7.41-23.95a12.9,12.9,0,0,0,1.2-5.34c0-15.37-29.28-27.84-65.41-27.84S33.5,445.78,33.5,461.15a12.09,12.09,0,0,0,.29,2.62h0l.24.75c.09.3.18.59.28.88l7.46,23.47c1.86,14,26.73,25,57.15,25,28.33,0,51.85-9.59,56.44-22.2h0Z" transform="translate(37.4 1)"/><path class="cls-1" d="M151.07,492.4a11.1,11.1,0,0,0,.34-1.12l6.84-22.35a12,12,0,0,0,1.12-5c0-14.35-27.05-26-60.41-26s-60.4,11.63-60.4,26a11.84,11.84,0,0,0,.27,2.44h0l.23.71c.07.27.16.55.25.82l6.9,21.9c1.71,13,24.68,23.35,52.77,23.35,26.16,0,47.87-8.95,52.12-20.71h0Z" transform="translate(37.4 1)"/><ellipse class="cls-4" cx="136.33" cy="484.24" rx="50.92" ry="24.92"/><ellipse class="cls-1" cx="132.26" cy="501.41" rx="4.9" ry="2.6"/><ellipse class="cls-1" cx="155.33" cy="500.05" rx="3.87" ry="2.07"/><ellipse class="cls-1" cx="172.27" cy="493.47" rx="3" ry="1.68"/><ellipse class="cls-1" cx="178.6" cy="485.46" rx="2.4" ry="1.33"/><ellipse class="cls-1" cx="109.85" cy="498.06" rx="3.87" ry="2.07"/><ellipse class="cls-1" cx="96.52" cy="490.55" rx="3" ry="1.68"/><ellipse class="cls-1" cx="93.29" cy="482.43" rx="2.4" ry="1.33"/><ellipse class="cls-5" cx="136.23" cy="484.06" rx="30.25" ry="9.9"/><ellipse class="cls-5" cx="136.25" cy="478.12" rx="30.25" ry="9.9"/><ellipse class="cls-5" cx="136.34" cy="471.92" rx="30.25" ry="9.9"/><ellipse class="cls-5" cx="136.36" cy="465.98" rx="30.25" ry="9.9"/><ellipse class="cls-5" cx="135.89" cy="459.58" rx="30.25" ry="9.9"/><ellipse class="cls-5" cx="135.91" cy="453.64" rx="30.25" ry="9.9"/><line class="cls-6" x1="133.69" y1="463.54" x2="161.22" y2="458.72"/><line class="cls-6" x1="120.07" y1="468.19" x2="162.81" y2="463.61"/><line class="cls-6" x1="124.61" y1="474.97" x2="163.29" y2="469.81"/><line class="cls-6" x1="125.69" y1="481.07" x2="162.71" y2="476.37"/><line class="cls-6" x1="121.86" y1="486.54" x2="160.32" y2="483.75"/><ellipse class="cls-1" cx="111.57" cy="461.07" rx="11.55" ry="1.98" transform="translate(-40.43 27.14) rotate(-9.93)"/><rect class="cls-1" x="86.12" y="464.8" width="40.78" height="4.35" transform="translate(-11.72 15) rotate(-6.11)"/><rect class="cls-1" x="89.92" y="471.6" width="36.18" height="3.89" transform="translate(-12.41 15.19) rotate(-6.11)"/><rect class="cls-1" x="91.39" y="478.29" width="33.63" height="3.73" transform="translate(-22.21 18.45) rotate(-7.24)"/><rect class="cls-1" x="86.59" y="484.18" width="37.09" height="3.45" transform="translate(20.02 5.09) rotate(-2.06)"/><polygon class="cls-4" points="159.86 320.88 100.8 314.48 82.93 352.11 52.95 391.29 65.6 409.99 85.93 409.99 92.14 409.8 180.64 412.19 207.12 412.7 220.44 400.06 193.79 360.48 159.86 320.88"/><polygon class="cls-7" points="152.66 315.76 146.36 316.53 143.88 322.37 147.7 327.44 154 326.67 156.48 320.83 152.66 315.76"/><polygon class="cls-7" points="137.64 321.04 133.73 326.04 136.11 331.93 142.39 332.81 146.3 327.81 143.93 321.93 137.64 321.04"/><polygon class="cls-7" points="131.06 335.68 131.83 341.98 137.67 344.47 142.74 340.65 141.97 334.35 136.13 331.86 131.06 335.68"/><polygon class="cls-7" points="136.71 350.66 141.71 354.57 147.6 352.19 148.49 345.91 143.48 342 137.6 344.37 136.71 350.66"/><polygon class="cls-7" points="156.27 345.25 149.97 346.02 147.49 351.86 151.31 356.94 157.61 356.16 160.09 350.32 156.27 345.25"/><polygon class="cls-7" points="162.31 318.02 167.31 321.93 166.43 328.22 160.54 330.59 155.54 326.68 156.43 320.4 162.31 318.02"/><polygon class="cls-7" points="172.23 330.64 173 336.94 167.93 340.76 162.09 338.28 161.32 331.98 166.39 328.16 172.23 330.64"/><polygon class="cls-7" points="170.36 346.54 166.45 351.54 160.16 350.65 157.78 344.77 161.69 339.77 167.98 340.65 170.36 346.54"/><circle class="cls-7" cx="152.03" cy="336.34" r="17.33"/><polygon class="cls-8" points="151.1 314.19 144.79 314.96 142.31 320.81 146.13 325.88 152.43 325.11 154.91 319.26 151.1 314.19"/><polygon class="cls-8" points="136.07 319.47 132.16 324.48 134.54 330.36 140.83 331.25 144.74 326.25 142.36 320.36 136.07 319.47"/><polygon class="cls-8" points="129.49 334.12 130.26 340.42 136.1 342.9 141.18 339.08 140.41 332.78 134.56 330.3 129.49 334.12"/><polygon class="cls-8" points="135.14 349.09 140.15 353 146.03 350.63 146.92 344.34 141.92 340.43 136.03 342.8 135.14 349.09"/><polygon class="cls-8" points="154.71 343.68 148.4 344.45 145.92 350.3 149.74 355.37 156.04 354.6 158.52 348.75 154.71 343.68"/><polygon class="cls-8" points="160.75 316.45 165.75 320.37 164.86 326.65 158.97 329.03 153.97 325.12 154.86 318.83 160.75 316.45"/><polygon class="cls-8" points="170.67 329.08 171.44 335.38 166.37 339.2 160.52 336.71 159.75 330.41 164.82 326.59 170.67 329.08"/><polygon class="cls-8" points="168.79 344.97 164.88 349.97 158.59 349.09 156.22 343.2 160.13 338.2 166.41 339.09 168.79 344.97"/><circle class="cls-1" cx="150.47" cy="334.77" r="17.33"/><circle class="cls-7" cx="150.08" cy="334.77" r="12.78"/><circle class="cls-4" cx="151.25" cy="335.95" r="12.58"/><g id="Stars"><path class="cls-1" d="M120.21,330.56c-1.34.82-1.75.89-3.21,1.8a15.92,15.92,0,0,0,1.67-2.17,30.71,30.71,0,0,0-4.7.56,18,18,0,0,1,4.9-1.61,16.7,16.7,0,0,0-3.28-2,13.57,13.57,0,0,1,5.33,1.6,8.09,8.09,0,0,1,1.72-.23,2.33,2.33,0,0,1-1,1.14,13.46,13.46,0,0,1-.75,4.94c0-1.43-.13-3.23-.65-4m-9.84,12.24a5.28,5.28,0,0,1-1.94-1.24,6.09,6.09,0,0,1,.74-1.46c-.63.09-1.09.17-1.64.27a8.78,8.78,0,0,1-.86-2.65,9.85,9.85,0,0,0,0,2.87,6.88,6.88,0,0,0-1.26.46,17,17,0,0,0,1.68.95,5.9,5.9,0,0,0,1.27,1.87,3.61,3.61,0,0,1-.11-1.43,7.66,7.66,0,0,0,2.13.36m2-11.35a4.47,4.47,0,0,0-.59,1.21,9.73,9.73,0,0,1,3.59,1.34,11.26,11.26,0,0,0-3.31-.22,2.44,2.44,0,0,0-.78.15,14.69,14.69,0,0,0-.75,2.9c-.32-.79-.77-2.38-.77-2.38a23.75,23.75,0,0,0-2.9,2.46,12.05,12.05,0,0,1,2.23-3.36,3.7,3.7,0,0,0-2.14-.65,8.29,8.29,0,0,1,2.13-.39,12.11,12.11,0,0,1,1.23,0,6.3,6.3,0,0,1,2.06-1.08m2.11,9.92c-.35.49-.65.88-1,1.33a6,6,0,0,1-1.86.27,4.31,4.31,0,0,0,1.21.44,8.66,8.66,0,0,1-1.18.94,8.6,8.6,0,0,0,2.25-.88,3.62,3.62,0,0,0,.91-.06,4,4,0,0,1-.15-.64,15.38,15.38,0,0,0,1.6-1.51,10,10,0,0,1-1.68,1c0-.31,0-.57-.06-.91" transform="translate(37.4 1)"/></g><g id="Head"><polygon class="cls-1" points="153.01 378.35 145.25 454.27 173.38 447.94 179.58 404.07 153.01 378.35"/><polygon class="cls-1" points="91.5 373.6 152.18 386.38 153.01 378.35 93.09 369.8 91.5 373.6"/><polygon class="cls-1" points="85.96 409.99 92.14 409.96 93.21 390.1 93.47 374.01 91.5 373.6 85.93 393.62 85.96 409.99"/></g><polygon id="Face" class="cls-4" points="179.58 404.07 173.38 447.94 145.25 454.27 152.18 386.38 93.47 374.01 92.14 409.96 94.24 451.74 144.98 456.39 173.8 448.54 181.92 405.39 179.58 404.07"/><path id="Eye-L" class="cls-1" d="M73.76,394.83v-2.89l-17-.32-.12,3.21h1.93q.45,9.39.91,18.8a53.45,53.45,0,0,1,7.24.05,52.75,52.75,0,0,1,7.17,1Z" transform="translate(37.4 1)"/><rect id="Retina-L" class="cls-4" x="100.16" y="395.53" width="3.77" height="7.49"/><path id="Eye-R" class="cls-1" d="M96.28,395.41l-.17-2.71-1-.2L78.87,392q0,11.46,0,22.93a42.61,42.61,0,0,1,13.93,1.3l2-20.77Z" transform="translate(37.4 1)"/><rect id="Retina-R" class="cls-4" x="119.81" y="396.32" width="3.77" height="7.49"/><g id="Mouth"><path class="cls-1" d="M89.29,432.21a93.85,93.85,0,0,0-23.45-.61c.07.68.14,1.36.2,2a92.17,92.17,0,0,1,22.94.6C89.08,433.57,89.18,432.89,89.29,432.21Z" transform="translate(37.4 1)"/></g><path id="Ear-Outter" class="cls-4" d="M127.59,412.77h-2.5c-2.37.05-4.29,3.19-4.29,7.07s1.94,7.07,4.34,7.07h2.35c2.4,0,4.34-3.17,4.34-7.07S129.94,412.86,127.59,412.77Zm-1.27.26h0Zm0,13.61h0Z" transform="translate(37.4 1)"/><ellipse id="Ear-Inner" class="cls-1" cx="164.49" cy="420.83" rx="4.15" ry="6.87"/><ellipse id="Frame" class="cls-9" cx="136.1" cy="433.42" rx="123.6" ry="147.58"/><polygon class="cls-10" points="136.1 282.9 136.78 285.16 139.04 285.14 137.21 286.52 137.92 288.77 136.1 287.37 134.29 288.77 135 286.52 133.16 285.14 135.42 285.16 136.1 282.9"/><polygon class="cls-10" points="166.61 291.8 164.9 293.24 165.51 291.02 163.68 289.75 165.87 289.68 166.46 287.45 167.2 289.63 169.4 289.52 167.66 290.94 168.43 293.1 166.61 291.8"/><polygon class="cls-10" points="194.36 304.51 192.74 305.98 193.26 303.79 191.43 302.63 193.56 302.47 194.05 300.28 194.85 302.37 196.99 302.18 195.35 303.62 196.18 305.7 194.36 304.51"/><polygon class="cls-10" points="218.42 324.38 216.9 325.89 217.32 323.74 215.49 322.68 217.57 322.44 217.96 320.27 218.82 322.28 220.9 322 219.35 323.48 220.24 325.47 218.42 324.38"/><polygon class="cls-10" points="237.87 350.33 236.44 351.87 236.77 349.75 234.93 348.79 236.95 348.46 237.25 346.34 238.17 348.25 240.19 347.89 238.74 349.41 239.69 351.31 237.87 350.33"/><polygon class="cls-10" points="251.77 381.23 250.44 382.8 250.67 380.71 248.84 379.87 250.8 379.45 250.99 377.36 251.98 379.19 253.93 378.74 252.58 380.29 253.59 382.1 251.77 381.23"/><polygon class="cls-10" points="259.21 415.98 257.97 417.58 258.1 415.53 256.27 414.79 258.17 414.29 258.27 412.23 259.32 413.97 261.21 413.44 259.96 415.02 261.03 416.75 259.21 415.98"/><polygon class="cls-10" points="259.28 452.93 258.15 454.57 258.18 452.54 256.35 451.91 258.19 451.32 258.19 449.3 259.3 450.95 261.13 450.33 259.98 451.95 261.1 453.59 259.28 452.93"/><polygon class="cls-10" points="251.94 487.68 250.9 489.35 250.84 487.36 249.01 486.84 250.79 486.16 250.7 484.17 251.86 485.74 253.63 485.03 252.57 486.68 253.76 488.23 251.94 487.68"/><polygon class="cls-10" points="238.11 518.59 237.17 520.28 237.01 518.33 235.18 517.91 236.91 517.14 236.72 515.19 237.94 516.67 239.65 515.88 238.69 517.56 239.94 519.03 238.11 518.59"/><polygon class="cls-10" points="218.75 544.53 217.9 546.26 217.64 544.33 215.81 544.03 217.48 543.17 217.19 541.25 218.48 542.65 220.13 541.77 219.26 543.49 220.57 544.86 218.75 544.53"/><polygon class="cls-10" points="194.76 564.41 194.01 566.17 193.66 564.28 191.83 564.08 193.44 563.14 193.05 561.25 194.4 562.56 195.99 561.59 195.22 563.35 196.59 564.64 194.76 564.41"/><polygon class="cls-10" points="167.09 577.12 166.44 578.91 165.99 577.05 164.16 576.96 165.7 575.93 165.22 574.07 166.63 575.3 168.16 574.25 167.49 576.03 168.91 577.24 167.09 577.12"/><polygon class="cls-10" points="136.65 581.55 136.1 583.38 135.55 581.55 133.73 581.56 135.21 580.45 134.63 578.63 136.1 579.76 137.57 578.63 136.99 580.45 138.48 581.56 136.65 581.55"/><polygon class="cls-10" points="106.22 577.05 105.77 578.91 105.12 577.12 103.29 577.24 104.72 576.03 104.04 574.25 105.57 575.3 106.98 574.07 106.5 575.93 108.05 576.96 106.22 577.05"/><polygon class="cls-10" points="78.55 564.28 78.19 566.17 77.44 564.41 75.62 564.64 76.99 563.35 76.22 561.59 77.81 562.56 79.15 561.25 78.77 563.14 80.37 564.08 78.55 564.28"/><polygon class="cls-10" points="54.56 544.33 54.3 546.26 53.46 544.53 51.64 544.86 52.94 543.49 52.08 541.77 53.73 542.65 55.01 541.25 54.73 543.17 56.39 544.03 54.56 544.33"/><polygon class="cls-10" points="35.19 518.33 35.03 520.28 34.09 518.59 32.27 519.03 33.52 517.56 32.55 515.88 34.26 516.67 35.49 515.19 35.3 517.14 37.02 517.91 35.19 518.33"/><polygon class="cls-10" points="21.37 487.36 21.3 489.35 20.27 487.68 18.44 488.23 19.63 486.68 18.57 485.03 20.34 485.74 21.51 484.17 21.41 486.16 23.2 486.84 21.37 487.36"/><polygon class="cls-10" points="14.02 452.54 14.06 454.57 12.92 452.93 11.1 453.59 12.23 451.95 11.07 450.33 12.9 450.95 14.01 449.3 14.01 451.32 15.85 451.91 14.02 452.54"/><polygon class="cls-10" points="14.1 415.53 14.23 417.58 13 415.98 11.18 416.75 12.25 415.02 10.99 413.44 12.89 413.97 13.93 412.23 14.03 414.29 15.93 414.79 14.1 415.53"/><polygon class="cls-10" points="21.54 380.71 21.76 382.8 20.43 381.23 18.61 382.1 19.62 380.29 18.27 378.74 20.23 379.19 21.21 377.36 21.41 379.45 23.37 379.87 21.54 380.71"/><polygon class="cls-10" points="35.44 349.75 35.76 351.87 34.34 350.33 32.52 351.31 33.47 349.41 32.02 347.89 34.03 348.25 34.96 346.34 35.25 348.46 37.27 348.79 35.44 349.75"/><polygon class="cls-10" points="54.88 323.74 55.3 325.89 53.78 324.38 51.96 325.47 52.85 323.48 51.31 322 53.38 322.28 54.25 320.27 54.64 322.44 56.72 322.68 54.88 323.74"/><polygon class="cls-10" points="78.94 303.79 79.46 305.98 77.84 304.51 76.03 305.7 76.86 303.62 75.22 302.18 77.35 302.37 78.15 300.28 78.64 302.47 80.78 302.63 78.94 303.79"/><polygon class="cls-10" points="106.69 291.02 107.31 293.24 105.59 291.8 103.78 293.1 104.55 290.94 102.81 289.52 105 289.63 105.75 287.45 106.33 289.68 108.53 289.75 106.69 291.02"/><polygon class="cls-10" points="136.1 282.9 136.78 285.16 139.04 285.14 137.21 286.52 137.92 288.77 136.1 287.37 134.29 288.77 135 286.52 133.16 285.14 135.42 285.16 136.1 282.9"/><rect class="cls-4" x="106.88" y="566.53" width="57.81" height="6.53"/><rect class="cls-4" x="110.44" y="573.06" width="50.67" height="9.84"/></g><g id="BoTW"><g id="BoTW-2" data-name="BoTW"><path class="cls-11" d="M299.61,515.82h-25v-25h25Z" transform="translate(37.4 1)"/><path class="cls-4" d="M294.11,497.4c-1.55.9-2,1-3.7,2a16.43,16.43,0,0,0,1.92-2.4,37.62,37.62,0,0,0-5.39.63,21,21,0,0,1,5.62-1.77,19.19,19.19,0,0,0-3.76-2.25,16.05,16.05,0,0,1,6.11,1.77,10.53,10.53,0,0,1,2-.25,2.64,2.64,0,0,1-1.18,1.27c.26.68-.35,4.45-.86,5.45,0-1.58-.15-3.57-.74-4.43m-11.3,13.51a6.07,6.07,0,0,1-2.23-1.37,6.91,6.91,0,0,1,.84-1.61c-.72.1-1.25.19-1.87.3a9.73,9.73,0,0,1-1-2.92,10.45,10.45,0,0,0,0,3.16,8.78,8.78,0,0,0-1.45.51,17.71,17.71,0,0,0,1.93,1,6.43,6.43,0,0,0,1.46,2.07,3.67,3.67,0,0,1-.13-1.58,9.17,9.17,0,0,0,2.45.39m2.31-12.53a5.19,5.19,0,0,0-.69,1.34,11.38,11.38,0,0,1,4.12,1.48,13.32,13.32,0,0,0-3.79-.24,2.8,2.8,0,0,0-.9.16,15.65,15.65,0,0,0-.86,3.21c-.36-.88-.89-2.64-.89-2.64a26.59,26.59,0,0,0-3.32,2.72,13.22,13.22,0,0,1,2.56-3.71,4.37,4.37,0,0,0-2.46-.72,9.62,9.62,0,0,1,2.45-.43,13.39,13.39,0,0,1,1.41,0,7,7,0,0,1,2.37-1.2m2.42,10.95a17.22,17.22,0,0,1-1.2,1.48,7.49,7.49,0,0,1-2.13.29,5.22,5.22,0,0,0,1.39.48,9.08,9.08,0,0,1-1.35,1,9.52,9.52,0,0,0,2.57-1,4.79,4.79,0,0,0,1.05-.06,4.56,4.56,0,0,1-.18-.71,16.5,16.5,0,0,0,1.84-1.66,12.39,12.39,0,0,1-1.92,1.12c0-.34-.05-.63-.07-1" transform="translate(37.4 1)"/><text class="cls-12" transform="translate(339.79 516.66) rotate(0.1)">BANK</text><text class="cls-12" transform="translate(459.39 516.66) rotate(0.1)">WES<tspan class="cls-13" x="73.97" y="0">T</tspan></text><text class="cls-14" transform="translate(442.36 501.29) rotate(0.1)">of<tspan x="-3.7" y="15">the</tspan></text></g><path class="cls-4" d="M536,498.56c-1,0-2.17.75-3.58,2.24V516h-4.27V495h4.27v2a6,6,0,0,1,4.9-2.48c2.07,0,3.2.78,3.4,2.34a29.88,29.88,0,0,1,.3,3.44l-3.67.45a5.38,5.38,0,0,0-.24-1.56Q536.93,498.56,536,498.56Z" transform="translate(37.4 1)"/><path class="cls-4" d="M560.1,505.59q0,10.91-8.71,10.91-6.55,0-7.66-4a26.73,26.73,0,0,1-1.11-7q0-5.76,2.28-8.39c1.51-1.76,3.72-2.63,6.62-2.63s5.06.87,6.47,2.63S560.1,501.69,560.1,505.59Zm-8.74-7.49a3.53,3.53,0,0,0-3.23,1.61q-1,1.62-1,5.78c0,2.78.34,4.7,1,5.78a4,4,0,0,0,6.46,0c.67-1.08,1-3,1-5.78s-.34-4.7-1-5.78A3.53,3.53,0,0,0,551.36,498.1Z" transform="translate(37.4 1)"/><path class="cls-4" d="M569,496.32a11.26,11.26,0,0,1,5.88-1.83,6,6,0,0,1,4.84,2.42q2,2.41,2,8.34t-2.41,8.59a8.15,8.15,0,0,1-6.32,2.66,14,14,0,0,1-4.28-.73,13.3,13.3,0,0,1-3.94-2V487.14l4.26-.79Zm8.2,8.93q0-6.92-4-6.92a5.94,5.94,0,0,0-2.24.39,12.92,12.92,0,0,0-2,1.06v11.93a6.71,6.71,0,0,0,3.71,1.18q3.14,0,3.81-2.74A20.92,20.92,0,0,0,577.17,505.25Z" transform="translate(37.4 1)"/><path class="cls-4" d="M602.4,505.59q0,10.91-8.71,10.91-6.56,0-7.66-4a26.73,26.73,0,0,1-1.11-7q0-5.76,2.28-8.39c1.51-1.76,3.72-2.63,6.62-2.63s5.06.87,6.47,2.63S602.4,501.69,602.4,505.59Zm-8.74-7.49a3.53,3.53,0,0,0-3.23,1.61q-1,1.62-1,5.78c0,2.78.34,4.7,1,5.78a4,4,0,0,0,6.46,0c.67-1.08,1-3,1-5.78s-.34-4.7-1-5.78A3.53,3.53,0,0,0,593.66,498.1Z" transform="translate(37.4 1)"/><path class="cls-4" d="M612.19,516.5a5,5,0,0,1-3.33-1.16,4.6,4.6,0,0,1-1.35-3.69v-13h-2.84V495h3v-3.53l4.13-1.18V495H617l-.56,3.61h-4.69v11.77c0,1.44.6,2.15,1.81,2.15a7.89,7.89,0,0,0,3.59-1.18l1,3.15A10.53,10.53,0,0,1,612.19,516.5Z" transform="translate(37.4 1)"/><path class="cls-4" d="M625.6,487.53v4.66h-4.26v-4.66Zm0,7.48v21h-4.26V495Z" transform="translate(37.4 1)"/><path class="cls-4" d="M640.7,498.72a4.62,4.62,0,0,0-2.1-.62,3.87,3.87,0,0,0-1.64.33,2.84,2.84,0,0,0-1.19,1.17,6.86,6.86,0,0,0-.69,2.27,34,34,0,0,0-.22,4.64,8,8,0,0,0,1.19,4.78,4,4,0,0,0,3.4,1.6,8.71,8.71,0,0,0,3.56-.62,18.77,18.77,0,0,0,2.36-1.27l.91,3.2a18,18,0,0,1-3.2,1.6,11.31,11.31,0,0,1-4.19.7,7.75,7.75,0,0,1-6.32-2.67q-2.21-2.67-2.21-8.28c0-3.74.68-6.51,2-8.33s3.49-2.73,6.41-2.73c2.52,0,4.39.65,5.59,1.95a7.79,7.79,0,0,1,1.88,5.26c-1.32.09-2.74.22-4.27.38C641.92,500.26,641.49,499.14,640.7,498.72Z" transform="translate(37.4 1)"/><path class="cls-4" d="M656.09,512.89c2,0,3-.76,3-2.29a1.79,1.79,0,0,0-.72-1.42,9.6,9.6,0,0,0-1.81-1.13q-1.1-.56-4.17-2a5.35,5.35,0,0,1-3.08-5.31,5.74,5.74,0,0,1,1.92-4.55,7.75,7.75,0,0,1,5.3-1.68,6.77,6.77,0,0,1,5.09,1.75,6.15,6.15,0,0,1,1.7,4.46l-3.59.63a4.28,4.28,0,0,0-.83-2.31,2.59,2.59,0,0,0-2.19-.92c-2.09,0-3.13.76-3.13,2.29a2.24,2.24,0,0,0,.73,1.68,7.87,7.87,0,0,0,1.82,1.26c.72.38,1.5.76,2.34,1.16a21.65,21.65,0,0,1,3.07,1.89,4.65,4.65,0,0,1,1.82,4.06,5.56,5.56,0,0,1-1.89,4.41,7.77,7.77,0,0,1-5.28,1.65,11.26,11.26,0,0,1-4.43-.81,9.35,9.35,0,0,1-3-2l1.41-3.16a8.41,8.41,0,0,0,2.68,1.7A8.62,8.62,0,0,0,656.09,512.89Z" transform="translate(37.4 1)"/><polygon class="cls-4" points="661.25 485.04 659.79 485.22 659.21 486.57 660.1 487.75 661.56 487.57 662.13 486.22 661.25 485.04"/><path class="cls-4" d="M622.58,487l-1.08-1.43.7-1.64,1.77-.22,1.08,1.43-.7,1.64Zm-.45-1.5.69.92,1.15-.14.45-1.06-.69-.93-1.15.14Z" transform="translate(37.4 1)"/><polygon class="cls-4" points="657.77 486.26 656.86 487.42 657.41 488.79 658.87 488.99 659.77 487.83 659.22 486.47 657.77 486.26"/><path class="cls-4" d="M621.59,488.29l-1.77-.25-.67-1.66,1.1-1.41,1.77.25.67,1.66Zm-1.38-.75,1.14.16.71-.91-.43-1.07-1.14-.16-.71.91Z" transform="translate(37.4 1)"/><polygon class="cls-4" points="656.24 489.66 656.42 491.12 657.77 491.69 658.95 490.81 658.77 489.35 657.42 488.77 656.24 489.66"/><path class="cls-4" d="M620.42,491l-1.65-.7-.22-1.78,1.43-1.07,1.65.7.21,1.77Zm-1.14-1.08,1.06.45.92-.7-.14-1.14-1.06-.45-.92.69Z" transform="translate(37.4 1)"/><polygon class="cls-4" points="657.55 493.13 658.71 494.03 660.07 493.48 660.28 492.03 659.12 491.12 657.76 491.67 657.55 493.13"/><path class="cls-4" d="M621.27,493.35l-1.41-1.1.25-1.77,1.66-.67,1.41,1.1-.25,1.77Zm-.82-1.34.91.71,1.07-.43.16-1.15-.91-.71-1.07.44Z" transform="translate(37.4 1)"/><polygon class="cls-4" points="662.08 491.87 660.62 492.05 660.05 493.41 660.93 494.58 662.39 494.4 662.97 493.05 662.08 491.87"/><path class="cls-4" d="M623.41,493.87l-1.07-1.43.7-1.64,1.77-.22,1.08,1.43-.7,1.65Zm-.44-1.5.69.92,1.15-.14.45-1.06-.7-.92-1.14.14Z" transform="translate(37.4 1)"/><polygon class="cls-4" points="663.48 485.57 664.64 486.47 664.43 487.93 663.07 488.48 661.91 487.57 662.12 486.12 663.48 485.57"/><path class="cls-4" d="M625.63,487.79l-1.41-1.1.25-1.77,1.66-.67,1.41,1.1-.25,1.77Zm-.82-1.34.91.71,1.07-.43.16-1.14-.91-.71-1.07.43Z" transform="translate(37.4 1)"/><polygon class="cls-4" points="665.78 488.49 665.96 489.95 664.78 490.83 663.43 490.26 663.25 488.8 664.43 487.92 665.78 488.49"/><path class="cls-4" d="M627.43,490.15l-1.65-.7-.22-1.77L627,486.6l1.65.7.21,1.77Zm-1.14-1.08,1.06.45.92-.69-.14-1.15-1.06-.45-.92.69Z" transform="translate(37.4 1)"/><polygon class="cls-4" points="665.35 492.17 664.44 493.33 662.98 493.13 662.43 491.76 663.34 490.6 664.79 490.81 665.35 492.17"/><path class="cls-4" d="M627.16,492.63l-1.77-.25-.67-1.66,1.1-1.41,1.77.25.67,1.66Zm-1.38-.75,1.15.16.71-.91-.44-1.07-1.14-.16-.71.91Z" transform="translate(37.4 1)"/><circle class="cls-1" cx="661.1" cy="489.81" r="2.77"/><circle class="cls-4" cx="661.08" cy="489.77" r="1.53"/></g></g><g id="Header"><g id="PFD"><text class="cls-15" transform="translate(470.86 28.33)">personal finance divison</text><text class="cls-16" transform="translate(464.38 69.33)">COLLECTIONS</text></g><ellipse class="cls-17" cx="61.9" cy="41.61" rx="12.78" ry="17.89"/><line class="cls-18" x1="63.4" y1="42" x2="720.4" y2="423"/></g><g id="Timeline"><ellipse class="cls-17" cx="720.4" cy="422.11" rx="12.78" ry="17.89"/><text class="cls-19" transform="translate(49.16 78.83)">9AM</text><text class="cls-19" transform="translate(706.33 393.83)">3 PM</text><text class="cls-19" transform="translate(81.16 42.83)">S<tspan class="cls-20" x="7.38" y="0">T</tspan><tspan x="14.1" y="0">A</tspan><tspan class="cls-21" x="22.17" y="0">R</tspan><tspan class="cls-13" x="29.54" y="0">T</tspan><tspan x="36.61" y="0" xml:space="preserve"> UP</tspan></text><text class="cls-19" transform="translate(631.16 432.83)">SHU<tspan class="cls-13" x="23.75" y="0">T</tspan><tspan x="30.83" y="0" xml:space="preserve"> DOWN</tspan></text><circle class="cls-7" cx="115.4" cy="72" r="5"/><text class="cls-22" transform="translate(129.16 75.55)">access CONSOLI<tspan class="cls-23" x="75.86" y="0">D</tspan><tspan class="cls-20" x="82.26" y="0">A</tspan><tspan x="88.4" y="0">TED ASS</tspan><tspan class="cls-24" x="128.22" y="0">E</tspan><tspan class="cls-13" x="133.95" y="0">T</tspan><tspan x="139.84" y="0" xml:space="preserve"> COLLE</tspan><tspan class="cls-25" x="172.23" y="0">C</tspan><tspan x="178.63" y="0">TIONS application</tspan></text><circle class="cls-7" cx="233.79" cy="141" r="5"/><text class="cls-22" transform="translate(247.56 144.55)">access A<tspan class="cls-26" x="40.7" y="0">D</tspan><tspan class="cls-27" x="47.09" y="0">V</tspan><tspan x="53.26" y="0">ANCED </tspan><tspan class="cls-28" x="88.21" y="0">L</tspan><tspan class="cls-23" x="93.31" y="0">O</tspan><tspan x="100.11" y="0">AN S</tspan><tspan class="cls-29" x="122.54" y="0">Y</tspan><tspan x="128.64" y="0">STEM mainf</tspan><tspan class="cls-30" x="183.71" y="0">r</tspan><tspan x="187.21" y="0">ame</tspan></text><circle class="cls-7" cx="352.29" cy="210" r="5"/><text class="cls-22" transform="translate(365.06 213.55)"><tspan class="cls-31">r</tspan><tspan x="3.55" y="0">e-accesses CONSOLI</tspan><tspan class="cls-23" x="99.24" y="0">D</tspan><tspan class="cls-20" x="105.64" y="0">A</tspan><tspan x="111.78" y="0">TED ASS</tspan><tspan class="cls-24" x="151.61" y="0">E</tspan><tspan class="cls-13" x="157.33" y="0">T</tspan><tspan x="163.22" y="0" xml:space="preserve"> COL</tspan><tspan class="cls-32" x="184.58" y="0">L</tspan><tspan x="188.99" y="0">TIONS application</tspan></text><circle class="cls-7" cx="471.34" cy="279" r="5"/><text class="cls-22" transform="translate(484.11 282.55)">populate MICROSO<tspan class="cls-24" x="86.35" y="0">F</tspan><tspan class="cls-13" x="91.93" y="0">T</tspan><tspan x="97.82" y="0" xml:space="preserve"> E</tspan><tspan class="cls-33" x="105.94" y="0">X</tspan><tspan x="112.17" y="0">CEL </tspan><tspan class="cls-31" x="132.24" y="0">r</tspan><tspan x="135.8" y="0">epo</tspan><tspan class="cls-34" x="152.49" y="0">r</tspan><tspan x="156.38" y="0">t</tspan></text><circle class="cls-7" cx="591.4" cy="348" r="5"/><text class="cls-22" transform="translate(604.16 351.55)">send E<tspan class="cls-35" x="29.9" y="0">M</tspan><tspan x="38.75" y="0">AIL MESS</tspan><tspan class="cls-23" x="82.97" y="0">A</tspan><tspan x="89.6" y="0">GE </tspan><tspan class="cls-30" x="104.53" y="0">t</tspan><tspan x="107.76" y="0">o team</tspan></text></g></svg>