<svg xmlns="http://www.w3.org/2000/svg" viewBox="0 0 656.15 778.6"><defs><style>.cls-1{fill:#b4282f;}.cls-12,.cls-15,.cls-2,.cls-3,.cls-5,.cls-8{fill:#00925b;}.cls-2,.cls-5,.cls-9{stroke:#e6e4cf;}.cls-16,.cls-2,.cls-5,.cls-6,.cls-8,.cls-9{stroke-miterlimit:10;}.cls-2{stroke-width:8px;}.cls-4{fill:#e6e4cf;}.cls-5{stroke-width:2px;}.cls-16,.cls-6,.cls-9{fill:none;}.cls-16,.cls-6,.cls-8{stroke:#00925b;}.cls-6{stroke-linecap:round;stroke-width:6px;}.cls-7{fill:#b73438;}.cls-9{stroke-width:25px;}.cls-10{fill:#b73337;}.cls-11{fill:#e9e6cc;}.cls-12{font-size:60px;font-family:Roboto-Black, Roboto;letter-spacing:0.03em;}.cls-13{letter-spacing:-0.02em;}.cls-14{letter-spacing:0.02em;}.cls-15{font-size:50px;font-family:Yesteryear-Regular, Yesteryear;}.cls-16{stroke-width:5px;}</style></defs><title>talus_banner</title><g id="Background"><ellipse class="cls-1" cx="327.08" cy="389.3" rx="315.58" ry="376.8"/></g><g id="Uniform"><g id="Shoulders"><path class="cls-2" d="M100.9,559.93a4.59,4.59,0,0,1-3.21,3.38,4.78,4.78,0,0,1-2.94.94h-.18a4.95,4.95,0,0,1-7.36-.27l-.55,20.3,567,15.21.66-24.7Z" transform="translate(-44.94 -35.43)"/><g id="ShoulderL"><polygon class="cls-3" points="563.45 484.67 545.22 485.57 536.87 502.1 546.75 517.74 564.98 516.84 573.33 500.31 563.45 484.67"/><polygon class="cls-3" points="519.27 496.88 507 510.64 512.57 528.35 530.41 532.29 542.67 518.52 537.1 500.81 519.27 496.88"/><polygon class="cls-3" points="497.3 538.23 498.18 556.8 514.41 565.31 529.75 555.25 528.87 536.67 512.65 528.17 497.3 538.23"/><polygon class="cls-3" points="510.35 583.19 523.86 595.69 541.24 590.02 545.11 571.84 531.6 559.35 514.22 565.02 510.35 583.19"/><polygon class="cls-3" points="567.58 571.6 549.35 572.5 541 589.03 550.87 604.67 569.1 603.77 577.45 587.24 567.58 571.6"/><polygon class="cls-3" points="590.63 493.36 604.15 505.86 600.28 524.03 582.9 529.7 569.39 517.21 573.25 499.03 590.63 493.36"/><polygon class="cls-3" points="616.42 532.36 617.3 550.93 601.95 561 585.73 552.49 584.84 533.92 600.19 523.85 616.42 532.36"/><polygon class="cls-3" points="607.69 578.4 595.42 592.16 577.59 588.23 572.01 570.52 584.28 556.75 602.12 560.69 607.69 578.4"/><ellipse class="cls-3" cx="557.3" cy="544.66" rx="49.83" ry="50.77"/></g><g id="ShoulderR"><polygon class="cls-3" points="109.82 471.74 91.59 472.64 83.24 489.17 93.11 504.81 111.34 503.91 119.7 487.38 109.82 471.74"/><polygon class="cls-3" points="65.64 483.94 53.37 497.71 58.94 515.42 76.78 519.36 89.04 505.59 83.47 487.88 65.64 483.94"/><polygon class="cls-3" points="43.67 525.3 44.55 543.87 60.78 552.38 76.13 542.32 75.24 523.75 59.02 515.24 43.67 525.3"/><polygon class="cls-3" points="56.72 570.26 70.23 582.76 87.61 577.09 91.48 558.91 77.97 546.41 60.59 552.09 56.72 570.26"/><polygon class="cls-3" points="113.94 558.67 95.72 559.57 87.36 576.1 97.24 591.74 115.47 590.84 123.82 574.31 113.94 558.67"/><polygon class="cls-3" points="137 480.43 150.52 492.93 146.65 511.1 129.27 516.77 115.76 504.27 119.62 486.1 137 480.43"/><polygon class="cls-3" points="162.79 519.43 163.67 538 148.32 548.07 132.09 539.56 131.21 520.99 146.56 510.92 162.79 519.43"/><polygon class="cls-3" points="154.06 565.47 141.79 579.23 123.95 575.29 118.38 557.59 130.65 543.82 148.49 547.76 154.06 565.47"/><ellipse class="cls-3" cx="103.67" cy="531.73" rx="49.83" ry="50.77"/></g><polygon class="cls-3" points="513.53 525.45 505.25 526.42 507 510.64 513.53 511.36 513.53 525.45"/><polygon class="cls-3" points="508.78 556.24 495.55 554.01 497.3 538.23 508.78 544.07 508.78 556.24"/><polygon class="cls-3" points="597.4 520.32 602.4 521.63 604.15 505.86 597.4 505.86 597.4 520.32"/><polygon class="cls-3" points="67.12 510.98 49.62 511.49 53.37 497.71 67.12 497.71 67.12 510.98"/><polygon class="cls-3" points="151.23 551.36 159.92 551.78 163.67 538 151.23 538 151.23 551.36"/><g id="ShoulderL-2" data-name="ShoulderL"><polygon class="cls-4" points="561.7 500.45 543.47 501.35 535.12 517.88 545 533.51 563.23 532.62 571.58 516.08 561.7 500.45"/><polygon class="cls-4" points="517.52 512.65 505.25 526.42 510.82 544.13 528.66 548.07 540.93 534.3 535.36 516.59 517.52 512.65"/><polygon class="cls-4" points="495.55 554.01 496.43 572.58 512.66 581.09 528.01 571.02 527.13 552.45 510.9 543.94 495.55 554.01"/><polygon class="cls-4" points="508.6 598.97 522.12 611.47 539.5 605.79 543.36 587.62 529.85 575.12 512.47 580.8 508.6 598.97"/><polygon class="cls-4" points="565.83 587.38 547.6 588.28 539.25 604.81 549.13 620.45 567.36 619.55 575.71 603.01 565.83 587.38"/><polygon class="cls-4" points="588.89 509.13 602.4 521.63 598.53 539.8 581.15 545.48 567.64 532.98 571.51 514.81 588.89 509.13"/><polygon class="cls-4" points="614.67 548.14 615.55 566.71 600.21 576.77 583.98 568.27 583.1 549.69 598.44 539.63 614.67 548.14"/><polygon class="cls-4" points="605.94 594.17 593.67 607.94 575.84 604 570.27 586.29 582.53 572.52 600.37 576.46 605.94 594.17"/><ellipse class="cls-4" cx="555.56" cy="560.44" rx="49.83" ry="50.77"/></g><g id="ShoulderR-2" data-name="ShoulderR"><polygon class="cls-4" points="106.07 485.52 87.84 486.41 79.49 502.95 89.37 518.59 107.6 517.69 115.95 501.15 106.07 485.52"/><polygon class="cls-4" points="61.89 497.72 49.62 511.49 55.19 529.2 73.03 533.14 85.3 519.37 79.73 501.66 61.89 497.72"/><polygon class="cls-4" points="39.92 539.08 40.8 557.65 57.03 566.16 72.38 556.09 71.5 537.52 55.27 529.01 39.92 539.08"/><polygon class="cls-4" points="52.97 584.04 66.49 596.54 83.87 590.86 87.73 572.69 74.22 560.19 56.84 565.87 52.97 584.04"/><polygon class="cls-4" points="110.2 572.45 91.97 573.35 83.62 589.88 93.5 605.52 111.72 604.62 120.08 588.08 110.2 572.45"/><polygon class="cls-4" points="133.26 494.2 146.77 506.7 142.9 524.87 125.52 530.55 112.01 518.05 115.88 499.88 133.26 494.2"/><polygon class="cls-4" points="159.04 533.21 159.92 551.78 144.58 561.84 128.35 553.34 127.47 534.76 142.81 524.7 159.04 533.21"/><polygon class="cls-4" points="150.31 579.24 138.04 593.01 120.21 589.07 114.64 571.36 126.9 557.59 144.74 561.53 150.31 579.24"/><ellipse class="cls-4" cx="99.93" cy="545.51" rx="49.83" ry="50.77"/></g></g><circle class="cls-3" cx="558.44" cy="564.35" r="40"/><circle class="cls-3" cx="92.16" cy="551.13" r="40"/><rect class="cls-4" x="138.85" y="587.81" width="464.93" height="24.71" transform="translate(-28.71 -45.17) rotate(1.54)"/><circle class="cls-4" cx="558.44" cy="564.35" r="18.5"/><circle class="cls-4" cx="92.16" cy="551.13" r="19.76"/><polygon class="cls-3" points="462.9 742.65 135.09 695.53 59.16 570.11 596.73 584.53 462.9 742.65"/><polygon class="cls-4" points="477.72 645 160.06 640.11 157.15 605.23 482.39 613.95 477.72 645"/><polygon class="cls-4" points="456.5 613.25 178.94 605.81 190.02 571.73 456.22 578.87 456.5 613.25"/><rect class="cls-3" x="209.95" y="650.13" width="8.79" height="1.88" transform="translate(-27.4 -40.94) rotate(1.54)"/><rect class="cls-3" x="507.35" y="660.18" width="8.79" height="1.88" transform="translate(-27.02 -48.92) rotate(1.54)"/><rect class="cls-3" x="207.48" y="562.48" width="233.24" height="81.13"/><polygon class="cls-3" points="207.48 643.62 194.55 643.62 195.51 606.74 207.48 566.77 207.48 643.62"/><rect class="cls-4" x="275.41" y="643.65" width="2" height="30" transform="translate(-27.14 -42.62) rotate(1.54)"/><rect class="cls-4" x="448.17" y="648.3" width="2" height="30" transform="translate(-26.95 -47.26) rotate(1.54)"/><rect class="cls-4" x="439.07" y="648.05" width="2" height="30" transform="translate(-26.96 -47.02) rotate(1.54)"/><rect class="cls-4" x="429.98" y="647.81" width="2" height="30" transform="translate(-26.97 -46.77) rotate(1.54)"/><rect class="cls-4" x="420.89" y="647.56" width="2" height="30" transform="translate(-26.98 -46.53) rotate(1.54)"/><rect class="cls-4" x="411.8" y="647.32" width="2" height="30" transform="translate(-26.99 -46.28) rotate(1.54)"/><rect class="cls-4" x="402.7" y="647.07" width="2" height="30" transform="translate(-27 -46.04) rotate(1.54)"/><rect class="cls-4" x="393.61" y="646.83" width="2" height="30" transform="translate(-27.01 -45.8) rotate(1.54)"/><rect class="cls-4" x="384.52" y="646.59" width="2" height="30" transform="translate(-27.02 -45.55) rotate(1.54)"/><rect class="cls-4" x="375.43" y="646.34" width="2" height="30" transform="translate(-27.03 -45.31) rotate(1.54)"/><rect class="cls-4" x="366.33" y="646.1" width="2" height="30" transform="translate(-27.04 -45.06) rotate(1.54)"/><rect class="cls-4" x="357.24" y="645.85" width="2" height="30" transform="translate(-27.05 -44.82) rotate(1.54)"/><rect class="cls-4" x="348.15" y="645.61" width="2" height="30" transform="translate(-27.06 -44.57) rotate(1.54)"/><rect class="cls-4" x="339.06" y="645.36" width="2" height="30" transform="translate(-27.07 -44.33) rotate(1.54)"/><rect class="cls-4" x="329.97" y="645.12" width="2" height="30" transform="translate(-27.08 -44.09) rotate(1.54)"/><rect class="cls-4" x="320.87" y="644.87" width="2" height="30" transform="translate(-27.09 -43.84) rotate(1.54)"/><rect class="cls-4" x="311.78" y="644.63" width="2" height="30" transform="translate(-27.1 -43.6) rotate(1.54)"/><rect class="cls-4" x="302.69" y="644.39" width="2" height="30" transform="translate(-27.11 -43.35) rotate(1.54)"/><rect class="cls-4" x="293.6" y="644.14" width="2" height="30" transform="translate(-27.12 -43.11) rotate(1.54)"/><rect class="cls-4" x="284.5" y="643.9" width="2" height="30" transform="translate(-27.13 -42.87) rotate(1.54)"/></g><g id="Collar"><path class="cls-4" d="M517.6,575.93c.36-1,.68-2,.95-3.07l18.91-61.14a32.64,32.64,0,0,0,3.07-13.62c0-39.27-74.76-71.1-167-71.1s-167,31.83-167,71.1a31.2,31.2,0,0,0,.74,6.67l-.12,0,.61,1.93c.21.75.45,1.5.71,2.24l19.06,59.92c4.74,35.67,68.24,63.91,145.9,63.91,72.32,0,132.37-24.5,144.1-56.67h0Z" transform="translate(-44.94 -35.43)"/><path class="cls-3" d="M506.71,577.88c.33-1,.63-1.91.87-2.87l17.47-57a30.78,30.78,0,0,0,2.84-12.71c0-36.63-69.05-66.33-154.22-66.33s-154.21,29.7-154.21,66.33a29,29,0,0,0,.68,6.23l-.12,0,.57,1.8c.2.7.41,1.39.66,2.09l17.59,55.91c4.38,33.28,63,59.63,134.73,59.63,66.79,0,122.24-22.86,133.08-52.88h0Z" transform="translate(-44.94 -35.43)"/><ellipse class="cls-4" cx="328.64" cy="519.04" rx="130" ry="63.62"/><ellipse class="cls-3" cx="318.26" cy="562.9" rx="12.5" ry="6.64"/><ellipse class="cls-3" cx="377.17" cy="559.42" rx="9.88" ry="5.29"/><ellipse class="cls-3" cx="420.4" cy="542.62" rx="7.66" ry="4.28"/><ellipse class="cls-3" cx="436.58" cy="522.16" rx="6.12" ry="3.39"/><ellipse class="cls-3" cx="261.06" cy="554.33" rx="9.88" ry="5.29"/><ellipse class="cls-3" cx="227.02" cy="535.16" rx="7.66" ry="4.28"/><ellipse class="cls-3" cx="218.77" cy="514.42" rx="6.12" ry="3.39"/></g><g id="Neck"><ellipse class="cls-5" cx="328.41" cy="518.59" rx="77.23" ry="25.28"/><ellipse class="cls-5" cx="328.46" cy="503.43" rx="77.23" ry="25.28"/><ellipse class="cls-5" cx="328.69" cy="487.59" rx="77.23" ry="25.28"/><ellipse class="cls-5" cx="328.74" cy="472.43" rx="77.23" ry="25.28"/><ellipse class="cls-5" cx="327.53" cy="456.09" rx="77.23" ry="25.28"/><ellipse class="cls-5" cx="327.58" cy="440.93" rx="77.23" ry="25.28"/><g id="Layer_8" data-name="Layer 8"><line class="cls-6" x1="321.92" y1="466.21" x2="392.21" y2="453.91"/><line class="cls-6" x1="287.15" y1="478.07" x2="396.26" y2="466.39"/><line class="cls-6" x1="298.73" y1="495.37" x2="397.49" y2="482.22"/><line class="cls-6" x1="301.5" y1="510.95" x2="396" y2="498.95"/><line class="cls-6" x1="291.71" y1="524.92" x2="389.9" y2="517.79"/><ellipse class="cls-3" cx="405.86" cy="497.88" rx="29.48" ry="5.06" transform="translate(-124.7 42) rotate(-9.93)"/><rect class="cls-3" x="340.88" y="507.39" width="104.12" height="11.11" transform="translate(-97.32 9.32) rotate(-6.11)"/><rect class="cls-3" x="350.58" y="524.77" width="92.37" height="9.94" transform="translate(-99.08 9.83) rotate(-6.11)"/><rect class="cls-3" x="354.33" y="541.84" width="85.85" height="9.53" transform="matrix(0.99, -0.13, 0.13, 0.99, -110.61, 18.95)"/><rect class="cls-3" x="342.07" y="556.88" width="94.7" height="8.81" transform="translate(-64.83 -21.09) rotate(-2.06)"/></g></g><g id="Hat"><polygon class="cls-4" points="388.73 101.96 237.94 85.64 192.32 181.7 115.77 281.75 148.08 329.48 199.97 329.48 215.84 328.99 441.79 335.1 509.39 336.4 543.4 304.13 475.35 203.07 388.73 101.96"/><g id="Flash"><polygon class="cls-7" points="370.36 88.89 354.27 90.86 347.93 105.78 357.68 118.73 373.77 116.76 380.11 101.84 370.36 88.89"/><polygon class="cls-7" points="332.01 102.38 322.02 115.15 328.09 130.18 344.14 132.44 354.12 119.67 348.06 104.64 332.01 102.38"/><polygon class="cls-7" points="315.19 139.76 317.16 155.85 332.08 162.19 345.03 152.44 343.06 136.35 328.14 130.01 315.19 139.76"/><polygon class="cls-7" points="329.63 178 342.4 187.98 357.43 181.92 359.69 165.87 346.92 155.88 331.89 161.95 329.63 178"/><polygon class="cls-7" points="379.57 164.19 363.48 166.16 357.14 181.08 366.89 194.03 382.98 192.06 389.32 177.14 379.57 164.19"/><polygon class="cls-7" points="394.99 94.67 407.76 104.66 405.5 120.71 390.47 126.77 377.7 116.79 379.96 100.74 394.99 94.67"/><polygon class="cls-7" points="420.32 126.9 422.29 142.99 409.34 152.74 394.43 146.4 392.46 130.31 405.4 120.56 420.32 126.9"/><polygon class="cls-7" points="415.53 167.49 405.55 180.25 389.5 177.99 383.43 162.96 393.42 150.19 409.47 152.46 415.53 167.49"/><circle class="cls-7" cx="368.75" cy="141.44" r="44.25"/><polygon class="cls-8" points="366.36 84.89 350.27 86.86 343.93 101.78 353.68 114.73 369.77 112.76 376.11 97.84 366.36 84.89"/><polygon class="cls-8" points="328.01 98.38 318.02 111.15 324.09 126.18 340.14 128.44 350.12 115.67 344.06 100.64 328.01 98.38"/><polygon class="cls-8" points="311.19 135.76 313.16 151.85 328.08 158.19 341.03 148.44 339.06 132.35 324.14 126.01 311.19 135.76"/><polygon class="cls-8" points="325.63 174 338.4 183.98 353.43 177.92 355.69 161.87 342.92 151.88 327.89 157.95 325.63 174"/><polygon class="cls-8" points="375.57 160.19 359.48 162.16 353.14 177.08 362.89 190.03 378.98 188.06 385.32 173.14 375.57 160.19"/><polygon class="cls-8" points="390.99 90.67 403.76 100.66 401.5 116.71 386.47 122.77 373.7 112.79 375.96 96.74 390.99 90.67"/><polygon class="cls-8" points="416.32 122.9 418.29 138.99 405.34 148.74 390.43 142.4 388.46 126.31 401.4 116.56 416.32 122.9"/><polygon class="cls-8" points="411.53 163.49 401.55 176.25 385.5 173.99 379.43 158.96 389.42 146.19 405.47 148.46 411.53 163.49"/><circle class="cls-3" cx="364.75" cy="137.44" r="44.25"/><circle class="cls-7" cx="363.75" cy="137.44" r="32.62"/><circle class="cls-4" cx="366.75" cy="140.44" r="32.12"/></g><g id="Stars"><path class="cls-3" d="M427.92,164.66c-3.43,2.1-4.48,2.28-8.21,4.6a39.26,39.26,0,0,0,4.27-5.55,78.81,78.81,0,0,0-12,1.45,46.14,46.14,0,0,1,12.52-4.1c-.75-1.09-6.85-4.52-8.37-5.19,4.83.4,10.73,2.27,13.6,4.09a22.24,22.24,0,0,1,4.39-.58,6,6,0,0,1-2.61,2.93c.56,1.58-.8,10.29-1.92,12.6,0-3.64-.35-8.25-1.66-10.25M402.8,195.92a13.66,13.66,0,0,1-5-3.17,16.33,16.33,0,0,1,1.88-3.73c-1.61.24-2.79.43-4.17.7a22.76,22.76,0,0,1-2.2-6.76,25.21,25.21,0,0,0,0,7.31,19.38,19.38,0,0,0-3.21,1.17,39.19,39.19,0,0,0,4.27,2.44,15.2,15.2,0,0,0,3.26,4.78,9.14,9.14,0,0,1-.3-3.65,20,20,0,0,0,5.46.91m5.13-29a12.44,12.44,0,0,0-1.52,3.1,24.72,24.72,0,0,1,9.16,3.42,29,29,0,0,0-8.44-.56,6.3,6.3,0,0,0-2,.36,37.89,37.89,0,0,0-1.92,7.43c-.8-2-2-6.09-2-6.09-2.24,1.25-7.4,6.29-7.4,6.29a30.61,30.61,0,0,1,5.71-8.59c-1-1-3.59-1.56-5.48-1.65a20.36,20.36,0,0,1,5.45-1,26.27,26.27,0,0,1,3.13.06,15.26,15.26,0,0,1,5.27-2.77m5.39,25.32a42.58,42.58,0,0,1-2.66,3.41,15.77,15.77,0,0,1-4.74.69,11.29,11.29,0,0,0,3.08,1.11,20.65,20.65,0,0,1-3,2.4,21.08,21.08,0,0,0,5.73-2.24,10.19,10.19,0,0,0,2.32-.14,14.41,14.41,0,0,1-.38-1.64,40.88,40.88,0,0,0,4.1-3.85,28.62,28.62,0,0,1-4.29,2.6c-.07-.79-.11-1.46-.15-2.34" transform="translate(-44.94 -35.43)"/></g></g><g id="Head"><g id="Head-2" data-name="Head"><polygon class="cls-3" points="371.25 248.69 351.42 442.53 423.25 426.36 439.08 314.36 371.25 248.69"/><polygon class="cls-3" points="214.19 236.57 369.13 269.19 371.25 248.69 218.25 226.88 214.19 236.57"/><polygon class="cls-3" points="200.06 329.48 215.84 329.41 218.56 278.69 219.22 237.63 214.19 236.57 199.97 287.69 200.06 329.48"/></g><polygon id="Face" class="cls-4" points="439.08 314.36 423.25 426.36 351.42 442.53 369.13 269.19 219.22 237.63 215.84 329.41 221.19 436.07 350.75 447.94 424.31 427.9 445.06 317.74 439.08 314.36"/><path id="Eye-L" class="cls-3" d="M309.31,328.75v-7.38l-43.5-.81-.31,8.19h4.94l2.31,48a142.14,142.14,0,0,1,18.5.12,139.69,139.69,0,0,1,18.31,2.57Z" transform="translate(-44.94 -35.43)"/><rect id="Retina-L" class="cls-4" x="236.31" y="292.57" width="9.63" height="19.13"/><path id="Eye-R" class="cls-3" d="M366.81,330.25l-.43-6.94-2.57-.5-41.43-1.19.12,58.57a107.8,107.8,0,0,1,35.56,3.31l5-53Z" transform="translate(-44.94 -35.43)"/><rect id="Retina-R" class="cls-4" x="286.48" y="294.57" width="9.63" height="19.13"/><g id="Mouth"><path class="cls-3" d="M349,424.2a239.28,239.28,0,0,0-59.86-1.57l.51,5.22a234.51,234.51,0,0,1,58.55,1.54C348.43,427.66,348.7,425.93,349,424.2Z" transform="translate(-44.94 -35.43)"/></g><g id="Ear"><path id="Ear-Outter" class="cls-4" d="M446.77,374.56l0,0h-6.37c-6.07.11-11,8.14-11,18s5,18,11.08,18h5.69l0,0,.29,0c6.12,0,11.08-8.08,11.08-18S452.76,374.8,446.77,374.56Zm-3.26.66h0ZM443.43,410l.07,0,.07,0Z" transform="translate(-44.94 -35.43)"/><ellipse id="Ear-Inner" class="cls-3" cx="400.56" cy="357.16" rx="10.58" ry="17.55"/></g></g><g id="Frame"><ellipse id="Frame-2" data-name="Frame" class="cls-9" cx="328.08" cy="389.3" rx="315.58" ry="376.8"/><polygon class="cls-10" points="328.07 5 329.81 10.77 335.57 10.73 330.89 14.25 332.71 20 328.07 16.4 323.44 20 325.26 14.25 320.57 10.73 326.34 10.77 328.07 5"/><polygon class="cls-10" points="405.98 27.72 401.59 31.4 403.16 25.73 398.48 22.48 404.09 22.31 405.58 16.62 407.47 22.17 413.08 21.91 408.64 25.52 410.61 31.04 405.98 27.72"/><polygon class="cls-10" points="476.82 60.17 472.69 63.93 474.01 58.35 469.33 55.37 474.79 54.97 476.03 49.37 478.08 54.7 483.53 54.22 479.34 57.91 481.46 63.22 476.82 60.17"/><polygon class="cls-10" points="538.25 110.92 534.36 114.77 535.44 109.27 530.76 106.56 536.07 105.94 537.06 100.43 539.27 105.54 544.56 104.83 540.62 108.62 542.89 113.69 538.25 110.92"/><polygon class="cls-10" points="587.9 177.16 584.26 181.09 585.09 175.67 580.41 173.24 585.56 172.4 586.31 166.97 588.67 171.86 593.81 170.93 590.12 174.8 592.54 179.66 587.9 177.16"/><polygon class="cls-10" points="623.39 256.05 620 260.06 620.58 254.73 615.9 252.57 620.91 251.51 621.41 246.16 623.92 250.84 628.91 249.69 625.46 253.65 628.04 258.28 623.39 256.05"/><polygon class="cls-10" points="642.38 344.78 639.23 348.87 639.56 343.62 634.89 341.74 639.74 340.45 640 335.2 642.66 339.65 647.5 338.28 644.29 342.32 647.02 346.74 642.38 344.78"/><polygon class="cls-10" points="642.57 439.12 639.68 443.29 639.76 438.13 635.09 436.52 639.79 435 639.8 429.84 642.62 434.07 647.3 432.48 644.34 436.61 647.22 440.8 642.57 439.12"/><polygon class="cls-10" points="623.83 527.85 621.18 532.1 621.01 527.02 616.34 525.69 620.89 523.95 620.65 518.87 623.63 522.88 628.15 521.07 625.44 525.29 628.48 529.25 623.83 527.85"/><polygon class="cls-10" points="588.52 606.74 586.12 611.08 585.71 606.08 581.04 605.02 585.44 603.06 584.95 598.07 588.09 601.86 592.45 599.83 589.99 604.13 593.18 607.87 588.52 606.74"/><polygon class="cls-10" points="539.07 672.98 536.92 677.4 536.26 672.48 531.59 671.7 535.84 669.51 535.11 664.61 538.39 668.18 542.61 665.93 540.39 670.32 543.73 673.84 539.07 672.98"/><polygon class="cls-10" points="477.84 723.73 475.94 728.24 475.02 723.4 470.36 722.89 474.45 720.49 473.48 715.66 476.92 719.01 480.98 716.54 479.01 721.02 482.5 724.32 477.84 723.73"/><polygon class="cls-10" points="407.19 756.18 405.53 760.77 404.37 756.02 399.71 755.78 403.65 753.15 402.43 748.41 406.02 751.54 409.93 748.86 408.21 753.42 411.85 756.49 407.19 756.18"/><polygon class="cls-10" points="329.48 767.5 328.07 772.17 326.67 767.5 322.01 767.53 325.8 764.68 324.32 760.03 328.07 762.94 331.82 760.03 330.35 764.68 334.14 767.53 329.48 767.5"/><polygon class="cls-10" points="251.78 756.02 250.62 760.77 248.96 756.18 244.31 756.49 247.94 753.42 246.22 748.86 250.13 751.54 253.72 748.41 252.5 753.15 256.44 755.78 251.78 756.02"/><polygon class="cls-10" points="181.13 723.4 180.21 728.24 178.31 723.73 173.65 724.32 177.14 721.02 175.17 716.54 179.23 719.01 182.67 715.66 181.7 720.49 185.79 722.89 181.13 723.4"/><polygon class="cls-10" points="119.89 672.48 119.23 677.4 117.08 672.98 112.42 673.84 115.76 670.32 113.54 665.93 117.76 668.18 121.04 664.61 120.31 669.51 124.56 671.7 119.89 672.48"/><polygon class="cls-10" points="70.44 606.08 70.03 611.08 67.63 606.74 62.97 607.87 66.16 604.13 63.7 599.83 68.06 601.86 71.2 598.07 70.71 603.06 75.11 605.02 70.44 606.08"/><polygon class="cls-10" points="35.14 527.02 34.97 532.1 32.33 527.85 27.67 529.25 30.71 525.29 28 521.07 32.52 522.88 35.5 518.87 35.26 523.95 39.81 525.69 35.14 527.02"/><polygon class="cls-10" points="16.39 438.13 16.47 443.29 13.58 439.12 8.93 440.8 11.81 436.61 8.85 432.48 13.53 434.07 16.35 429.84 16.36 435 21.06 436.52 16.39 438.13"/><polygon class="cls-10" points="16.59 343.62 16.92 348.87 13.77 344.78 9.13 346.74 11.86 342.32 8.65 338.28 13.49 339.65 16.16 335.2 16.41 340.45 21.26 341.74 16.59 343.62"/><polygon class="cls-10" points="35.57 254.73 36.15 260.06 32.76 256.05 28.11 258.28 30.69 253.65 27.24 249.69 32.23 250.84 34.74 246.16 35.24 251.51 40.24 252.57 35.57 254.73"/><polygon class="cls-10" points="71.07 175.67 71.89 181.09 68.25 177.16 63.61 179.66 66.03 174.8 62.34 170.93 67.48 171.86 69.84 166.97 70.59 172.4 75.74 173.24 71.07 175.67"/><polygon class="cls-10" points="120.71 109.27 121.79 114.77 117.9 110.92 113.26 113.69 115.53 108.62 111.59 104.83 116.88 105.54 119.09 100.43 120.08 105.94 125.39 106.56 120.71 109.27"/><polygon class="cls-10" points="182.14 58.35 183.47 63.93 179.33 60.17 174.69 63.22 176.81 57.91 172.62 54.22 178.07 54.7 180.12 49.37 181.37 54.97 186.82 55.37 182.14 58.35"/><polygon class="cls-10" points="252.99 25.73 254.56 31.4 250.18 27.72 245.54 31.04 247.51 25.52 243.07 21.91 248.68 22.17 250.57 16.62 252.06 22.31 257.67 22.48 252.99 25.73"/><polygon class="cls-10" points="328.07 5 329.81 10.77 335.57 10.73 330.89 14.25 332.71 20 328.07 16.4 323.44 20 325.26 14.25 320.57 10.73 326.34 10.77 328.07 5"/><rect class="cls-4" x="253.45" y="729.15" width="147.61" height="16.67"/><rect class="cls-4" x="262.56" y="745.82" width="129.37" height="25.13"/></g><g id="Banner"><rect class="cls-3" x="46.05" y="634.81" width="565" height="107"/><rect class="cls-11" x="612.99" y="645.07" width="3.8" height="17.29"/><rect class="cls-11" x="612.99" y="662.36" width="3.8" height="17.29"/><rect class="cls-11" x="612.99" y="679.66" width="3.8" height="17.29"/><rect class="cls-11" x="612.99" y="696.95" width="3.8" height="17.29"/><rect class="cls-11" x="612.99" y="714.25" width="3.8" height="17.29"/><rect class="cls-11" x="587.97" y="739.27" width="17.29" height="3.8"/><rect class="cls-11" x="570.68" y="739.27" width="17.29" height="3.8"/><rect class="cls-11" x="553.38" y="739.27" width="17.29" height="3.8"/><rect class="cls-11" x="536.09" y="739.27" width="17.29" height="3.8"/><rect class="cls-11" x="518.79" y="739.27" width="17.29" height="3.8"/><rect class="cls-11" x="501.5" y="739.27" width="17.29" height="3.8"/><rect class="cls-11" x="484.2" y="739.27" width="17.29" height="3.8"/><rect class="cls-11" x="466.91" y="739.27" width="17.29" height="3.8"/><rect class="cls-11" x="449.61" y="739.27" width="17.29" height="3.8"/><rect class="cls-11" x="432.32" y="739.27" width="17.29" height="3.8"/><rect class="cls-11" x="415.02" y="739.27" width="17.29" height="3.8"/><rect class="cls-11" x="397.73" y="739.27" width="17.29" height="3.8"/><rect class="cls-11" x="380.43" y="739.27" width="17.29" height="3.8"/><rect class="cls-11" x="363.14" y="739.27" width="17.29" height="3.8"/><rect class="cls-11" x="345.84" y="739.27" width="17.29" height="3.8"/><rect class="cls-11" x="328.55" y="739.27" width="17.29" height="3.8"/><rect class="cls-11" x="311.26" y="739.27" width="17.29" height="3.8"/><rect class="cls-11" x="293.96" y="739.27" width="17.29" height="3.8"/><rect class="cls-11" x="276.67" y="739.27" width="17.29" height="3.8"/><rect class="cls-11" x="259.37" y="739.27" width="17.29" height="3.8"/><rect class="cls-11" x="242.08" y="739.27" width="17.29" height="3.8"/><rect class="cls-11" x="224.78" y="739.27" width="17.29" height="3.8"/><rect class="cls-11" x="207.49" y="739.27" width="17.29" height="3.8"/><rect class="cls-11" x="190.19" y="739.27" width="17.29" height="3.8"/><rect class="cls-11" x="172.9" y="739.27" width="17.29" height="3.8"/><rect class="cls-11" x="155.6" y="739.27" width="17.29" height="3.8"/><rect class="cls-11" x="138.31" y="739.27" width="17.29" height="3.8"/><rect class="cls-11" x="121.01" y="739.27" width="17.29" height="3.8"/><rect class="cls-11" x="103.72" y="739.27" width="17.29" height="3.8"/><rect class="cls-11" x="86.42" y="739.27" width="17.29" height="3.8"/><rect class="cls-11" x="69.13" y="739.27" width="17.29" height="3.8"/><rect class="cls-11" x="51.83" y="739.27" width="17.29" height="3.8"/><rect class="cls-11" x="40.3" y="714.25" width="3.8" height="17.29"/><rect class="cls-11" x="40.3" y="696.95" width="3.8" height="17.29"/><rect class="cls-11" x="40.3" y="679.66" width="3.8" height="17.29"/><rect class="cls-11" x="40.3" y="662.36" width="3.8" height="17.29"/><rect class="cls-11" x="40.3" y="645.07" width="3.8" height="17.29"/><rect class="cls-11" x="51.83" y="633.54" width="17.29" height="3.8"/><rect class="cls-11" x="69.13" y="633.54" width="17.29" height="3.8"/><rect class="cls-11" x="86.42" y="633.54" width="17.29" height="3.8"/><rect class="cls-11" x="103.72" y="633.54" width="17.29" height="3.8"/><rect class="cls-11" x="121.01" y="633.54" width="17.29" height="3.8"/><rect class="cls-11" x="138.31" y="633.54" width="17.29" height="3.8"/><rect class="cls-11" x="155.6" y="633.54" width="17.29" height="3.8"/><rect class="cls-11" x="172.9" y="633.54" width="17.29" height="3.8"/><rect class="cls-11" x="190.19" y="633.54" width="17.29" height="3.8"/><rect class="cls-11" x="207.49" y="633.54" width="17.29" height="3.8"/><rect class="cls-11" x="224.78" y="633.54" width="17.29" height="3.8"/><rect class="cls-11" x="242.08" y="633.54" width="17.29" height="3.8"/><rect class="cls-11" x="259.37" y="633.54" width="17.29" height="3.8"/><rect class="cls-11" x="276.67" y="633.54" width="17.29" height="3.8"/><rect class="cls-11" x="293.96" y="633.54" width="17.29" height="3.8"/><rect class="cls-11" x="311.26" y="633.54" width="17.29" height="3.8"/><rect class="cls-11" x="328.55" y="633.54" width="17.29" height="3.8"/><rect class="cls-11" x="345.84" y="633.54" width="17.29" height="3.8"/><rect class="cls-11" x="363.14" y="633.54" width="17.29" height="3.8"/><rect class="cls-11" x="380.43" y="633.54" width="17.29" height="3.8"/><rect class="cls-11" x="397.73" y="633.54" width="17.29" height="3.8"/><rect class="cls-11" x="415.02" y="633.54" width="17.29" height="3.8"/><rect class="cls-11" x="432.32" y="633.54" width="17.29" height="3.8"/><rect class="cls-11" x="449.61" y="633.54" width="17.29" height="3.8"/><rect class="cls-11" x="466.91" y="633.54" width="17.29" height="3.8"/><rect class="cls-11" x="484.2" y="633.54" width="17.29" height="3.8"/><rect class="cls-11" x="501.5" y="633.54" width="17.29" height="3.8"/><rect class="cls-11" x="518.79" y="633.54" width="17.29" height="3.8"/><rect class="cls-11" x="536.09" y="633.54" width="17.29" height="3.8"/><rect class="cls-11" x="553.38" y="633.54" width="17.29" height="3.8"/><rect class="cls-11" x="570.68" y="633.54" width="17.29" height="3.8"/><rect class="cls-11" x="587.97" y="633.54" width="17.29" height="3.8"/><path class="cls-11" d="M650.19,778.51h5.74l0-.17,0-.17,0-.18,0-.18,0-.18v-.18l0-.19v-.66l0-.23,0-.23.06-.22.06-.22.07-.21.08-.21.09-.2.1-.2.12-.19.11-.19.13-.18.14-.17.14-.17.16-.16.15-.15.17-.14.17-.14.18-.13.19-.12.19-.11.2-.1.2-.09.21-.08.22-.08.21-.06.23,0,.22,0,.23,0,.24,0h.61l.18,0,.18,0,.18,0,.18,0,.17,0,.17.05V767h-3.8v2.59l-.56.12-.27.07-.25.08-.25.08-.24.08-.23.1-.22.09-.21.11-.21.11-.2.12-.19.12-.18.13-.17.14-.17.14-.16.16-.15.16-.15.16-.13.18-.13.18-.13.19-.12.19-.11.21-.1.21-.1.22-.09.24-.09.23-.08.25-.07.26-.07.26-.12.56h-2.59Z" transform="translate(-44.94 -35.43)"/><path class="cls-11" d="M85.24,767v5.75l.17-.06.17,0,.17,0,.18,0,.18,0,.19,0h.61l.23,0,.23,0,.23,0,.22.06.22.06.21.07.21.08.21.09.19.11.2.11.18.12.18.12.18.14.16.14.16.16.15.16.15.16.13.18.13.18.12.18.11.19.1.2.1.21.08.2.07.22.06.22,0,.22,0,.22,0,.23,0,.24v.61l0,.18,0,.18,0,.18,0,.18,0,.17-.06.18h5.75V774.7H94.19l-.12-.56-.07-.27-.07-.25-.08-.25-.09-.24-.09-.23-.1-.22-.1-.21-.11-.21-.12-.2-.13-.19-.13-.18-.13-.17-.15-.17-.15-.16-.16-.15-.17-.14-.17-.14-.18-.13-.19-.13-.2-.12-.21-.11-.21-.1-.22-.1-.23-.09-.24-.09-.25-.08-.25-.07-.27-.07-.55-.12V767Z" transform="translate(-44.94 -35.43)"/><path class="cls-11" d="M96.78,669H91l0,.17,0,.17,0,.18,0,.18,0,.18,0,.19v.61l0,.23,0,.23,0,.23-.05.22-.06.22L91,672l-.08.21-.09.2-.1.2-.11.19-.12.19-.13.18-.14.17-.14.17-.15.16-.16.15-.17.14-.17.14-.18.13-.19.12-.19.11-.2.1-.2.09-.21.08-.21.08-.22.06-.22,0-.23,0-.23,0-.23,0h-.61l-.19,0-.18,0-.18,0-.18,0-.17-.05-.17,0v5.75h3.81v-2.59l.55-.12.27-.07.26-.08.24-.08.24-.08.23-.09.22-.1.22-.11.2-.11.2-.12.19-.12.18-.13.18-.14.16-.14.16-.15.15-.16.15-.17.14-.17.13-.19.12-.19.12-.19.11-.21.11-.21.09-.22.1-.23.08-.24.08-.25.08-.26.07-.26.12-.56h2.58Z" transform="translate(-44.94 -35.43)"/><path class="cls-11" d="M661.74,680.51v-5.74l-.17.05-.17,0-.18,0-.18,0-.18,0h-.19l-.18,0h-.66l-.23,0-.23,0-.22,0-.22-.07-.21-.07-.21-.08-.2-.09-.2-.1-.19-.12-.19-.11-.18-.13-.17-.14-.17-.14-.16-.16-.15-.15-.14-.17-.14-.17-.13-.18-.12-.19-.11-.19-.1-.2-.09-.2L656,672l-.08-.22-.06-.21-.05-.23,0-.22,0-.23,0-.24V670l0-.18,0-.18,0-.18,0-.18,0-.17.05-.17h-5.75v3.8h2.59l.12.56.07.27.08.25.08.25.08.24.09.23.1.22.11.21.11.21.12.2.12.19.13.18.14.17.14.17.16.16.15.15.17.15.17.13.19.13.19.13.19.12.21.11.21.1.22.1.23.09.24.09.25.08.26.07.26.07.56.12v2.59Z" transform="translate(-44.94 -35.43)"/><rect class="cls-4" x="55.38" y="644.33" width="545.4" height="87.95"/><ellipse class="cls-3" cx="328.08" cy="740.07" rx="23.5" ry="25"/><polygon class="cls-4" points="328.03 715.07 333.21 732.47 350.35 732.33 336.41 742.95 341.83 760.26 328.03 749.43 314.23 760.26 319.65 742.95 305.7 732.33 322.85 732.47 328.03 715.07"/><text class="cls-12" transform="translate(61.7 720.42) scale(1 1.5)">ROB<tspan class="cls-13" x="123.77" y="0">O</tspan><tspan class="cls-14" x="164.2" y="0">T</tspan><tspan x="203.06" y="0">S</tspan></text><text class="cls-15" transform="translate(363.27 703.32)">lead the way!</text><line class="cls-16" x1="310.58" y1="688.31" x2="345.58" y2="688.31"/></g></svg>