<svg id="Layer_1" data-name="Layer 1" xmlns="http://www.w3.org/2000/svg" viewBox="0 0 272.2 320.16"><defs><style>.cls-1{fill:#b4282f;}.cls-2,.cls-3,.cls-5,.cls-8{fill:#00925b;}.cls-2,.cls-5,.cls-9{stroke:#e6e4cf;}.cls-2,.cls-5,.cls-6,.cls-8,.cls-9{stroke-miterlimit:10;}.cls-2{stroke-width:8px;}.cls-4{fill:#e6e4cf;}.cls-5{stroke-width:2px;}.cls-6,.cls-9{fill:none;}.cls-6,.cls-8{stroke:#00925b;}.cls-6{stroke-linecap:round;stroke-width:6px;}.cls-7{fill:#b73438;}.cls-9{stroke-width:25px;}.cls-10{fill:#b73337;}</style></defs><title>talus</title><g id="Talus"><ellipse class="cls-1" cx="135.71" cy="160.08" rx="123.6" ry="147.58"/><g id="Shoulders"><path class="cls-2" d="M254.13,323.37a1.8,1.8,0,0,1-1.26,1.33,1.9,1.9,0,0,1-1.15.36h-.07a1.95,1.95,0,0,1-2.89-.11l-.21,8,222.1,6,.25-9.68Z" transform="translate(-224.6 -110.34)"/><g id="ShoulderL"><polygon class="cls-3" points="228.29 197.44 221.15 197.79 217.88 204.26 221.75 210.39 228.89 210.04 232.16 203.56 228.29 197.44"/><polygon class="cls-3" points="210.99 202.22 206.18 207.61 208.36 214.54 215.35 216.09 220.16 210.69 217.97 203.76 210.99 202.22"/><polygon class="cls-3" points="202.38 218.41 202.73 225.69 209.08 229.02 215.09 225.08 214.75 217.81 208.39 214.47 202.38 218.41"/><polygon class="cls-3" points="207.5 236.03 212.79 240.92 219.59 238.7 221.11 231.58 215.82 226.69 209.01 228.91 207.5 236.03"/><polygon class="cls-3" points="229.91 231.49 222.77 231.84 219.5 238.31 223.37 244.44 230.51 244.09 233.78 237.61 229.91 231.49"/><polygon class="cls-3" points="238.94 200.84 244.23 205.73 242.72 212.85 235.91 215.07 230.62 210.18 232.13 203.06 238.94 200.84"/><polygon class="cls-3" points="249.04 216.12 249.38 223.39 243.37 227.33 237.02 224 236.67 216.72 242.68 212.78 249.04 216.12"/><polygon class="cls-3" points="245.62 234.15 240.81 239.54 233.83 238 231.65 231.06 236.45 225.67 243.44 227.21 245.62 234.15"/><ellipse class="cls-3" cx="225.88" cy="220.93" rx="19.52" ry="19.88"/></g><g id="ShoulderR"><polygon class="cls-3" points="50.62 192.37 43.48 192.72 40.21 199.2 44.08 205.32 51.22 204.97 54.49 198.5 50.62 192.37"/><polygon class="cls-3" points="33.31 197.15 28.51 202.54 30.69 209.48 37.67 211.02 42.48 205.63 40.3 198.69 33.31 197.15"/><polygon class="cls-3" points="24.71 213.35 25.05 220.63 31.41 223.96 37.42 220.02 37.08 212.74 30.72 209.41 24.71 213.35"/><polygon class="cls-3" points="29.82 230.96 35.11 235.86 41.92 233.63 43.43 226.51 38.14 221.62 31.33 223.84 29.82 230.96"/><polygon class="cls-3" points="52.23 226.42 45.09 226.77 41.82 233.25 45.69 239.37 52.83 239.02 56.1 232.54 52.23 226.42"/><polygon class="cls-3" points="61.27 195.77 66.56 200.67 65.04 207.79 58.24 210.01 52.94 205.12 54.46 198 61.27 195.77"/><polygon class="cls-3" points="71.36 211.05 71.71 218.33 65.7 222.27 59.34 218.94 59 211.66 65.01 207.72 71.36 211.05"/><polygon class="cls-3" points="67.94 229.08 63.14 234.47 56.15 232.93 53.97 226 58.78 220.6 65.76 222.15 67.94 229.08"/><ellipse class="cls-3" cx="48.21" cy="215.87" rx="19.52" ry="19.88"/></g><polygon class="cls-3" points="208.74 213.41 205.5 213.79 206.18 207.61 208.74 207.89 208.74 213.41"/><polygon class="cls-3" points="206.88 225.47 201.7 224.59 202.38 218.41 206.88 220.7 206.88 225.47"/><polygon class="cls-3" points="241.59 211.4 243.55 211.91 244.23 205.73 241.59 205.73 241.59 211.4"/><polygon class="cls-3" points="33.89 207.74 27.04 207.94 28.51 202.54 33.89 202.54 33.89 207.74"/><polygon class="cls-3" points="66.84 223.56 70.24 223.72 71.71 218.33 66.84 218.33 66.84 223.56"/><g id="ShoulderL-2" data-name="ShoulderL"><polygon class="cls-4" points="227.61 203.62 220.47 203.97 217.2 210.44 221.07 216.57 228.21 216.22 231.48 209.74 227.61 203.62"/><polygon class="cls-4" points="210.3 208.4 205.5 213.79 207.68 220.72 214.67 222.27 219.47 216.87 217.29 209.94 210.3 208.4"/><polygon class="cls-4" points="201.7 224.59 202.04 231.87 208.4 235.2 214.41 231.26 214.06 223.98 207.71 220.65 201.7 224.59"/><polygon class="cls-4" points="206.81 242.2 212.1 247.1 218.91 244.88 220.43 237.76 215.13 232.86 208.32 235.09 206.81 242.2"/><polygon class="cls-4" points="229.22 237.66 222.08 238.02 218.81 244.49 222.68 250.62 229.82 250.26 233.09 243.79 229.22 237.66"/><polygon class="cls-4" points="238.26 207.02 243.55 211.91 242.03 219.03 235.23 221.25 229.93 216.36 231.45 209.24 238.26 207.02"/><polygon class="cls-4" points="248.35 222.29 248.7 229.57 242.69 233.51 236.33 230.18 235.99 222.9 242 218.96 248.35 222.29"/><polygon class="cls-4" points="244.94 240.32 240.13 245.72 233.14 244.18 230.96 237.24 235.77 231.85 242.75 233.39 244.94 240.32"/><ellipse class="cls-4" cx="225.2" cy="227.11" rx="19.52" ry="19.88"/></g><g id="ShoulderR-2" data-name="ShoulderR"><polygon class="cls-4" points="49.15 197.77 42.01 198.12 38.74 204.6 42.61 210.72 49.75 210.37 53.02 203.89 49.15 197.77"/><polygon class="cls-4" points="31.84 202.55 27.04 207.94 29.22 214.88 36.21 216.42 41.01 211.03 38.83 204.09 31.84 202.55"/><polygon class="cls-4" points="23.24 218.75 23.59 226.02 29.94 229.35 35.95 225.41 35.61 218.14 29.25 214.8 23.24 218.75"/><polygon class="cls-4" points="28.35 236.36 33.65 241.25 40.45 239.03 41.97 231.91 36.67 227.02 29.87 229.24 28.35 236.36"/><polygon class="cls-4" points="50.77 231.82 43.63 232.17 40.35 238.64 44.22 244.77 51.36 244.42 54.63 237.94 50.77 231.82"/><polygon class="cls-4" points="59.8 201.17 65.09 206.06 63.58 213.18 56.77 215.41 51.48 210.51 52.99 203.39 59.8 201.17"/><polygon class="cls-4" points="69.9 216.45 70.24 223.72 64.23 227.66 57.87 224.33 57.53 217.06 63.54 213.11 69.9 216.45"/><polygon class="cls-4" points="66.48 234.48 61.67 239.87 54.69 238.33 52.5 231.39 57.31 226 64.3 227.54 66.48 234.48"/><ellipse class="cls-4" cx="46.74" cy="221.27" rx="19.52" ry="19.88"/></g></g><circle class="cls-3" cx="226.33" cy="228.65" r="15.67"/><circle class="cls-3" cx="43.7" cy="223.47" r="15.67"/><rect class="cls-4" x="268.99" y="334.29" width="182.1" height="9.68" transform="translate(-215.38 -119.87) rotate(1.54)"/><circle class="cls-4" cx="226.33" cy="228.65" r="7.25"/><circle class="cls-4" cx="43.7" cy="223.47" r="7.74"/><polygon class="cls-3" points="188.71 306.17 60.36 285.89 30.77 230.9 241.33 236.55 188.71 306.17"/><polygon class="cls-4" points="194.72 260.23 70.3 258.32 69.16 244.65 196.54 248.07 194.72 260.23"/><polygon class="cls-4" points="186.4 247.8 77.69 244.88 82.03 231.53 186.29 234.33 186.4 247.8"/><rect class="cls-3" x="296.84" y="358.7" width="3.44" height="0.74" transform="translate(-214.87 -118.21) rotate(1.54)"/><rect class="cls-3" x="413.32" y="362.64" width="3.44" height="0.74" transform="translate(-214.72 -121.34) rotate(1.54)"/><rect class="cls-3" x="88.87" y="227.91" width="91.35" height="34.75"/><polygon class="cls-3" points="88.87 259.69 83.8 259.69 84.18 245.25 88.87 229.59 88.87 259.69"/><rect class="cls-4" x="322.48" y="356.16" width="0.78" height="11.75" transform="translate(-214.76 -118.88) rotate(1.54)"/><rect class="cls-4" x="390.14" y="357.98" width="0.78" height="11.75" transform="translate(-214.68 -120.7) rotate(1.54)"/><rect class="cls-4" x="386.58" y="357.89" width="0.78" height="11.75" transform="translate(-214.69 -120.6) rotate(1.54)"/><rect class="cls-4" x="383.02" y="357.79" width="0.78" height="11.75" transform="translate(-214.69 -120.51) rotate(1.54)"/><rect class="cls-4" x="379.46" y="357.7" width="0.78" height="11.75" transform="translate(-214.7 -120.41) rotate(1.54)"/><rect class="cls-4" x="375.9" y="357.6" width="0.78" height="11.75" transform="translate(-214.7 -120.32) rotate(1.54)"/><rect class="cls-4" x="372.34" y="357.51" width="0.78" height="11.75" transform="translate(-214.7 -120.22) rotate(1.54)"/><rect class="cls-4" x="368.77" y="357.41" width="0.78" height="11.75" transform="translate(-214.71 -120.13) rotate(1.54)"/><rect class="cls-4" x="365.21" y="357.31" width="0.78" height="11.75" transform="translate(-214.71 -120.03) rotate(1.54)"/><rect class="cls-4" x="361.65" y="357.22" width="0.78" height="11.75" transform="translate(-214.72 -119.94) rotate(1.54)"/><rect class="cls-4" x="358.09" y="357.12" width="0.78" height="11.75" transform="translate(-214.72 -119.84) rotate(1.54)"/><rect class="cls-4" x="354.53" y="357.03" width="0.78" height="11.75" transform="translate(-214.72 -119.74) rotate(1.54)"/><rect class="cls-4" x="350.97" y="356.93" width="0.78" height="11.75" transform="translate(-214.73 -119.65) rotate(1.54)"/><rect class="cls-4" x="347.41" y="356.83" width="0.78" height="11.75" transform="translate(-214.73 -119.55) rotate(1.54)"/><rect class="cls-4" x="343.85" y="356.74" width="0.78" height="11.75" transform="translate(-214.73 -119.46) rotate(1.54)"/><rect class="cls-4" x="340.28" y="356.64" width="0.78" height="11.75" transform="translate(-214.74 -119.36) rotate(1.54)"/><rect class="cls-4" x="336.72" y="356.55" width="0.78" height="11.75" transform="translate(-214.74 -119.27) rotate(1.54)"/><rect class="cls-4" x="333.16" y="356.45" width="0.78" height="11.75" transform="translate(-214.75 -119.17) rotate(1.54)"/><rect class="cls-4" x="329.6" y="356.36" width="0.78" height="11.75" transform="translate(-214.75 -119.07) rotate(1.54)"/><rect class="cls-4" x="326.04" y="356.26" width="0.78" height="11.75" transform="translate(-214.75 -118.98) rotate(1.54)"/><path class="cls-4" d="M417.34,329.64c.14-.4.26-.8.37-1.2l7.41-23.95a12.9,12.9,0,0,0,1.2-5.34c0-15.37-29.28-27.84-65.41-27.84s-65.41,12.47-65.41,27.84a12.09,12.09,0,0,0,.29,2.62h-.05l.24.75c.09.3.18.59.28.88l7.46,23.47c1.86,14,26.73,25,57.15,25,28.33,0,51.85-9.59,56.44-22.2h0Z" transform="translate(-224.6 -110.34)"/><path class="cls-3" d="M413.07,330.4a11.1,11.1,0,0,0,.34-1.12l6.84-22.35a12,12,0,0,0,1.12-5c0-14.35-27.05-26-60.41-26s-60.4,11.63-60.4,26a11.84,11.84,0,0,0,.27,2.44h-.05l.23.71c.07.27.16.55.25.82l6.9,21.9c1.71,13,24.68,23.35,52.77,23.35,26.16,0,47.87-8.95,52.12-20.71h0Z" transform="translate(-224.6 -110.34)"/><ellipse class="cls-4" cx="136.33" cy="210.9" rx="50.92" ry="24.92"/><ellipse class="cls-3" cx="132.26" cy="228.08" rx="4.9" ry="2.6"/><ellipse class="cls-3" cx="155.33" cy="226.71" rx="3.87" ry="2.07"/><ellipse class="cls-3" cx="172.27" cy="220.13" rx="3" ry="1.68"/><ellipse class="cls-3" cx="178.6" cy="212.12" rx="2.4" ry="1.33"/><ellipse class="cls-3" cx="109.85" cy="224.72" rx="3.87" ry="2.07"/><ellipse class="cls-3" cx="96.52" cy="217.21" rx="3" ry="1.68"/><ellipse class="cls-3" cx="93.29" cy="209.09" rx="2.4" ry="1.33"/><ellipse class="cls-5" cx="136.23" cy="210.72" rx="30.25" ry="9.9"/><ellipse class="cls-5" cx="136.25" cy="204.78" rx="30.25" ry="9.9"/><ellipse class="cls-5" cx="136.34" cy="198.58" rx="30.25" ry="9.9"/><ellipse class="cls-5" cx="136.36" cy="192.64" rx="30.25" ry="9.9"/><ellipse class="cls-5" cx="135.89" cy="186.24" rx="30.25" ry="9.9"/><ellipse class="cls-5" cx="135.91" cy="180.31" rx="30.25" ry="9.9"/><line class="cls-6" x1="133.69" y1="190.21" x2="161.22" y2="185.39"/><line class="cls-6" x1="120.07" y1="194.85" x2="162.81" y2="190.27"/><line class="cls-6" x1="124.61" y1="201.63" x2="163.29" y2="196.48"/><line class="cls-6" x1="125.69" y1="207.73" x2="162.71" y2="203.03"/><line class="cls-6" x1="121.86" y1="213.2" x2="160.32" y2="210.41"/><ellipse class="cls-3" cx="373.57" cy="299.07" rx="11.55" ry="1.98" transform="translate(-270.57 -41.45) rotate(-9.93)"/><rect class="cls-3" x="348.12" y="302.8" width="40.78" height="4.35" transform="translate(-254.98 -69.37) rotate(-6.11)"/><rect class="cls-3" x="351.92" y="309.6" width="36.18" height="3.89" transform="translate(-255.67 -69.17) rotate(-6.11)"/><rect class="cls-3" x="353.39" y="316.29" width="33.63" height="3.73" transform="translate(-261.72 -61.18) rotate(-7.24)"/><rect class="cls-3" x="348.59" y="322.18" width="37.09" height="3.45" transform="translate(-235.99 -96.95) rotate(-2.06)"/><polygon class="cls-4" points="159.86 47.54 100.8 41.15 82.93 78.77 52.95 117.96 65.6 136.65 85.93 136.65 92.14 136.46 180.64 138.85 207.12 139.36 220.44 126.72 193.79 87.14 159.86 47.54"/><polygon class="cls-7" points="152.66 42.42 146.36 43.19 143.88 49.03 147.7 54.11 154 53.34 156.48 47.49 152.66 42.42"/><polygon class="cls-7" points="137.64 47.7 133.73 52.7 136.11 58.59 142.39 59.48 146.3 54.48 143.93 48.59 137.64 47.7"/><polygon class="cls-7" points="131.06 62.34 131.83 68.65 137.67 71.13 142.74 67.31 141.97 61.01 136.13 58.53 131.06 62.34"/><polygon class="cls-7" points="136.71 77.32 141.71 81.23 147.6 78.86 148.49 72.57 143.48 68.66 137.6 71.03 136.71 77.32"/><polygon class="cls-7" points="156.27 71.91 149.97 72.69 147.49 78.53 151.31 83.6 157.61 82.83 160.09 76.98 156.27 71.91"/><polygon class="cls-7" points="162.31 44.69 167.31 48.6 166.43 54.88 160.54 57.26 155.54 53.35 156.43 47.06 162.31 44.69"/><polygon class="cls-7" points="172.23 57.31 173 63.61 167.93 67.43 162.09 64.94 161.32 58.64 166.39 54.82 172.23 57.31"/><polygon class="cls-7" points="170.36 73.2 166.45 78.2 160.16 77.32 157.78 71.43 161.69 66.43 167.98 67.32 170.36 73.2"/><circle class="cls-7" cx="152.03" cy="63" r="17.33"/><polygon class="cls-8" points="151.1 40.85 144.79 41.63 142.31 47.47 146.13 52.54 152.43 51.77 154.91 45.93 151.1 40.85"/><polygon class="cls-8" points="136.07 46.14 132.16 51.14 134.54 57.02 140.83 57.91 144.74 52.91 142.36 47.02 136.07 46.14"/><polygon class="cls-8" points="129.49 60.78 130.26 67.08 136.1 69.56 141.18 65.74 140.41 59.44 134.56 56.96 129.49 60.78"/><polygon class="cls-8" points="135.14 75.75 140.15 79.67 146.03 77.29 146.92 71 141.92 67.09 136.03 69.47 135.14 75.75"/><polygon class="cls-8" points="154.71 70.35 148.4 71.12 145.92 76.96 149.74 82.03 156.04 81.26 158.52 75.42 154.71 70.35"/><polygon class="cls-8" points="160.75 43.12 165.75 47.03 164.86 53.31 158.97 55.69 153.97 51.78 154.86 45.49 160.75 43.12"/><polygon class="cls-8" points="170.67 55.74 171.44 62.04 166.37 65.86 160.52 63.38 159.75 57.08 164.82 53.26 170.67 55.74"/><polygon class="cls-8" points="168.79 71.64 164.88 76.64 158.59 75.75 156.22 69.86 160.13 64.86 166.41 65.75 168.79 71.64"/><circle class="cls-3" cx="150.47" cy="61.44" r="17.33"/><circle class="cls-7" cx="150.08" cy="61.44" r="12.78"/><circle class="cls-4" cx="151.25" cy="62.61" r="12.58"/><g id="Stars"><path class="cls-3" d="M382.21,168.56c-1.34.82-1.75.89-3.21,1.8a15.92,15.92,0,0,0,1.67-2.17,30.71,30.71,0,0,0-4.7.56,18,18,0,0,1,4.9-1.61,16.7,16.7,0,0,0-3.28-2,13.57,13.57,0,0,1,5.33,1.6,8.09,8.09,0,0,1,1.72-.23,2.33,2.33,0,0,1-1,1.14,13.46,13.46,0,0,1-.75,4.94c0-1.43-.13-3.23-.65-4m-9.84,12.24a5.28,5.28,0,0,1-1.94-1.24,6.09,6.09,0,0,1,.74-1.46c-.63.09-1.09.17-1.64.27a8.78,8.78,0,0,1-.86-2.65,9.85,9.85,0,0,0,0,2.87,6.88,6.88,0,0,0-1.26.46,17,17,0,0,0,1.68.95,5.9,5.9,0,0,0,1.27,1.87,3.61,3.61,0,0,1-.11-1.43,7.66,7.66,0,0,0,2.13.36m2-11.35a4.47,4.47,0,0,0-.59,1.21,9.73,9.73,0,0,1,3.59,1.34,11.26,11.26,0,0,0-3.31-.22,2.44,2.44,0,0,0-.78.15,14.69,14.69,0,0,0-.75,2.9c-.32-.79-.77-2.38-.77-2.38a23.75,23.75,0,0,0-2.9,2.46,12.05,12.05,0,0,1,2.23-3.36,3.7,3.7,0,0,0-2.14-.65,8.29,8.29,0,0,1,2.13-.39,12.11,12.11,0,0,1,1.23,0,6.3,6.3,0,0,1,2.06-1.08m2.11,9.92c-.35.49-.65.88-1,1.33a6,6,0,0,1-1.86.27,4.31,4.31,0,0,0,1.21.44,8.66,8.66,0,0,1-1.18.94,8.6,8.6,0,0,0,2.25-.88,3.62,3.62,0,0,0,.91-.06,4,4,0,0,1-.15-.64,15.38,15.38,0,0,0,1.6-1.51,10,10,0,0,1-1.68,1c0-.31,0-.57-.06-.91" transform="translate(-224.6 -110.34)"/></g><g id="Head"><polygon class="cls-3" points="153.01 105.01 145.25 180.93 173.38 174.6 179.58 130.73 153.01 105.01"/><polygon class="cls-3" points="91.5 100.26 152.18 113.04 153.01 105.01 93.09 96.47 91.5 100.26"/><polygon class="cls-3" points="85.96 136.65 92.14 136.63 93.21 116.76 93.47 100.68 91.5 100.26 85.93 120.29 85.96 136.65"/></g><polygon id="Face" class="cls-4" points="179.58 130.73 173.38 174.6 145.25 180.93 152.18 113.04 93.47 100.68 92.14 136.63 94.24 178.4 144.98 183.05 173.8 175.2 181.92 132.05 179.58 130.73"/><path id="Eye-L" class="cls-3" d="M335.76,232.83v-2.89l-17-.32-.12,3.21h1.93q.45,9.39.91,18.8a53.45,53.45,0,0,1,7.24.05,52.75,52.75,0,0,1,7.17,1Z" transform="translate(-224.6 -110.34)"/><rect id="Retina-L" class="cls-4" x="100.16" y="122.2" width="3.77" height="7.49"/><path id="Eye-R" class="cls-3" d="M358.28,233.41l-.17-2.71-1-.2L340.87,230q0,11.46.05,22.93a42.61,42.61,0,0,1,13.93,1.3l2-20.77Z" transform="translate(-224.6 -110.34)"/><rect id="Retina-R" class="cls-4" x="119.81" y="122.98" width="3.77" height="7.49"/><g id="Mouth"><path class="cls-3" d="M351.29,270.21a93.85,93.85,0,0,0-23.45-.61c.07.68.14,1.36.2,2a92.17,92.17,0,0,1,22.94.6C351.08,271.57,351.18,270.89,351.29,270.21Z" transform="translate(-224.6 -110.34)"/></g><path id="Ear-Outter" class="cls-4" d="M389.59,250.77h-2.5c-2.37.05-4.29,3.19-4.29,7.07s1.94,7.07,4.34,7.07h2.35c2.4,0,4.34-3.17,4.34-7.07S391.94,250.86,389.59,250.77Zm-1.27.26h0Zm0,13.61h0Z" transform="translate(-224.6 -110.34)"/><ellipse id="Ear-Inner" class="cls-3" cx="164.49" cy="147.49" rx="4.15" ry="6.87"/><ellipse id="Frame" class="cls-9" cx="136.1" cy="160.08" rx="123.6" ry="147.58"/><polygon class="cls-10" points="136.1 9.56 136.78 11.82 139.04 11.81 137.21 13.19 137.92 15.44 136.1 14.03 134.29 15.44 135 13.19 133.16 11.81 135.42 11.82 136.1 9.56"/><polygon class="cls-10" points="166.61 18.46 164.9 19.9 165.51 17.68 163.68 16.41 165.87 16.34 166.46 14.11 167.2 16.29 169.4 16.18 167.66 17.6 168.43 19.76 166.61 18.46"/><polygon class="cls-10" points="194.36 31.17 192.74 32.64 193.26 30.46 191.43 29.29 193.56 29.13 194.05 26.94 194.85 29.03 196.99 28.84 195.35 30.29 196.18 32.36 194.36 31.17"/><polygon class="cls-10" points="218.42 51.05 216.9 52.55 217.32 50.4 215.49 49.34 217.57 49.1 217.96 46.94 218.82 48.94 220.9 48.66 219.35 50.15 220.24 52.14 218.42 51.05"/><polygon class="cls-10" points="237.87 76.99 236.44 78.53 236.77 76.41 234.93 75.46 236.95 75.13 237.25 73 238.17 74.92 240.19 74.55 238.74 76.07 239.69 77.97 237.87 76.99"/><polygon class="cls-10" points="251.77 107.89 250.44 109.46 250.67 107.38 248.84 106.53 250.8 106.11 250.99 104.02 251.98 105.85 253.93 105.4 252.58 106.95 253.59 108.77 251.77 107.89"/><polygon class="cls-10" points="259.21 142.65 257.97 144.25 258.1 142.19 256.27 141.46 258.17 140.95 258.27 138.89 259.32 140.63 261.21 140.1 259.96 141.68 261.03 143.41 259.21 142.65"/><polygon class="cls-10" points="259.28 179.59 258.15 181.23 258.18 179.21 256.35 178.58 258.19 177.98 258.19 175.96 259.3 177.62 261.13 177 259.98 178.61 261.1 180.25 259.28 179.59"/><polygon class="cls-10" points="251.94 214.35 250.9 216.01 250.84 214.02 249.01 213.5 250.79 212.82 250.7 210.83 251.86 212.4 253.63 211.69 252.57 213.34 253.76 214.9 251.94 214.35"/><polygon class="cls-10" points="238.11 245.25 237.17 246.95 237.01 244.99 235.18 244.57 236.91 243.81 236.72 241.85 237.94 243.34 239.65 242.54 238.69 244.23 239.94 245.69 238.11 245.25"/><polygon class="cls-10" points="218.75 271.19 217.9 272.92 217.64 271 215.81 270.69 217.48 269.83 217.19 267.91 218.48 269.31 220.13 268.43 219.26 270.15 220.57 271.53 218.75 271.19"/><polygon class="cls-10" points="194.76 291.07 194.01 292.84 193.66 290.94 191.83 290.74 193.44 289.8 193.05 287.91 194.4 289.22 195.99 288.26 195.22 290.01 196.59 291.3 194.76 291.07"/><polygon class="cls-10" points="167.09 303.78 166.44 305.58 165.99 303.71 164.16 303.62 165.7 302.59 165.22 300.74 166.63 301.96 168.16 300.91 167.49 302.7 168.91 303.9 167.09 303.78"/><polygon class="cls-10" points="136.65 308.21 136.1 310.04 135.55 308.21 133.73 308.23 135.21 307.11 134.63 305.29 136.1 306.43 137.57 305.29 136.99 307.11 138.48 308.23 136.65 308.21"/><polygon class="cls-10" points="106.22 303.71 105.77 305.58 105.12 303.78 103.29 303.9 104.72 302.7 104.04 300.91 105.57 301.96 106.98 300.74 106.5 302.59 108.05 303.62 106.22 303.71"/><polygon class="cls-10" points="78.55 290.94 78.19 292.84 77.44 291.07 75.62 291.3 76.99 290.01 76.22 288.26 77.81 289.22 79.15 287.91 78.77 289.8 80.37 290.74 78.55 290.94"/><polygon class="cls-10" points="54.56 271 54.3 272.92 53.46 271.19 51.64 271.53 52.94 270.15 52.08 268.43 53.73 269.31 55.01 267.91 54.73 269.83 56.39 270.69 54.56 271"/><polygon class="cls-10" points="35.19 244.99 35.03 246.95 34.09 245.25 32.27 245.69 33.52 244.23 32.55 242.54 34.26 243.34 35.49 241.85 35.3 243.81 37.02 244.57 35.19 244.99"/><polygon class="cls-10" points="21.37 214.02 21.3 216.01 20.27 214.35 18.44 214.9 19.63 213.34 18.57 211.69 20.34 212.4 21.51 210.83 21.41 212.82 23.2 213.5 21.37 214.02"/><polygon class="cls-10" points="14.02 179.21 14.06 181.23 12.92 179.59 11.1 180.25 12.23 178.61 11.07 177 12.9 177.62 14.01 175.96 14.01 177.98 15.85 178.58 14.02 179.21"/><polygon class="cls-10" points="14.1 142.19 14.23 144.25 13 142.65 11.18 143.41 12.25 141.68 10.99 140.1 12.89 140.63 13.93 138.89 14.03 140.95 15.93 141.46 14.1 142.19"/><polygon class="cls-10" points="21.54 107.38 21.76 109.46 20.43 107.89 18.61 108.77 19.62 106.95 18.27 105.4 20.23 105.85 21.21 104.02 21.41 106.11 23.37 106.53 21.54 107.38"/><polygon class="cls-10" points="35.44 76.41 35.76 78.53 34.34 76.99 32.52 77.97 33.47 76.07 32.02 74.55 34.03 74.92 34.96 73 35.25 75.13 37.27 75.46 35.44 76.41"/><polygon class="cls-10" points="54.88 50.4 55.3 52.55 53.78 51.05 51.96 52.14 52.85 50.15 51.31 48.66 53.38 48.94 54.25 46.94 54.64 49.1 56.72 49.34 54.88 50.4"/><polygon class="cls-10" points="78.94 30.46 79.46 32.64 77.84 31.17 76.03 32.36 76.86 30.29 75.22 28.84 77.35 29.03 78.15 26.94 78.64 29.13 80.78 29.29 78.94 30.46"/><polygon class="cls-10" points="106.69 17.68 107.31 19.9 105.59 18.46 103.78 19.76 104.55 17.6 102.81 16.18 105 16.29 105.75 14.11 106.33 16.34 108.53 16.41 106.69 17.68"/><polygon class="cls-10" points="136.1 9.56 136.78 11.82 139.04 11.81 137.21 13.19 137.92 15.44 136.1 14.03 134.29 15.44 135 13.19 133.16 11.81 135.42 11.82 136.1 9.56"/></g></svg>