<?xml version="1.0" encoding="utf-8"?>
<!-- Generator: Adobe Illustrator 17.0.0, SVG Export Plug-In . SVG Version: 6.00 Build 0)  -->
<!DOCTYPE svg PUBLIC "-//W3C//DTD SVG 1.1//EN" "http://www.w3.org/Graphics/SVG/1.1/DTD/svg11.dtd">
<svg version="1.1" xmlns="http://www.w3.org/2000/svg" xmlns:xlink="http://www.w3.org/1999/xlink" x="0px" y="0px" width="250px"
	 height="300px" viewBox="-18.941 -24.875 250 300" enable-background="new -18.941 -24.875 250 300" xml:space="preserve">
<g id="Layer_1">
	<g id="Layer_1_1_">
	</g>
	<g id="Layer_4">
		<g>
			<text transform="matrix(1 0 0 1 2.1365 267.6371)" fill="#447394" font-family="'Futura-Medium'" font-size="16.3505">WASHINGTON, D.C.</text>
			
				<text transform="matrix(1 0 0 1 2.1365 267.6371)" fill="none" stroke="#447394" stroke-width="0.5" stroke-miterlimit="10" font-family="'Futura-Medium'" font-size="16.3505">WASHINGTON, D.C.</text>
			<text transform="matrix(1.0221 0 0 1 66.6367 144.8628)" fill="#447394" font-family="'TrajanPro-Regular'" font-size="43.0276">K</text>
			<text transform="matrix(1.1244 0 0 1 98.6099 144.8628)" fill="#447394" font-family="'TrajanPro-Regular'" font-size="43.0276">S</text>
			<g>
				<path fill="#F0B864" d="M96.409,22.356c-7.451,7.981-12.021,18.491-12.021,30.051s4.57,22.07,12.021,30.051
					c7.451-7.981,12.021-18.491,12.021-30.051S103.86,30.336,96.409,22.356z"/>
				<path fill="#F0B864" d="M55.822,30.43c-3.829,10.224-4.029,21.684,0.394,32.364c4.424,10.68,12.668,18.641,22.606,23.164
					c3.829-10.224,4.029-21.684-0.394-32.364C74.004,42.913,65.76,34.951,55.822,30.43z"/>
				<path fill="#F0B864" d="M21.414,53.42c0.374,10.912,4.575,21.574,12.75,29.75s18.837,12.374,29.75,12.75
					c-0.374-10.912-4.575-21.574-12.75-29.75S32.327,53.794,21.414,53.42z"/>
				<path fill="#F0B864" d="M-1.576,87.828c4.523,9.938,12.484,18.182,23.164,22.606s22.139,4.223,32.364,0.394
					c-4.523-9.938-12.484-18.182-23.164-22.606C20.106,83.799,8.648,83.999-1.576,87.828z"/>
				<path fill="#F0B864" d="M-9.65,128.415c7.981,7.451,18.491,12.021,30.051,12.021s22.07-4.57,30.051-12.021
					c-7.981-7.451-18.491-12.021-30.051-12.021S-1.669,120.964-9.65,128.415z"/>
				<path fill="#F0B864" d="M-1.576,169.001c10.224,3.829,21.684,4.029,32.364-0.394c10.68-4.424,18.641-12.668,23.164-22.606
					c-10.224-3.829-21.684-4.029-32.364,0.394C10.908,150.82,2.945,159.065-1.576,169.001z"/>
				<path fill="#F0B864" d="M21.414,203.411c10.912-0.374,21.574-4.575,29.75-12.75c8.174-8.174,12.374-18.837,12.75-29.75
					c-10.912,0.374-21.574,4.575-29.75,12.75C25.989,181.835,21.789,192.499,21.414,203.411z"/>
				<path fill="#F0B864" d="M55.822,226.401c9.938-4.523,18.182-12.484,22.606-23.164s4.223-22.139,0.394-32.364
					c-9.938,4.523-18.182,12.484-22.606,23.164C51.794,204.717,51.993,216.176,55.822,226.401z"/>
				<path fill="#F0B864" d="M96.409,234.474c7.451-7.981,12.021-18.491,12.021-30.051s-4.57-22.07-12.021-30.051
					c-7.451,7.981-12.021,18.491-12.021,30.051C84.388,215.983,88.958,226.493,96.409,234.474z"/>
				<path fill="#F0B864" d="M136.996,226.401c3.829-10.224,4.029-21.684-0.394-32.364c-4.424-10.68-12.668-18.641-22.606-23.164
					c-3.829,10.224-4.029,21.684,0.394,32.364C118.814,213.918,127.06,221.879,136.996,226.401z"/>
				<path fill="#F0B864" d="M171.405,203.411c-0.374-10.912-4.575-21.574-12.75-29.75c-8.174-8.174-18.837-12.374-29.75-12.75
					c0.374,10.912,4.575,21.574,12.75,29.75C149.829,198.834,160.493,203.035,171.405,203.411z"/>
				<path fill="#F0B864" d="M194.396,169.001c-4.523-9.938-12.484-18.182-23.164-22.606c-10.68-4.424-22.139-4.223-32.364-0.394
					c4.523,9.938,12.484,18.182,23.164,22.606C172.712,173.032,184.17,172.831,194.396,169.001z"/>
				<path fill="#F0B864" d="M202.468,128.415c-7.981-7.451-18.491-12.021-30.051-12.021s-22.07,4.57-30.051,12.021
					c7.981,7.451,18.491,12.021,30.051,12.021S194.487,135.866,202.468,128.415z"/>
				<path fill="#F0B864" d="M194.396,87.828c-10.224-3.829-21.684-4.029-32.364,0.394c-10.68,4.424-18.641,12.668-23.164,22.606
					c10.224,3.829,21.684,4.029,32.364-0.394C181.912,106.01,189.873,97.766,194.396,87.828z"/>
				<path fill="#F0B864" d="M171.405,53.42c-10.912,0.374-21.574,4.575-29.75,12.75c-8.174,8.174-12.374,18.837-12.75,29.75
					c10.912-0.374,21.574-4.575,29.75-12.75C166.829,74.994,171.029,64.332,171.405,53.42z"/>
				<path fill="#F0B864" d="M136.996,30.43c-9.938,4.523-18.182,12.484-22.606,23.164s-4.223,22.139-0.394,32.364
					c9.938-4.523,18.182-12.484,22.606-23.164C141.026,52.112,140.825,40.654,136.996,30.43z"/>
			</g>
		</g>
	</g>
</g>
<g id="Isolation_Mode">
	<g>
		<path fill="#8E6C22" d="M213.929,62.184c3.624,2.109,8.277,0.875,10.387-2.75c2.11-3.625,0.88-8.274-2.743-10.384
			c-3.617-2.105-8.274-0.882-10.384,2.743S210.311,60.079,213.929,62.184"/>
		<path fill="#8E6C22" d="M210.773,66.091l-1.355-0.789c-5.031,8.643-16.115,11.594-24.752,6.567
			c-8.635-5.026-11.491-16.097-6.46-24.74l-4.168-2.426c-5.031,8.643-16.123,11.596-24.753,6.573
			c-8.632-5.024-11.468-16.136-6.445-24.767l-4.221-2.404c-5.031,8.643-16.111,11.586-24.747,6.559s-11.501-16.14-6.478-24.771
			l-4.492-2.683L85.001,33.965l110.684,64.422l17.859-30.683l-4.126-2.402"/>
		<path fill="#8E6C22" d="M107.682,0.345c3.631,2.114,8.277,0.875,10.387-2.75s0.887-8.271-2.743-10.384
			c-3.624-2.109-8.274-0.882-10.384,2.743S104.059-1.765,107.682,0.345"/>
		<path fill="#8E6C22" d="M143.386,21.126c3.631,2.114,8.284,0.879,10.394-2.746c2.11-3.625,0.882-8.274-2.75-10.387
			c-3.624-2.109-8.267-0.878-10.377,2.747C138.543,14.364,139.762,19.017,143.386,21.126"/>
		<path fill="#8E6C22" d="M178.692,41.675c3.624,2.109,8.277,0.875,10.387-2.75c2.11-3.625,0.88-8.274-2.743-10.384
			c-3.632-2.114-8.281-0.886-10.391,2.739C173.835,34.906,175.059,39.561,178.692,41.675"/>
	</g>
</g>
</svg>
