<?xml version="1.0" encoding="utf-8"?>
<!-- Generator: Adobe Illustrator 17.0.0, SVG Export Plug-In . SVG Version: 6.00 Build 0)  -->
<!DOCTYPE svg PUBLIC "-//W3C//DTD SVG 1.1//EN" "http://www.w3.org/Graphics/SVG/1.1/DTD/svg11.dtd">
<svg version="1.1" id="Layer_4" xmlns="http://www.w3.org/2000/svg" xmlns:xlink="http://www.w3.org/1999/xlink" x="0px" y="0px"
	 width="599.998px" height="502.805px" viewBox="0 0 599.998 502.805" enable-background="new 0 0 599.998 502.805"
	 xml:space="preserve">

<g style="filter:url(#dropshadow)">
	
		<text transform="matrix(1.1446 0 0 1 -4.959106e-04 352.6357)" fill="#447394" font-family="'TrajanPro-Regular'" font-size="127.6384" letter-spacing="1.747">K</text>
	<text transform="matrix(1.1446 0 0 1 113.5186 352.6357)" fill="#447394" font-family="'TrajanPro-Regular'" font-size="127.6384">A</text>
	
		<text transform="matrix(1.0301 0 0 1 215.7872 352.6357)" fill="#447394" font-family="'TrajanPro-Regular'" font-size="127.6384" letter-spacing="-7.766">N</text>
	<text transform="matrix(1.1446 0 0 1 330.4453 352.6357)" fill="#447394" font-family="'TrajanPro-Regular'" font-size="127.6384">SAS</text>
	
		<text transform="matrix(1 0 0 1 62.6945 472.0518)" fill="#447394" font-family="'TrajanPro-Regular'" font-size="120.1303" letter-spacing="-2">s</text>
	
		<text transform="matrix(0.9 0 0 1 122.6377 472.0517)" fill="#447394" font-family="'TrajanPro-Regular'" font-size="120.1303" letter-spacing="-1.111">oc</text>
	<text transform="matrix(1 0 0 1 281.1368 472.0518)" fill="#447394" font-family="'TrajanPro-Regular'" font-size="120.1303">ie</text>
	
		<text transform="matrix(1 0 0 1 394.0577 472.0518)" fill="#447394" font-family="'TrajanPro-Regular'" font-size="120.1303" letter-spacing="2">t</text>
	<text transform="matrix(1 0 0 1 470.339 472.0518)" fill="#447394" font-family="'TrajanPro-Regular'" font-size="120.1303">y</text>
	<g>
		<path fill="#FFFFFF" d="M303.337,0c-7.756,8.308-12.514,19.25-12.514,31.284s4.757,22.976,12.514,31.284
			c7.756-8.308,12.513-19.25,12.513-31.284S311.093,8.308,303.337,0z"/>
		<path fill="#FFFFFF" d="M261.085,8.404c-3.986,10.644-4.195,22.573,0.411,33.691c4.605,11.118,13.188,19.406,23.533,24.114
			c3.986-10.644,4.194-22.573-0.411-33.691S271.43,13.112,261.085,8.404z"/>
		<path fill="#0000FF" d="M225.265,32.338c0.391,11.359,4.763,22.46,13.273,30.97s19.61,12.882,30.97,13.273
			c-0.391-11.359-4.763-22.46-13.273-30.969C247.725,37.102,236.624,32.729,225.265,32.338z"/>
		<path fill="#0000FF" d="M201.331,68.158c4.708,10.345,12.996,18.928,24.114,23.533s23.047,4.397,33.691,0.411
			c-4.708-10.345-12.996-18.927-24.114-23.533S211.975,64.172,201.331,68.158z"/>
		<path fill="#0000FF" d="M192.926,110.41c8.308,7.756,19.25,12.514,31.284,12.514s22.976-4.758,31.284-12.514
			c-8.308-7.756-19.25-12.513-31.284-12.513S201.235,102.654,192.926,110.41z"/>
		<path fill="#0000FF" d="M201.331,152.662c10.644,3.986,22.573,4.195,33.691-0.411c11.118-4.605,19.406-13.188,24.114-23.533
			c-10.644-3.986-22.573-4.194-33.691,0.411C214.326,133.735,206.039,142.317,201.331,152.662z"/>
		<path fill="#0000FF" d="M225.265,188.482c11.359-0.391,22.46-4.763,30.97-13.273c8.51-8.51,12.882-19.61,13.273-30.97
			c-11.359,0.391-22.46,4.763-30.969,13.273C230.028,166.022,225.655,177.123,225.265,188.482z"/>
		<path fill="#FFFFFF" d="M261.084,212.416c10.345-4.708,18.928-12.996,23.533-24.114s4.397-23.047,0.411-33.691
			c-10.345,4.708-18.927,12.996-23.533,24.114C256.89,189.843,257.098,201.772,261.084,212.416z"/>
		<path fill="#FFFFFF" d="M303.337,220.821c7.756-8.308,12.514-19.25,12.514-31.284s-4.758-22.976-12.514-31.284
			c-7.756,8.308-12.513,19.25-12.513,31.284S295.58,212.512,303.337,220.821z"/>
		<path fill="#FFFFFF" d="M345.589,212.416c3.986-10.644,4.195-22.573-0.411-33.691s-13.188-19.406-23.533-24.114
			c-3.986,10.644-4.194,22.573,0.411,33.691S335.243,207.708,345.589,212.416z"/>
		<path fill="#FF0000" d="M381.408,188.482c-0.391-11.359-4.763-22.46-13.273-30.97c-8.51-8.51-19.61-12.882-30.97-13.273
			c0.39,11.359,4.763,22.46,13.273,30.969C358.949,183.719,370.049,188.092,381.408,188.482z"/>
		<path fill="#FF0000" d="M405.342,152.663c-4.708-10.345-12.996-18.928-24.114-23.533c-11.118-4.605-23.047-4.397-33.691-0.411
			c4.708,10.345,12.996,18.927,24.114,23.533C382.769,156.857,394.698,156.649,405.342,152.663z"/>
		<path fill="#FF0000" d="M413.747,110.41c-8.308-7.756-19.25-12.514-31.284-12.514s-22.976,4.758-31.284,12.514
			c8.308,7.756,19.25,12.513,31.284,12.513S405.439,118.166,413.747,110.41z"/>
		<path fill="#FF0000" d="M405.342,68.158c-10.644-3.986-22.573-4.195-33.691,0.411c-11.118,4.605-19.406,13.188-24.114,23.533
			c10.644,3.986,22.573,4.194,33.691-0.411C392.347,87.086,400.635,78.503,405.342,68.158z"/>
		<path fill="#FF0000" d="M381.409,32.338c-11.359,0.39-22.46,4.763-30.97,13.273s-12.882,19.61-13.273,30.97
			c11.359-0.391,22.46-4.763,30.969-13.273S381.018,43.698,381.409,32.338z"/>
		<path fill="#FFFFFF" d="M345.589,8.405c-10.345,4.708-18.928,12.996-23.533,24.114c-4.605,11.118-4.397,23.047-0.411,33.691
			c10.345-4.708,18.927-12.996,23.533-24.114S349.575,19.049,345.589,8.405z"/>
	</g>
</g>
		<filter id="dropshadow" height="130%"> <!-- Logo Shadow filter -->
			<feGaussianBlur in="SourceAlpha" stdDeviation="2"/> <!-- stdDeviation is how much to blur -->
			<feOffset dx="-2" dy="1" result="offsetblur"/> <!-- how much to offset -->
		  <feComponentTransfer>
	        <feFuncA type="linear" slope="0.4"/>
	      </feComponentTransfer>
			<feMerge> 
				<feMergeNode/> <!-- this contains the offset blurred image -->
				<feMergeNode in="SourceGraphic"/> <!-- this contains the element that the filter is applied to -->
			</feMerge>
		</filter>
</svg>
