<?xml version="1.0" encoding="utf-8"?>
<!-- Generator: Adobe Illustrator 17.0.0, SVG Export Plug-In . SVG Version: 6.00 Build 0)  -->
<!DOCTYPE svg PUBLIC "-//W3C//DTD SVG 1.1//EN" "http://www.w3.org/Graphics/SVG/1.1/DTD/svg11.dtd">
<svg version="1.1" id="Layer_1" xmlns="http://www.w3.org/2000/svg" xmlns:xlink="http://www.w3.org/1999/xlink" x="0px" y="0px"
	 width="129.732px" height="129.732px" viewBox="0 0 129.732 129.732" enable-background="new 0 0 129.732 129.732"
	 xml:space="preserve">
<g id="Layer_1_1_">
</g>
<g id="Isolation_Mode">
	<g>
		<path fill="#447394" d="M64.866,0c-4.557,4.881-7.352,11.309-7.352,18.379s2.795,13.498,7.352,18.379
			c4.557-4.881,7.352-11.309,7.352-18.379S69.423,4.881,64.866,0z"/>
		<path fill="#447394" d="M40.043,4.938c-2.342,6.253-2.464,13.262,0.241,19.794c2.706,6.532,7.748,11.401,13.826,14.167
			c2.342-6.253,2.464-13.262-0.241-19.794C51.163,12.573,46.121,7.703,40.043,4.938z"/>
		<path fill="#447394" d="M18.999,18.999c0.229,6.674,2.798,13.195,7.798,18.195s11.521,7.568,18.195,7.798
			c-0.229-6.674-2.798-13.195-7.798-18.195S25.673,19.228,18.999,18.999z"/>
		<path fill="#447394" d="M4.938,40.043c2.766,6.078,7.635,11.12,14.167,13.826s13.54,2.583,19.794,0.241
			c-2.766-6.078-7.635-11.12-14.167-13.826C18.199,37.579,11.191,37.701,4.938,40.043z"/>
		<path fill="#447394" d="M0,64.866c4.881,4.557,11.309,7.352,18.379,7.352s13.498-2.795,18.379-7.352
			c-4.881-4.557-11.309-7.352-18.379-7.352S4.881,60.309,0,64.866z"/>
		<path fill="#447394" d="M4.938,89.689c6.253,2.342,13.262,2.464,19.794-0.241c6.532-2.706,11.401-7.748,14.167-13.826
			c-6.253-2.342-13.262-2.464-19.794,0.241C12.573,78.569,7.703,83.612,4.938,89.689z"/>
		<path fill="#447394" d="M18.999,110.734c6.674-0.229,13.195-2.798,18.195-7.798c4.999-4.999,7.568-11.521,7.798-18.195
			c-6.674,0.229-13.195,2.798-18.195,7.798C21.797,97.538,19.228,104.06,18.999,110.734z"/>
		<path fill="#447394" d="M40.043,124.795c6.078-2.766,11.12-7.635,13.826-14.167s2.583-13.54,0.241-19.794
			c-6.078,2.766-11.12,7.635-13.826,14.167C37.579,111.533,37.701,118.541,40.043,124.795z"/>
		<path fill="#447394" d="M64.866,129.732c4.557-4.881,7.352-11.309,7.352-18.379s-2.795-13.498-7.352-18.379
			c-4.557,4.881-7.352,11.309-7.352,18.379S60.309,124.851,64.866,129.732z"/>
		<path fill="#447394" d="M89.689,124.795c2.342-6.253,2.464-13.262-0.241-19.794C86.742,98.469,81.7,93.6,75.622,90.834
			c-2.342,6.253-2.464,13.262,0.241,19.794C78.569,117.16,83.612,122.029,89.689,124.795z"/>
		<path fill="#447394" d="M110.734,110.734c-0.229-6.674-2.798-13.195-7.798-18.195c-4.999-4.999-11.521-7.568-18.195-7.798
			c0.229,6.674,2.798,13.195,7.798,18.195C97.538,107.935,104.06,110.504,110.734,110.734z"/>
		<path fill="#447394" d="M124.795,89.689c-2.766-6.078-7.635-11.12-14.167-13.826c-6.532-2.706-13.54-2.583-19.794-0.241
			c2.766,6.078,7.635,11.12,14.167,13.826C111.533,92.154,118.541,92.031,124.795,89.689z"/>
		<path fill="#447394" d="M129.732,64.866c-4.881-4.557-11.309-7.352-18.379-7.352s-13.498,2.795-18.379,7.352
			c4.881,4.557,11.309,7.352,18.379,7.352S124.851,69.423,129.732,64.866z"/>
		<path fill="#447394" d="M124.795,40.043c-6.253-2.342-13.262-2.464-19.794,0.241C98.469,42.99,93.6,48.032,90.834,54.11
			c6.253,2.342,13.262,2.464,19.794-0.241C117.16,51.163,122.029,46.121,124.795,40.043z"/>
		<path fill="#447394" d="M110.734,18.999c-6.674,0.229-13.195,2.798-18.195,7.798c-4.999,4.999-7.568,11.521-7.798,18.195
			c6.674-0.229,13.195-2.798,18.195-7.798C107.935,32.194,110.504,25.673,110.734,18.999z"/>
		<path fill="#447394" d="M89.689,4.938c-6.078,2.766-11.12,7.635-13.826,14.167c-2.706,6.532-2.583,13.54-0.241,19.794
			c6.078-2.766,11.12-7.635,13.826-14.167C92.154,18.199,92.031,11.191,89.689,4.938z"/>
	</g>
</g>
</svg>
