<?xml version="1.0" encoding="utf-8"?>
<!-- Generator: Adobe Illustrator 17.0.0, SVG Export Plug-In . SVG Version: 6.00 Build 0)  -->
<!DOCTYPE svg PUBLIC "-//W3C//DTD SVG 1.1//EN" "http://www.w3.org/Graphics/SVG/1.1/DTD/svg11.dtd">
<svg version="1.1" xmlns="http://www.w3.org/2000/svg" xmlns:xlink="http://www.w3.org/1999/xlink" x="0px" y="0px"
	 width="599.998px" height="550px" viewBox="0 -23.598 599.998 550" enable-background="new 0 -23.598 599.998 550"
	 xml:space="preserve">
<g id="Layer_4">
	<g>
		
			<text transform="matrix(1.1446 0 0 1 -4.959106e-04 372.6357)" fill="#447394" font-family="'TrajanPro-Regular'" font-size="127.6384" letter-spacing="1.747">K</text>
		
			<text transform="matrix(1.1446 0 0 1 113.5186 372.6357)" fill="#447394" font-family="'TrajanPro-Regular'" font-size="127.6384">A</text>
		
			<text transform="matrix(1.0301 0 0 1 215.7872 372.6357)" fill="#447394" font-family="'TrajanPro-Regular'" font-size="127.6384" letter-spacing="-7.766">N</text>
		
			<text transform="matrix(1.1446 0 0 1 330.4453 372.6357)" fill="#447394" font-family="'TrajanPro-Regular'" font-size="127.6384">SAS</text>
		
			<text transform="matrix(1 0 0 1 62.6945 492.0518)" fill="#447394" font-family="'TrajanPro-Regular'" font-size="120.1303" letter-spacing="-2">s</text>
		
			<text transform="matrix(0.9 0 0 1 122.6377 492.0517)" fill="#447394" font-family="'TrajanPro-Regular'" font-size="120.1303" letter-spacing="-1.111">oc</text>
		<text transform="matrix(1 0 0 1 281.1368 492.0518)" fill="#447394" font-family="'TrajanPro-Regular'" font-size="120.1303">ie</text>
		
			<text transform="matrix(1 0 0 1 394.0577 492.0518)" fill="#447394" font-family="'TrajanPro-Regular'" font-size="120.1303" letter-spacing="2">t</text>
		<text transform="matrix(1 0 0 1 470.339 492.0518)" fill="#447394" font-family="'TrajanPro-Regular'" font-size="120.1303">y</text>
		<g>
			<path fill="#F0B864" d="M303.337,20c-7.756,8.308-12.514,19.25-12.514,31.284s4.757,22.976,12.514,31.284
				c7.756-8.308,12.513-19.25,12.513-31.284S311.093,28.308,303.337,20z"/>
			<path fill="#F0B864" d="M261.085,28.404c-3.986,10.644-4.195,22.573,0.411,33.691c4.605,11.118,13.188,19.406,23.533,24.114
				c3.986-10.644,4.194-22.573-0.411-33.691S271.43,33.112,261.085,28.404z"/>
			<path fill="#F0B864" d="M225.265,52.338c0.391,11.359,4.763,22.46,13.273,30.97s19.61,12.882,30.97,13.273
				c-0.391-11.359-4.763-22.46-13.273-30.969C247.725,57.102,236.624,52.729,225.265,52.338z"/>
			<path fill="#F0B864" d="M201.331,88.158c4.708,10.345,12.996,18.928,24.114,23.533s23.047,4.397,33.691,0.411
				c-4.708-10.345-12.996-18.927-24.114-23.533S211.975,84.172,201.331,88.158z"/>
			<path fill="#F0B864" d="M192.926,130.41c8.308,7.756,19.25,12.514,31.284,12.514s22.976-4.758,31.284-12.514
				c-8.308-7.756-19.25-12.513-31.284-12.513S201.235,122.654,192.926,130.41z"/>
			<path fill="#F0B864" d="M201.331,172.662c10.644,3.986,22.573,4.195,33.691-0.411c11.118-4.605,19.406-13.188,24.114-23.533
				c-10.644-3.986-22.573-4.194-33.691,0.411C214.326,153.735,206.039,162.317,201.331,172.662z"/>
			<path fill="#F0B864" d="M225.265,208.482c11.359-0.391,22.46-4.763,30.97-13.273c8.51-8.51,12.882-19.61,13.273-30.97
				c-11.359,0.391-22.46,4.763-30.969,13.273C230.028,186.022,225.655,197.123,225.265,208.482z"/>
			<path fill="#F0B864" d="M261.084,232.416c10.345-4.708,18.928-12.996,23.533-24.114s4.397-23.047,0.411-33.691
				c-10.345,4.708-18.927,12.996-23.533,24.114C256.89,209.843,257.098,221.772,261.084,232.416z"/>
			<path fill="#F0B864" d="M303.337,240.821c7.756-8.308,12.514-19.25,12.514-31.284s-4.758-22.976-12.514-31.284
				c-7.756,8.308-12.513,19.25-12.513,31.284S295.58,232.512,303.337,240.821z"/>
			<path fill="#F0B864" d="M345.589,232.416c3.986-10.644,4.195-22.573-0.411-33.691s-13.188-19.406-23.533-24.114
				c-3.986,10.644-4.194,22.573,0.411,33.691S335.243,227.708,345.589,232.416z"/>
			<path fill="#F0B864" d="M381.408,208.482c-0.391-11.359-4.763-22.46-13.273-30.97c-8.51-8.51-19.61-12.882-30.97-13.273
				c0.39,11.359,4.763,22.46,13.273,30.969C358.949,203.719,370.049,208.092,381.408,208.482z"/>
			<path fill="#F0B864" d="M405.342,172.663c-4.708-10.345-12.996-18.928-24.114-23.533c-11.118-4.605-23.047-4.397-33.691-0.411
				c4.708,10.345,12.996,18.927,24.114,23.533C382.769,176.857,394.698,176.649,405.342,172.663z"/>
			<path fill="#F0B864" d="M413.747,130.41c-8.308-7.756-19.25-12.514-31.284-12.514s-22.976,4.758-31.284,12.514
				c8.308,7.756,19.25,12.513,31.284,12.513S405.439,138.166,413.747,130.41z"/>
			<path fill="#F0B864" d="M405.342,88.158c-10.644-3.986-22.573-4.195-33.691,0.411c-11.118,4.605-19.406,13.188-24.114,23.533
				c10.644,3.986,22.573,4.194,33.691-0.411C392.347,107.086,400.635,98.503,405.342,88.158z"/>
			<path fill="#F0B864" d="M381.409,52.338c-11.359,0.39-22.46,4.763-30.97,13.273s-12.882,19.61-13.273,30.97
				c11.359-0.391,22.46-4.763,30.969-13.273S381.018,63.698,381.409,52.338z"/>
			<path fill="#F0B864" d="M345.589,28.405c-10.345,4.708-18.928,12.996-23.533,24.114c-4.605,11.118-4.397,23.047-0.411,33.691
				c10.345-4.708,18.927-12.996,23.533-24.114S349.575,39.049,345.589,28.405z"/>
		</g>
	</g>
</g>
<g id="Isolation_Mode">
	<g>
		<path fill="#8E6C22" d="M427.885,56.057c3.831,2.136,8.675,0.756,10.812-3.077s0.761-8.672-3.07-10.808
			c-3.824-2.132-8.671-0.762-10.808,3.07S424.061,53.924,427.885,56.057"/>
		<path fill="#8E6C22" d="M424.66,60.204l-1.433-0.799c-5.095,9.137-16.632,12.438-25.763,7.347
			c-9.129-5.09-12.33-16.616-7.235-25.753l-4.406-2.457c-5.095,9.137-16.64,12.44-25.764,7.353
			c-9.125-5.088-12.307-16.657-7.22-25.781l-4.461-2.433c-5.095,9.137-16.628,12.43-25.758,7.339
			c-9.131-5.091-12.342-16.66-7.254-25.785l-4.75-2.72l-18.13,32.515l117.017,65.247l18.088-32.439l-4.362-2.432"/>
		<path fill="#8E6C22" d="M315.559-6.575c3.839,2.141,8.675,0.756,10.812-3.077s0.768-8.668-3.07-10.808
			c-3.831-2.136-8.671-0.762-10.808,3.07S311.728-8.711,315.559-6.575"/>
		<path fill="#8E6C22" d="M353.306,14.472c3.839,2.141,8.682,0.76,10.818-3.073s0.762-8.671-3.077-10.812
			c-3.831-2.136-8.665-0.759-10.801,3.074S349.475,12.336,353.306,14.472"/>
		<path fill="#8E6C22" d="M390.632,35.285c3.831,2.136,8.675,0.756,10.812-3.077s0.761-8.672-3.07-10.808
			c-3.84-2.141-8.679-0.767-10.816,3.065S386.792,33.144,390.632,35.285"/>
	</g>
</g>
</svg>
