<?xml version="1.0" encoding="utf-8"?>
<!-- Generator: Adobe Illustrator 17.0.0, SVG Export Plug-In . SVG Version: 6.00 Build 0)  -->
<!DOCTYPE svg PUBLIC "-//W3C//DTD SVG 1.1//EN" "http://www.w3.org/Graphics/SVG/1.1/DTD/svg11.dtd">
<svg version="1.1" id="Layer_1" xmlns="http://www.w3.org/2000/svg" xmlns:xlink="http://www.w3.org/1999/xlink" x="0px" y="0px"
	 width="212.118px" height="250.25px" viewBox="0 0 212.118 250.25" enable-background="new 0 0 212.118 250.25"
	 xml:space="preserve">
<g id="Layer_1_1_">
</g>
<g id="Layer_4" style="filter:url(#dropshadow)">
	<g>
		<text transform="matrix(1 0 0 1 12.1365 245.6937)" fill="#447394" font-family="'Futura-Medium'" font-size="16.3505">WASHINGTON, D.C.</text>
		
			<text transform="matrix(1 0 0 1 12.1365 245.6937)" fill="none" stroke="#447394" stroke-width="0.5" stroke-miterlimit="10" font-family="'Futura-Medium'" font-size="16.3505">WASHINGTON, D.C.</text>
		<text transform="matrix(1.0221 0 0 1 76.6367 122.9194)" fill="#447394" font-family="'TrajanPro-Regular'" font-size="43.0276">K</text>
		<text transform="matrix(1.1244 0 0 1 108.6099 122.9194)" fill="#447394" font-family="'TrajanPro-Regular'" font-size="43.0276">S</text>
		<g>
			<path fill="#FFFFFF" d="M106.409,0.413c-7.451,7.981-12.021,18.491-12.021,30.051s4.57,22.07,12.021,30.051
				c7.451-7.981,12.021-18.491,12.021-30.051S113.86,8.393,106.409,0.413z"/>
			<path fill="#FFFFFF" d="M65.822,8.487c-3.829,10.224-4.029,21.684,0.394,32.364c4.424,10.68,12.668,18.641,22.606,23.164
				c3.829-10.224,4.029-21.684-0.394-32.364C84.004,20.97,75.76,13.008,65.822,8.487z"/>
			<path fill="#0000FF" d="M31.414,31.477c0.374,10.912,4.575,21.574,12.75,29.75s18.837,12.374,29.75,12.75
				c-0.374-10.912-4.575-21.574-12.75-29.75S42.327,31.851,31.414,31.477z"/>
			<path fill="#0000FF" d="M8.424,65.885c4.523,9.938,12.484,18.182,23.164,22.606s22.139,4.223,32.364,0.394
				c-4.523-9.938-12.484-18.182-23.164-22.606C30.106,61.856,18.648,62.056,8.424,65.885z"/>
			<path fill="#0000FF" d="M0.35,106.472c7.981,7.451,18.491,12.021,30.051,12.021s22.07-4.57,30.051-12.021
				c-7.981-7.451-18.491-12.021-30.051-12.021S8.331,99.021,0.35,106.472z"/>
			<path fill="#0000FF" d="M8.424,147.058c10.224,3.829,21.684,4.029,32.364-0.394c10.68-4.424,18.641-12.668,23.164-22.606
				c-10.224-3.829-21.684-4.029-32.364,0.394C20.908,128.877,12.945,137.122,8.424,147.058z"/>
			<path fill="#0000FF" d="M31.414,181.468c10.912-0.374,21.574-4.575,29.75-12.75c8.174-8.174,12.374-18.837,12.75-29.75
				c-10.912,0.374-21.574,4.575-29.75,12.75C35.989,159.892,31.789,170.556,31.414,181.468z"/>
			<path fill="#FFFFFF" d="M65.822,204.458c9.938-4.523,18.182-12.484,22.606-23.164s4.223-22.139,0.394-32.364
				c-9.938,4.523-18.182,12.484-22.606,23.164C61.794,182.774,61.993,194.233,65.822,204.458z"/>
			<path fill="#FFFFFF" d="M106.409,212.531c7.451-7.981,12.021-18.491,12.021-30.051s-4.57-22.07-12.021-30.051
				c-7.451,7.981-12.021,18.491-12.021,30.051C94.388,194.04,98.958,204.55,106.409,212.531z"/>
			<path fill="#FFFFFF" d="M146.996,204.458c3.829-10.224,4.029-21.684-0.394-32.364c-4.424-10.68-12.668-18.641-22.606-23.164
				c-3.829,10.224-4.029,21.684,0.394,32.364C128.814,191.975,137.06,199.936,146.996,204.458z"/>
			<path fill="#FF0000" d="M181.405,181.468c-0.374-10.912-4.575-21.574-12.75-29.75c-8.174-8.174-18.837-12.374-29.75-12.75
				c0.374,10.912,4.575,21.574,12.75,29.75C159.829,176.891,170.493,181.092,181.405,181.468z"/>
			<path fill="#FF0000" d="M204.396,147.058c-4.523-9.938-12.484-18.182-23.164-22.606c-10.68-4.424-22.139-4.223-32.364-0.394
				c4.523,9.938,12.484,18.182,23.164,22.606C182.712,151.089,194.17,150.888,204.396,147.058z"/>
			<path fill="#FF0000" d="M212.468,106.472c-7.981-7.451-18.491-12.021-30.051-12.021s-22.07,4.57-30.051,12.021
				c7.981,7.451,18.491,12.021,30.051,12.021S204.487,113.923,212.468,106.472z"/>
			<path fill="#FF0000" d="M204.396,65.885c-10.224-3.829-21.684-4.029-32.364,0.394c-10.68,4.424-18.641,12.668-23.164,22.606
				c10.224,3.829,21.684,4.029,32.364-0.394C191.912,84.067,199.873,75.823,204.396,65.885z"/>
			<path fill="#FF0000" d="M181.405,31.477c-10.912,0.374-21.574,4.575-29.75,12.75c-8.174,8.174-12.374,18.837-12.75,29.75
				c10.912-0.374,21.574-4.575,29.75-12.75C176.829,53.051,181.029,42.389,181.405,31.477z"/>
			<path fill="#FFFFFF" d="M146.996,8.487c-9.938,4.523-18.182,12.484-22.606,23.164s-4.223,22.139-0.394,32.364
				c9.938-4.523,18.182-12.484,22.606-23.164C151.026,30.169,150.825,18.711,146.996,8.487z"/>
		</g>
	</g>
</g>
		<filter id="dropshadow" height="130%"> <!-- Logo Shadow filter -->
			<feGaussianBlur in="SourceAlpha" stdDeviation="2"/> <!-- stdDeviation is how much to blur -->
			<feOffset dx="-1" dy="1" result="offsetblur"/> <!-- how much to offset -->
		  <feComponentTransfer>
	        <feFuncA type="linear" slope="0.4"/>
	      </feComponentTransfer>
			<feMerge> 
				<feMergeNode/> <!-- this contains the offset blurred image -->
				<feMergeNode in="SourceGraphic"/> <!-- this contains the element that the filter is applied to -->
			</feMerge>
		</filter>
</svg>
