<?xml version="1.0" encoding="utf-8"?>
<!-- Generator: Adobe Illustrator 17.0.0, SVG Export Plug-In . SVG Version: 6.00 Build 0)  -->
<!DOCTYPE svg PUBLIC "-//W3C//DTD SVG 1.1//EN" "http://www.w3.org/Graphics/SVG/1.1/DTD/svg11.dtd">
<svg version="1.1" id="Livello_1" xmlns="http://www.w3.org/2000/svg" xmlns:xlink="http://www.w3.org/1999/xlink" x="0px" y="0px"
	 width="250px" height="250px" viewBox="0 0 250 250" enable-background="new 0 0 250 250" xml:space="preserve">
<rect x="2.5" y="2.501" fill-rule="evenodd" clip-rule="evenodd" fill="#F1E628" width="245" height="244.999"/>
<g>
	<path fill="#030202" d="M16.558,125.839l6.298-34.534h7.313l6.205,34.534h-5.675l-0.992-7.474h-6.436l-1.13,7.474H16.558z
		 M24.171,112.989h4.682l-2.421-16.057L24.171,112.989z"/>
	<path fill="#030202" d="M39.345,125.839V91.304h7.659l3.922,18.224c0.153,0.708,0.295,1.715,0.426,3.022
		c0.13,1.308,0.258,2.869,0.381,4.683c0.03-1.723,0.103-3.26,0.219-4.614c0.115-1.353,0.257-2.414,0.427-3.183l3.967-18.132h7.568
		v34.534h-5.329l0.047-22.308c0-0.276,0.034-1.026,0.103-2.249c0.07-1.223,0.173-2.942,0.312-5.156
		c-0.139,0.8-0.309,1.738-0.508,2.815c-0.2,1.077-0.485,2.546-0.853,4.406l-4.591,22.493h-2.975l-4.591-22.493
		c-0.368-1.86-0.653-3.329-0.853-4.406c-0.201-1.077-0.37-2.015-0.509-2.815c0.139,2.214,0.243,3.933,0.312,5.156
		c0.069,1.223,0.104,1.972,0.104,2.249l0.045,22.308H39.345z"/>
	<path fill="#030202" d="M67.883,125.839V91.304h5.283l6.713,18.432c0.276,0.769,0.546,1.683,0.808,2.745
		c0.261,1.061,0.514,2.222,0.761,3.482h0.184c-0.245-1.445-0.434-2.76-0.564-3.944c-0.131-1.184-0.196-2.199-0.196-3.046v-17.67
		h5.052v34.534h-4.821l-7.175-19.886c-0.368-1.015-0.684-2.03-0.945-3.045c-0.262-1.016-0.469-2.03-0.623-3.046h-0.184
		c0.261,1.247,0.453,2.511,0.576,3.795c0.123,1.285,0.184,2.619,0.184,4.003v18.179H67.883z"/>
	<path fill="#030202" d="M90.129,125.839V91.304h15.826v5.375H95.897v8.651h7.705v5.444h-7.705v9.619h10.682v5.444H90.129z"/>
	<path fill="#030202" d="M108.947,116.819l5.375-0.808c0.292,1.769,0.754,3.084,1.383,3.945c0.632,0.861,1.462,1.291,2.493,1.291
		c1.029,0,1.845-0.311,2.445-0.934c0.6-0.622,0.9-1.456,0.9-2.502c0-1.846-2.053-4.606-6.161-8.282
		c-0.629-0.568-1.105-1.007-1.428-1.315c-1.371-1.245-2.424-2.645-3.16-4.199c-0.739-1.553-1.108-3.145-1.108-4.774
		c0-2.476,0.806-4.507,2.424-6.09c1.613-1.584,3.675-2.377,6.18-2.377c2.354,0,4.254,0.708,5.699,2.122
		c1.445,1.415,2.338,3.438,2.675,6.068l-5.259,0.808c-0.184-1.369-0.562-2.414-1.129-3.138c-0.569-0.723-1.292-1.084-2.17-1.084
		c-0.907,0-1.636,0.319-2.192,0.957c-0.553,0.639-0.83,1.474-0.83,2.504c0,0.922,0.254,1.81,0.761,2.664
		c0.507,0.854,1.622,2.073,3.345,3.657c0.246,0.23,0.615,0.577,1.108,1.037c4.522,4.123,6.783,7.844,6.783,11.166
		c0,2.584-0.828,4.71-2.481,6.379c-1.653,1.669-3.785,2.503-6.4,2.503c-2.615,0-4.73-0.837-6.343-2.515
		C110.239,122.225,109.27,119.863,108.947,116.819z"/>
	<path fill="#030202" d="M134.778,125.839V96.54h-5.697v-5.236h17.231v5.236h-5.721v29.298H134.778z"/>
	<path fill="#030202" d="M157.178,125.839v-14.326l-6.783-20.209h5.745l3.23,10.773c0.153,0.539,0.292,1.212,0.414,2.019
		c0.124,0.808,0.215,1.733,0.277,2.78c0.108-1.184,0.22-2.184,0.335-2.999c0.115-0.816,0.242-1.431,0.38-1.846l3.254-10.727h5.721
		l-6.807,20.209v14.326H157.178z"/>
</g>
<g>
	<path fill="#030202" d="M15.756,156.283v-20.758h3.466v20.758H15.756z"/>
	<path fill="#030202" d="M22.827,156.283v-20.758h3.175l4.035,11.08c0.166,0.462,0.329,1.012,0.486,1.651
		c0.157,0.637,0.31,1.335,0.458,2.091h0.11c-0.147-0.866-0.261-1.658-0.34-2.369c-0.078-0.713-0.117-1.323-0.117-1.833v-10.621
		h3.036v20.758h-2.898l-4.313-11.951c-0.222-0.612-0.412-1.22-0.568-1.833c-0.158-0.608-0.282-1.22-0.375-1.83h-0.111
		c0.157,0.749,0.273,1.51,0.347,2.28c0.074,0.775,0.11,1.574,0.11,2.407v10.927H22.827z"/>
	<path fill="#030202" d="M39.258,156.283v-17.612h-3.425v-3.146h10.359v3.146h-3.439v17.612H39.258z"/>
	<path fill="#030202" d="M48.382,156.283v-20.758h9.513v3.233h-6.046v5.199h4.631v3.271h-4.631v5.785h6.419v3.271H48.382z"/>
	<path fill="#030202" d="M72.15,156.283h-3.522l-2.497-8.625c-0.213,0.019-0.446,0.038-0.7,0.057
		c-0.255,0.017-0.501,0.026-0.742,0.026h-0.486v8.542H60.71v-20.758h4.603c1.341,0,2.346,0.086,3.016,0.256
		c0.671,0.172,1.265,0.455,1.783,0.854c0.628,0.49,1.121,1.175,1.476,2.06c0.356,0.88,0.534,1.859,0.534,2.931
		c0,1.256-0.238,2.347-0.713,3.266c-0.477,0.919-1.186,1.655-2.13,2.211L72.15,156.283z M64.204,144.858
		c0.102,0.019,0.206,0.029,0.312,0.034c0.106,0.005,0.266,0.007,0.478,0.007c1.293,0,2.213-0.261,2.759-0.782
		c0.545-0.524,0.818-1.4,0.818-2.63c0-1.108-0.263-1.916-0.791-2.419c-0.526-0.502-1.377-0.756-2.55-0.756
		c-0.203,0-0.513,0.014-0.93,0.043c-0.047,0.01-0.079,0.012-0.097,0.012V144.858z"/>
	<path fill="#030202" d="M75.158,156.283v-20.758h3.175l4.035,11.08c0.166,0.462,0.329,1.012,0.486,1.651
		c0.157,0.637,0.31,1.335,0.458,2.091h0.11c-0.147-0.866-0.261-1.658-0.34-2.369c-0.078-0.713-0.117-1.323-0.117-1.833v-10.621
		h3.036v20.758h-2.897l-4.312-11.951c-0.223-0.612-0.412-1.22-0.568-1.833c-0.158-0.608-0.282-1.22-0.374-1.83h-0.111
		c0.157,0.749,0.273,1.51,0.347,2.28c0.074,0.775,0.11,1.574,0.11,2.407v10.927H75.158z"/>
	<path fill="#030202" d="M88.013,156.283l3.785-20.758h4.395l3.73,20.758h-3.41l-0.596-4.491h-3.869l-0.68,4.491H88.013z
		 M92.589,148.56h2.815l-1.456-9.652L92.589,148.56z"/>
	<path fill="#030202" d="M103.155,156.283v-17.612h-3.425v-3.146h10.359v3.146h-3.439v17.612H103.155z"/>
	<path fill="#030202" d="M112.362,156.283v-20.758h3.467v20.758H112.362z"/>
	<path fill="#030202" d="M118.669,145.911c0-3.541,0.517-6.223,1.546-8.049c1.031-1.828,2.55-2.739,4.556-2.739
		c2.007,0,3.524,0.911,4.555,2.739c1.031,1.826,1.546,4.508,1.546,8.049c0,3.56-0.514,6.254-1.546,8.082
		c-1.031,1.833-2.548,2.747-4.555,2.747c-2.005,0-3.524-0.914-4.556-2.747C119.186,152.165,118.669,149.471,118.669,145.911z
		 M122.136,145.911c0,2.653,0.213,4.606,0.639,5.857c0.423,1.254,1.091,1.881,1.996,1.881c0.907,0,1.572-0.627,1.998-1.881
		c0.426-1.251,0.636-3.204,0.636-5.857c0-2.644-0.21-4.594-0.636-5.845c-0.426-1.251-1.091-1.878-1.998-1.878
		c-0.905,0-1.572,0.627-1.996,1.878C122.349,141.317,122.136,143.267,122.136,145.911z"/>
	<path fill="#030202" d="M133.632,156.283v-20.758h3.175l4.036,11.08c0.165,0.462,0.328,1.012,0.486,1.651
		c0.156,0.637,0.309,1.335,0.457,2.091h0.11c-0.148-0.866-0.261-1.658-0.34-2.369c-0.079-0.713-0.117-1.323-0.117-1.833v-10.621
		h3.036v20.758h-2.897l-4.314-11.951c-0.22-0.612-0.412-1.22-0.567-1.833c-0.158-0.608-0.282-1.22-0.376-1.83h-0.11
		c0.158,0.749,0.273,1.51,0.347,2.28c0.074,0.775,0.11,1.574,0.11,2.407v10.927H133.632z"/>
	<path fill="#030202" d="M146.485,156.283l3.785-20.758h4.398l3.73,20.758h-3.412l-0.596-4.491h-3.869l-0.68,4.491H146.485z
		 M151.062,148.56h2.814l-1.455-9.652L151.062,148.56z"/>
	<path fill="#030202" d="M160.324,156.283v-20.758h3.467v17.487h6.419v3.271H160.324z"/>
</g>
<path fill-rule="evenodd" clip-rule="evenodd" fill="#030202" d="M218.942,151.244c0.038,0.034-0.098,0.065-0.058,0.084
	c0.543,0.278,1.364,0.062,1.632-0.476l0.983-1.907l1.388,1.301c0.44,0.402,1.139,0.376,1.548-0.057
	c0.412-0.45,0.388-1.137-0.057-1.562l-0.646-0.596c3.565-0.933,6.061-1.718,7.623-2.249l-0.328,0.914
	c-0.203,0.565,0.088,1.196,0.663,1.4c0.562,0.203,1.191-0.098,1.397-0.663l0.725-2.01l1.545,1.103
	c0.49,0.342,1.173,0.237,1.527-0.263c0.349-0.49,0.237-1.175-0.254-1.519l-2.046-1.464l0.893-2.503
	c0.21-0.565-0.091-1.196-0.663-1.407c-0.565-0.196-1.192,0.098-1.4,0.66l-0.687,1.923l-1.4-0.998
	c-0.49-0.352-1.177-0.237-1.522,0.254c-0.354,0.49-0.244,1.177,0.256,1.519l1.093,0.795c-1.462,0.517-4.113,1.383-8.125,2.431
	l0.715-1.4c0.28-0.541,0.057-1.203-0.471-1.471c-0.541-0.28-1.203-0.067-1.479,0.474l-0.935,1.814l-1.251-1.168
	c-0.151-0.148-0.335-0.213-0.534-0.254c0.108-4.988,0.223-10.381,0.354-15.466c0.624-0.114,1.237-0.217,1.833-0.331l-0.596,1.26
	c-0.256,0.541-0.026,1.196,0.521,1.455c0.548,0.258,1.199,0.024,1.462-0.524l0.914-1.923l1.426,1.241
	c0.459,0.402,1.146,0.356,1.55-0.096c0.397-0.459,0.352-1.145-0.103-1.55l-0.883-0.772c1.861-0.453,3.426-0.944,4.579-1.468
	c2.57-1.178,3.933-2.687,4.07-4.487c0.012-0.145,0.012-0.29,0.002-0.435l1.768,0.605c0.574,0.195,1.194-0.112,1.39-0.676
	c0.196-0.581-0.105-1.202-0.68-1.397l-1.933-0.66l0.976-1.412c0.344-0.5,0.22-1.176-0.278-1.524c-0.5-0.34-1.177-0.219-1.519,0.277
	l-1.098,1.585c-0.998-1.238-2.381-2.315-3.656-3.14l-0.112-0.078c-1.031-0.669-2.168-1.398-3.534-2.125l1.345-0.989
	c0.486-0.354,0.589-1.043,0.23-1.531c-0.356-0.493-1.043-0.59-1.534-0.233l-1.637,1.208l-0.605-1.605
	c-0.213-0.568-0.842-0.855-1.412-0.64c-0.567,0.212-0.854,0.842-0.637,1.407l0.222,0.609c-0.289-0.104-0.603-0.202-0.907-0.303
	c0.656-2.656,1.457-5.903,1.024-7.447c-0.373-1.284-2.895-1.506-2.895-1.506h-2.06h-7.24c-1.084-1.632-0.572-1.955,0.277-3.993
	c0.919-2.199,2.199-3.114,5.316-6.594c0.49-0.556,4.72-5.774,4.72-5.774c1.017-1.595,1.692-3.206,1.692-4.856
	c0-7.511-7.147-11.726-7.147-11.726s-0.18,1.829-0.917,3.846c-0.737,2.015-4.943,3.85-8.429,5.314
	c-3.072,1.292-8.644,1.862-10.223,11.53c1.378,10.644,9.582,9.822,10.223,10.462c0.493,0.494,0.242,1.305,0.024,1.792h-9.587v7.954
	c-4.362,0.925-8.36,2.261-11.496,3.492l0.299-1.012c0.175-0.585-0.156-1.19-0.737-1.364c-0.581-0.173-1.194,0.157-1.361,0.738
	l-0.581,1.952l-1.445-0.916c-0.512-0.327-1.191-0.173-1.515,0.335c-0.323,0.517-0.177,1.19,0.34,1.516l0.816,0.517
	c-1.505,0.69-2.428,1.178-2.574,1.254c-0.534,0.282-0.737,0.949-0.457,1.48c0.285,0.532,0.947,0.743,1.479,0.452
	c0.041-0.012,0.883-0.456,2.306-1.104l-0.385,1.296c-0.17,0.576,0.156,1.188,0.737,1.361c0.581,0.173,1.194-0.158,1.359-0.739
	l0.612-2.048l1.603,1.013c0.514,0.326,1.191,0.172,1.514-0.343c0.321-0.508,0.17-1.186-0.34-1.508l-1.132-0.718
	c2.986-1.17,6.809-2.468,10.958-3.392v17.807l-4.089,0.435l0.469-0.859c0.294-0.529,0.103-1.189-0.421-1.488
	c-0.539-0.298-1.203-0.099-1.498,0.426l-0.981,1.782l-1.22-1.2c-0.431-0.429-1.122-0.42-1.543,0.007
	c-0.435,0.434-0.435,1.123,0,1.549l0.613,0.6c-4.658,1.235-7.618,3.433-8.008,6.142c-0.175,1.218,0.148,2.78,1.792,4.488
	l-1.84,0.476c-0.588,0.156-0.938,0.759-0.777,1.342c0.153,0.586,0.749,0.931,1.333,0.785l2.069-0.541l-0.031,1.89
	c-0.014,0.603,0.467,1.105,1.07,1.12c0.605,0.007,1.105-0.474,1.122-1.081l0.026-1.689c1.144,0.694,2.51,1.397,4.197,2.101
	c0.952,0.392,2.187,0.775,3.603,1.153l-1.357,1.144c-0.459,0.392-0.517,1.079-0.132,1.545c0.392,0.459,1.084,0.517,1.553,0.132
	l1.629-1.383l0.785,1.725c0.249,0.55,0.9,0.794,1.447,0.55c0.074-0.043,0.122-0.091,0.189-0.139v8.077l23.507,5.417
	C218.885,163.808,218.93,151.792,218.942,151.244z M220.093,112.384c0.385,0.124,0.751,0.254,1.113,0.389l-1.325,0.975
	C219.887,113.413,219.978,112.94,220.093,112.384z M219.813,115.432c0.378,0.336,0.943,0.392,1.366,0.083l1.727-1.272l0.658,1.778
	c0.208,0.565,0.845,0.852,1.411,0.639c0.57-0.21,0.857-0.837,0.646-1.411l-0.184-0.485c0.902,0.515,1.691,1.029,2.424,1.51
	l0.124,0.075c0.414,0.27,0.792,0.536,1.146,0.812c-0.239,0.128-0.438,0.336-0.533,0.615c-0.199,0.572,0.112,1.199,0.686,1.393
	l2.019,0.693l-1.079,1.556c-0.344,0.501-0.222,1.186,0.278,1.525c0.041,0.029,0.086,0.037,0.127,0.057
	c-0.445,0.305-0.945,0.565-1.402,0.778c-1.022,0.471-2.421,0.907-4.087,1.322l0.546-1.14c0.256-0.548,0.024-1.202-0.524-1.461
	c-0.541-0.257-1.199-0.027-1.464,0.52l-0.866,1.845l-1.292-1.129c-0.459-0.405-1.149-0.356-1.548,0.095
	c-0.4,0.457-0.349,1.15,0.103,1.548l0.723,0.639c-0.431,0.08-0.881,0.161-1.335,0.233
	C219.588,122.282,219.701,118.563,219.813,115.432z M195.378,143.279c-0.026,0.014-0.05,0.024-0.062,0.033l-1.562,1.316
	l-0.699-1.555c-0.254-0.555-0.909-0.802-1.457-0.546c-0.548,0.244-0.799,0.897-0.548,1.445l0.239,0.517
	c-1.065-0.294-2.012-0.615-2.787-0.933c-1.115-0.464-2.113-0.943-2.995-1.423l0.548-0.141c0.579-0.153,0.933-0.751,0.775-1.34
	c-0.146-0.579-0.744-0.933-1.333-0.785l-1.972,0.517l0.034-1.718c0.012-0.588-0.474-1.091-1.079-1.11
	c-0.598-0.007-1.096,0.474-1.113,1.072l-0.01,0.177c-0.39-0.617-0.564-1.223-0.486-1.804c0.249-1.723,2.663-3.304,6.261-4.287
	l-0.711,1.289c-0.297,0.534-0.1,1.203,0.431,1.495c0.529,0.287,1.194,0.091,1.491-0.44l1.029-1.862l1.349,1.33
	c0.435,0.431,1.122,0.421,1.548-0.01c0.424-0.431,0.424-1.125-0.005-1.546l-1.036-1.033c0.091-0.005,0.177-0.014,0.27-0.031
	l3.878-0.412V143.279z M202.558,89.775c0-0.258,0.751-2.338,0.792-2.584l1.579-2.275c1.227-1.321,2.74-2.541,4.046-3.755
	c2.744-2.569,6.776-7.147,6.776-7.147s2.388,3.296-1.833,9.893c-0.225,0.359-1.261,2.164-1.469,2.479l-2.091,2.638
	c-1.045,1.344-1.399,1.704-1.931,3.315c-0.924,2.747-2.02,6.047-2.02,6.047S202.558,95.456,202.558,89.775z M214.612,157.941
	c-0.727-0.254-14.892-3.68-15.131-3.771c0-0.436,0-17.492,0-23.117c1.084-0.115,2.184-0.234,3.304-0.354l-0.694,0.967
	c-0.344,0.493-0.23,1.177,0.263,1.524c0.498,0.354,1.177,0.232,1.527-0.256l1.242-1.742l1.187,1.474
	c0.383,0.469,1.072,0.541,1.543,0.16c0.471-0.376,0.548-1.062,0.167-1.539l-0.883-1.091c2.526-0.294,5.051-0.615,7.474-0.964
	C214.612,135.48,214.612,157.706,214.612,157.941z M214.612,127.019c-2.321,0.335-4.756,0.651-7.204,0.94l0.572-0.796
	c0.349-0.494,0.23-1.181-0.261-1.528c-0.495-0.352-1.179-0.234-1.531,0.259l-1.177,1.668l-1.079-1.339
	c-0.378-0.471-1.072-0.549-1.536-0.169c-0.476,0.383-0.548,1.072-0.165,1.548l0.703,0.87c-1.163,0.139-2.321,0.258-3.453,0.383
	c0-6.785,0-22.997,0-23.47c2.888,0,12.245,0,15.131,0C214.612,105.876,214.612,120.902,214.612,127.019z"/>
</svg>
