<?xml version="1.0" encoding="utf-8"?>
<!-- Generator: Adobe Illustrator 17.0.0, SVG Export Plug-In . SVG Version: 6.00 Build 0)  -->
<!DOCTYPE svg PUBLIC "-//W3C//DTD SVG 1.1//EN" "http://www.w3.org/Graphics/SVG/1.1/DTD/svg11.dtd">
<svg version="1.1" id="Layer_1" xmlns="http://www.w3.org/2000/svg" xmlns:xlink="http://www.w3.org/1999/xlink" x="0px" y="0px"
	 width="250px" height="250px" viewBox="0 0 250 250" enable-background="new 0 0 250 250" xml:space="preserve">
<g>
	<rect x="2.5" y="2.5" fill="#B5B58E" width="245" height="245"/>
	<g>
		<rect x="44.5" y="22.5" fill="#FFFFFF" width="39" height="205"/>
		<rect x="15.5" y="16.5" fill="#FFFFFF" width="218" height="6"/>
		<rect x="15.5" y="227.5" fill="#FFFFFF" width="218" height="7"/>
		<rect x="169.5" y="22.5" fill="#FFFFFF" width="38" height="205"/>
		<g>
			<path fill="#FFFFFF" d="M145.144,208.486c0,10.519-12.51,19.157-27.844,19.157c-0.919,0-1.8,0.079-2.8,0.019V227.5h38v-24h-8.231
				C144.84,205.5,145.144,206.841,145.144,208.486z"/>
			<path fill="#FFFFFF" d="M127.722,146.296c0,1.095-0.136,2.161-0.355,3.204h9.132v-50h-9.123c0.212,1,0.346,2.059,0.346,3.15
				c0,10.392-9.994,18.794-22.322,18.794c-1.686,0-3.321-0.193-4.9-0.492v7.234c1.579-0.295,3.215-0.463,4.9-0.463
				C117.728,127.722,127.722,136.038,127.722,146.296z"/>
			<path fill="#FFFFFF" d="M114.5,21.5v0.836c1-0.058,1.881-0.09,2.8-0.09c15.335,0,27.806,8.599,27.806,18.933
				c0,1.768-0.333,3.322-1.014,5.322h8.408v-25H114.5z"/>
		</g>
		<rect x="78.5" y="121.5" fill="#FFFFFF" width="56" height="6"/>
	</g>
	<rect x="100.5" y="127.722" fill="#B5B58E" width="1.089" height="1.089"/>
	<rect x="109.211" y="127.722" fill="#B5B58E" width="1.089" height="1.089"/>
</g>
</svg>
