<?xml version="1.0" encoding="utf-8"?>
<!-- Generator: Adobe Illustrator 17.0.0, SVG Export Plug-In . SVG Version: 6.00 Build 0)  -->
<!DOCTYPE svg PUBLIC "-//W3C//DTD SVG 1.1//EN" "http://www.w3.org/Graphics/SVG/1.1/DTD/svg11.dtd">
<svg version="1.1" id="Layer_4" xmlns="http://www.w3.org/2000/svg" xmlns:xlink="http://www.w3.org/1999/xlink" x="0px" y="0px"
	 width="212.119px" height="250.25px" viewBox="0 0 212.119 250.25" enable-background="new 0 0 212.119 250.25"
	 xml:space="preserve">
<g>
	
		<text transform="matrix(1 0 0 1 13.6718 242.8759)" fill="#447394" stroke="#447394" stroke-width="0.5" stroke-miterlimit="10" font-family="'Futura-Medium'" font-size="16.0235" letter-spacing="1">WASHINGTON, D.C.</text>
	
		<text transform="matrix(0.8688 0 0 0.85 76.8823 122.5566)" fill="#447394" font-family="'TrajanPro-Regular'" font-size="49.6084" letter-spacing="-1.151">K</text>
	
		<text transform="matrix(0.9557 0 0 0.85 108.2153 122.5566)" fill="#447394" font-family="'TrajanPro-Regular'" font-size="49.6084">S</text>
	<g>
		<path fill="#F0B864" d="M106.06,2.5c-7.302,7.821-11.78,18.121-11.78,29.45s4.479,21.629,11.78,29.45
			c7.302-7.821,11.78-18.121,11.78-29.45S113.361,10.321,106.06,2.5z"/>
		<path fill="#F0B864" d="M66.284,10.412c-3.753,10.02-3.949,21.25,0.387,31.716c4.335,10.467,12.415,18.268,22.154,22.7
			c3.753-10.02,3.949-21.25-0.387-31.716S76.023,14.844,66.284,10.412z"/>
		<path fill="#F0B864" d="M32.564,32.943c0.368,10.694,4.484,21.143,12.495,29.154s18.461,12.127,29.154,12.495
			c-0.368-10.694-4.484-21.143-12.495-29.154S43.258,33.31,32.564,32.943z"/>
		<path fill="#F0B864" d="M10.033,66.663c4.432,9.739,12.234,17.818,22.7,22.154C43.2,93.152,54.43,92.956,64.45,89.203
			c-4.432-9.739-12.234-17.818-22.7-22.153S20.053,62.91,10.033,66.663z"/>
		<path fill="#F0B864" d="M2.121,106.438c7.821,7.302,18.121,11.78,29.45,11.78s21.629-4.479,29.45-11.78
			c-7.821-7.302-18.121-11.78-29.45-11.78S9.943,99.137,2.121,106.438z"/>
		<path fill="#F0B864" d="M10.033,146.214c10.02,3.753,21.25,3.949,31.716-0.387c10.467-4.335,18.268-12.415,22.7-22.154
			c-10.02-3.753-21.25-3.949-31.716,0.387S14.465,136.475,10.033,146.214z"/>
		<path fill="#F0B864" d="M32.564,179.934c10.694-0.368,21.143-4.484,29.154-12.495c8.011-8.011,12.127-18.461,12.495-29.154
			c-10.694,0.368-21.143,4.484-29.154,12.495C37.048,158.791,32.932,169.24,32.564,179.934z"/>
		<path fill="#F0B864" d="M66.284,202.465c9.739-4.432,17.818-12.234,22.154-22.7s4.139-21.696,0.387-31.716
			c-9.739,4.432-17.818,12.234-22.153,22.7C62.335,181.215,62.531,192.445,66.284,202.465z"/>
		<path fill="#F0B864" d="M106.06,210.377c7.302-7.821,11.78-18.121,11.78-29.45c0-11.329-4.479-21.629-11.78-29.45
			c-7.302,7.821-11.78,18.121-11.78,29.45C94.28,192.256,98.758,202.555,106.06,210.377z"/>
		<path fill="#F0B864" d="M145.835,202.465c3.753-10.02,3.949-21.25-0.387-31.716s-12.415-18.268-22.154-22.7
			c-3.753,10.02-3.949,21.25,0.387,31.716C128.017,190.231,136.096,198.033,145.835,202.465z"/>
		<path fill="#F0B864" d="M179.555,179.934c-0.368-10.694-4.484-21.143-12.495-29.154c-8.011-8.011-18.461-12.127-29.154-12.495
			c0.368,10.694,4.484,21.143,12.495,29.154C158.412,175.45,168.862,179.566,179.555,179.934z"/>
		<path fill="#F0B864" d="M202.086,146.214c-4.432-9.739-12.234-17.818-22.7-22.154c-10.467-4.335-21.696-4.139-31.717-0.387
			c4.432,9.739,12.234,17.818,22.7,22.153C180.836,150.163,192.066,149.967,202.086,146.214z"/>
		<path fill="#F0B864" d="M209.998,106.439c-7.821-7.302-18.121-11.78-29.45-11.78c-11.329,0-21.629,4.479-29.45,11.78
			c7.821,7.302,18.121,11.78,29.45,11.78C191.877,118.219,202.177,113.74,209.998,106.439z"/>
		<path fill="#F0B864" d="M202.086,66.663c-10.02-3.753-21.25-3.949-31.716,0.387s-18.269,12.415-22.7,22.154
			c10.02,3.753,21.25,3.949,31.716-0.387C189.852,84.481,197.654,76.402,202.086,66.663z"/>
		<path fill="#F0B864" d="M179.555,32.943c-10.694,0.368-21.143,4.484-29.154,12.495c-8.011,8.011-12.127,18.461-12.495,29.154
			c10.694-0.368,21.143-4.484,29.154-12.495S179.188,43.636,179.555,32.943z"/>
		<path fill="#F0B864" d="M145.835,10.412c-9.739,4.432-17.818,12.234-22.154,22.7c-4.335,10.467-4.139,21.696-0.387,31.716
			c9.739-4.432,17.818-12.234,22.153-22.7C149.784,31.662,149.588,20.432,145.835,10.412z"/>
	</g>
</g>
</svg>
