<?xml version="1.0" encoding="utf-8"?>
<!-- Generator: Adobe Illustrator 17.0.0, SVG Export Plug-In . SVG Version: 6.00 Build 0)  -->
<!DOCTYPE svg PUBLIC "-//W3C//DTD SVG 1.1//EN" "http://www.w3.org/Graphics/SVG/1.1/DTD/svg11.dtd">
<svg version="1.1" id="Layer_1" xmlns="http://www.w3.org/2000/svg" xmlns:xlink="http://www.w3.org/1999/xlink" x="0px" y="0px"
	 width="250px" height="250px" viewBox="0 0 250 250" enable-background="new 0 0 250 250" xml:space="preserve">
<circle fill="#447394" cx="125" cy="125" r="122.5"/>
<g>
	<path fill="#F0B864" d="M125,19.052c-7.443,7.973-12.008,18.472-12.008,30.02s4.565,22.047,12.008,30.02
		c7.443-7.973,12.008-18.472,12.008-30.02S132.443,27.024,125,19.052z"/>
	<path fill="#F0B864" d="M84.455,27.117c-3.825,10.214-4.025,21.661,0.394,32.33s12.655,18.622,22.582,23.139
		c3.825-10.214,4.025-21.661-0.394-32.33S94.383,31.634,84.455,27.117z"/>
	<path fill="#F0B864" d="M50.083,50.083c0.375,10.9,4.571,21.552,12.736,29.718s18.818,12.361,29.718,12.736
		c-0.375-10.9-4.571-21.552-12.736-29.718S60.984,50.458,50.083,50.083z"/>
	<path fill="#F0B864" d="M27.117,84.455c4.518,9.927,12.47,18.163,23.139,22.582s22.116,4.219,32.33,0.394
		c-4.518-9.927-12.47-18.163-23.139-22.582S37.331,80.63,27.117,84.455z"/>
	<path fill="#F0B864" d="M19.052,125c7.973,7.443,18.472,12.008,30.02,12.008s22.047-4.565,30.02-12.008
		c-7.973-7.443-18.472-12.008-30.02-12.008S27.024,117.557,19.052,125z"/>
	<path fill="#F0B864" d="M27.117,165.545c10.214,3.825,21.661,4.025,32.33-0.394s18.622-12.655,23.139-22.582
		c-10.214-3.825-21.661-4.025-32.33,0.394S31.634,155.617,27.117,165.545z"/>
	<path fill="#F0B864" d="M50.083,199.917c10.9-0.375,21.552-4.571,29.718-12.736s12.361-18.818,12.736-29.718
		c-10.9,0.375-21.552,4.571-29.718,12.736S50.458,189.016,50.083,199.917z"/>
	<path fill="#F0B864" d="M84.455,222.883c9.927-4.518,18.163-12.47,22.582-23.139c4.419-10.669,4.219-22.116,0.394-32.33
		c-9.927,4.518-18.163,12.47-22.582,23.139C80.43,201.223,80.63,212.669,84.455,222.883z"/>
	<path fill="#F0B864" d="M125,230.948c7.443-7.973,12.008-18.472,12.008-30.02s-4.565-22.047-12.008-30.02
		c-7.443,7.973-12.008,18.472-12.008,30.02S117.557,222.976,125,230.948z"/>
	<path fill="#F0B864" d="M165.545,222.883c3.825-10.214,4.025-21.661-0.394-32.33c-4.419-10.669-12.655-18.622-22.582-23.139
		c-3.825,10.214-4.025,21.661,0.394,32.33C147.382,210.413,155.617,218.366,165.545,222.883z"/>
	<path fill="#F0B864" d="M199.917,199.917c-0.375-10.9-4.571-21.552-12.736-29.718s-18.818-12.361-29.718-12.736
		c0.375,10.9,4.571,21.552,12.736,29.718S189.016,199.542,199.917,199.917z"/>
	<path fill="#F0B864" d="M222.883,165.545c-4.518-9.927-12.47-18.163-23.139-22.582s-22.116-4.219-32.33-0.394
		c4.518,9.927,12.47,18.163,23.139,22.582C201.223,169.57,212.669,169.37,222.883,165.545z"/>
	<path fill="#F0B864" d="M230.948,125c-7.973-7.443-18.472-12.008-30.02-12.008s-22.047,4.565-30.02,12.008
		c7.973,7.443,18.472,12.008,30.02,12.008S222.976,132.443,230.948,125z"/>
	<path fill="#F0B864" d="M222.883,84.455c-10.214-3.825-21.661-4.025-32.33,0.394c-10.669,4.419-18.622,12.655-23.139,22.582
		c10.214,3.825,21.661,4.025,32.33-0.394S218.366,94.383,222.883,84.455z"/>
	<path fill="#F0B864" d="M199.917,50.083c-10.9,0.375-21.552,4.571-29.718,12.736s-12.361,18.818-12.736,29.718
		c10.9-0.375,21.552-4.571,29.718-12.736S199.542,60.984,199.917,50.083z"/>
	<path fill="#F0B864" d="M165.545,27.117c-9.927,4.518-18.163,12.47-22.582,23.139s-4.219,22.116-0.394,32.33
		c9.927-4.518,18.163-12.47,22.582-23.139S169.37,37.331,165.545,27.117z"/>
</g>
</svg>
