<?xml version="1.0" encoding="utf-8"?>
<!-- Generator: Adobe Illustrator 17.0.0, SVG Export Plug-In . SVG Version: 6.00 Build 0)  -->
<!DOCTYPE svg PUBLIC "-//W3C//DTD SVG 1.1//EN" "http://www.w3.org/Graphics/SVG/1.1/DTD/svg11.dtd">
<svg version="1.1" id="Layer_1" xmlns="http://www.w3.org/2000/svg" xmlns:xlink="http://www.w3.org/1999/xlink" x="0px" y="0px"
	 width="250px" height="250px" viewBox="0 0 250 250" enable-background="new 0 0 250 250" xml:space="preserve">
<g>
	<g>
		<path fill="#C72127" d="M76.933,63.331h18.359c0.114-0.229,0.809-1.502,2.078-3.808c1.386-2.542,3.348-5.486,5.887-8.835
			c1.158-1.616,3.581-4.272,7.276-7.966c13.509-12.01,28.114-18.016,43.819-18.016c9.006,0,18.359,1.968,28.059,5.892
			c3.926,1.614,7.504,3.464,10.737,5.542c3.233,2.078,6.408,4.386,9.525,6.925v-0.172l-0.864-1.211
			c-1.964-2.772-4.853-6.177-8.661-10.22c-13.048-13.509-29.388-20.265-49.016-20.265c-11.776,0-22.688,2.773-32.733,8.315
			C97.082,27.48,86.806,38.505,80.569,52.592C79.186,55.595,77.972,59.176,76.933,63.331"/>
		<path fill="#C72127" d="M166.388,56.655v18.359c0.231,0.114,1.503,0.808,3.812,2.078c2.539,1.386,5.483,3.347,8.833,5.887
			c1.614,1.156,4.269,3.581,7.964,7.276c12.009,13.512,18.012,28.117,18.012,43.817c0,9.006-1.961,18.359-5.885,28.061
			c-1.617,3.924-3.464,7.501-5.542,10.736c-2.082,3.232-4.39,6.41-6.928,9.527h0.171l1.214-0.866
			c2.77-1.966,6.176-4.851,10.217-8.661c13.51-13.047,20.266-29.386,20.266-49.013c0-11.779-2.773-22.69-8.315-32.734
			c-7.967-14.318-18.992-24.596-33.079-30.829C174.125,58.908,170.544,57.693,166.388,56.655"/>
		<path fill="#C72127" d="M173.065,146.109h-18.358c-0.114,0.234-0.809,1.502-2.079,3.81c-1.385,2.542-3.347,5.483-5.885,8.832
			c-1.16,1.619-3.581,4.275-7.276,7.968c-13.512,12.01-28.119,18.012-43.819,18.012c-9.009,0-18.359-1.961-28.059-5.888
			c-3.926-1.619-7.504-3.466-10.737-5.543c-3.233-2.078-6.408-4.389-9.526-6.928v0.177l0.865,1.208
			c1.964,2.77,4.852,6.179,8.661,10.22c13.048,13.509,29.384,20.263,49.013,20.263c11.779,0,22.69-2.77,32.736-8.311
			c14.316-7.968,24.592-18.997,30.829-33.079C170.812,153.847,172.026,150.265,173.065,146.109"/>
		<path fill="#C72127" d="M83.61,152.787v-18.359c-0.231-0.111-1.5-0.807-3.809-2.08c-2.542-1.385-5.486-3.343-8.833-5.885
			c-1.617-1.157-4.272-3.58-7.967-7.276c-12.009-13.509-18.012-28.116-18.012-43.819c0-9.006,1.961-18.356,5.888-28.056
			c1.614-3.926,3.461-7.507,5.539-10.737c2.082-3.233,4.39-6.408,6.928-9.526h-0.171l-1.211,0.864
			c-2.773,1.965-6.179,4.851-10.22,8.662C38.232,49.62,31.477,65.958,31.477,85.587c0,11.779,2.773,22.69,8.315,32.736
			c7.967,14.312,18.995,24.595,33.079,30.825C75.874,150.532,79.453,151.747,83.61,152.787"/>
		<path fill="#2F7DC0" d="M61.744,109.444l12.982-12.984c-0.083-0.245-0.487-1.634-1.223-4.164
			c-0.818-2.776-1.512-6.243-2.085-10.406c-0.326-1.962-0.487-5.555-0.49-10.779c1.063-18.044,7.148-32.62,18.249-43.722
			c6.37-6.371,14.37-11.595,24.005-15.678c3.92-1.632,7.755-2.854,11.511-3.674c3.755-0.815,7.633-1.428,11.635-1.84l-0.123-0.118
			l-1.471-0.247c-3.347-0.568-7.797-0.936-13.349-1.103c-18.78-0.323-35.107,6.452-48.986,20.333
			c-8.329,8.326-14.084,18-17.268,29.022c-4.491,15.759-3.961,30.823,1.59,45.191C57.867,102.378,59.541,105.766,61.744,109.444"/>
		<path fill="#2F7DC0" d="M120.277,41.465l12.981,12.984c0.245-0.083,1.633-0.49,4.167-1.225c2.773-0.815,6.243-1.509,10.406-2.082
			c1.962-0.326,5.554-0.49,10.778-0.493c18.043,1.066,32.617,7.148,43.719,18.251c6.37,6.368,11.593,14.368,15.68,24.003
			c1.63,3.92,2.853,7.757,3.671,11.509c0.817,3.759,1.429,7.638,1.838,11.636l0.123-0.12l0.242-1.473
			c0.573-3.348,0.941-7.797,1.106-13.349c0.325-18.777-6.452-35.107-20.331-48.987c-8.329-8.327-18.003-14.083-29.022-17.268
			c-15.76-4.487-30.823-3.957-45.191,1.592C127.342,37.586,123.951,39.262,120.277,41.465"/>
		<path fill="#2F7DC0" d="M188.253,99.999l-12.981,12.98c0.083,0.248,0.487,1.633,1.222,4.164c0.818,2.776,1.512,6.247,2.085,10.411
			c0.326,1.961,0.487,5.554,0.49,10.776c-1.063,18.043-7.145,32.617-18.248,43.723c-6.368,6.367-14.371,11.594-24.003,15.677
			c-3.92,1.633-7.757,2.853-11.514,3.674c-3.755,0.815-7.633,1.425-11.635,1.835l0.123,0.125l1.471,0.239
			c3.347,0.573,7.797,0.941,13.349,1.106c18.78,0.325,35.107-6.452,48.986-20.331c8.329-8.327,14.084-18,17.268-29.024
			c4.491-15.757,3.961-30.822-1.59-45.188C192.131,107.064,190.459,103.676,188.253,99.999"/>
		<path fill="#2F7DC0" d="M129.72,167.974l-12.981-12.979c-0.245,0.08-1.633,0.487-4.164,1.223
			c-2.776,0.815-6.245,1.513-10.409,2.08c-1.958,0.331-5.554,0.49-10.778,0.493c-18.04-1.06-32.617-7.142-43.722-18.248
			c-6.367-6.37-11.591-14.369-15.673-24.005c-1.634-3.921-2.857-7.757-3.675-11.511c-0.816-3.759-1.429-7.634-1.838-11.638
			l-0.123,0.125l-0.242,1.468c-0.573,3.35-0.941,7.797-1.103,13.349c-0.328,18.78,6.449,35.11,20.329,48.989
			c8.329,8.327,18.003,14.084,29.022,17.268c15.76,4.489,30.823,3.959,45.194-1.593C122.658,171.85,126.047,170.18,129.72,167.974"
			/>
	</g>
	<path fill-rule="evenodd" clip-rule="evenodd" fill="#2F7DC0" d="M211.133,243.341v-12.468h1.695v10.884h5.723v1.584H211.133z
		 M216.058,212.87h-0.046l-5.22,12.703h-1.397l-5.222-12.703h-0.044v12.703h-2.092v-15.454h3.121l4.914,11.701l0.086-0.001
		l4.869-11.7h3.123v15.454h-2.093V212.87z M203.397,231.028c0.793,0.317,1.441,0.805,1.945,1.463l-1.408,1.074
		c-0.352-0.459-0.799-0.811-1.338-1.058c-0.541-0.246-1.098-0.369-1.673-0.369c-0.704,0-1.342,0.132-1.911,0.396
		c-0.568,0.264-1.056,0.625-1.461,1.084c-0.404,0.457-0.719,0.995-0.943,1.612c-0.222,0.616-0.332,1.276-0.332,1.982
		c0,0.658,0.104,1.281,0.315,1.868c0.211,0.587,0.517,1.104,0.916,1.55c0.399,0.447,0.886,0.799,1.46,1.058
		c0.577,0.258,1.227,0.388,1.956,0.388c0.716,0,1.345-0.148,1.884-0.441c0.54-0.293,0.998-0.704,1.374-1.232l1.427,1.074
		c-0.095,0.129-0.26,0.315-0.494,0.555c-0.234,0.24-0.547,0.482-0.933,0.722c-0.388,0.241-0.854,0.452-1.399,0.634
		c-0.547,0.182-1.178,0.273-1.895,0.273c-0.984,0-1.875-0.189-2.667-0.564c-0.792-0.375-1.467-0.869-2.025-1.479
		c-0.558-0.611-0.982-1.301-1.275-2.07c-0.293-0.77-0.439-1.548-0.439-2.335c0-0.963,0.158-1.853,0.475-2.669
		c0.316-0.816,0.76-1.521,1.328-2.114c0.57-0.593,1.253-1.054,2.052-1.383c0.798-0.329,1.678-0.493,2.64-0.493
		C201.798,230.554,202.604,230.712,203.397,231.028 M197.001,210.119h2.093v15.454h-2.093V210.119z M186.542,210.119h2.093v13.487
		h7.097v1.967h-9.189V210.119z M178.674,216.406c0.561,0.218,1.171,0.415,1.834,0.589c0.661,0.175,1.272,0.419,1.834,0.732
		c0.56,0.313,1.03,0.735,1.407,1.267c0.379,0.531,0.568,1.263,0.568,2.195c0,0.742-0.142,1.412-0.427,2.009
		c-0.284,0.597-0.666,1.099-1.147,1.507c-0.48,0.407-1.049,0.721-1.703,0.939c-0.655,0.218-1.354,0.327-2.096,0.327
		c-0.99,0-1.929-0.175-2.816-0.525c-0.889-0.349-1.594-0.888-2.118-1.617l1.726-1.484c0.377,0.567,0.861,0.986,1.451,1.255
		c0.59,0.27,1.197,0.404,1.823,0.404c0.349,0,0.706-0.054,1.07-0.164c0.364-0.109,0.694-0.273,0.993-0.491
		c0.298-0.218,0.541-0.488,0.73-0.808c0.189-0.321,0.284-0.692,0.284-1.114c0-0.597-0.188-1.052-0.567-1.365
		c-0.377-0.313-0.848-0.575-1.408-0.786c-0.561-0.211-1.172-0.415-1.834-0.612c-0.662-0.196-1.273-0.469-1.832-0.819
		c-0.561-0.349-1.031-0.818-1.41-1.408c-0.377-0.59-0.567-1.387-0.567-2.391c0-0.452,0.099-0.932,0.296-1.442
		c0.196-0.509,0.506-0.975,0.928-1.398c0.422-0.422,0.965-0.775,1.629-1.059c0.662-0.284,1.459-0.426,2.392-0.426
		c0.844,0,1.653,0.117,2.425,0.35c0.771,0.233,1.449,0.707,2.031,1.421l-1.704,1.55c-0.263-0.407-0.633-0.734-1.112-0.982
		c-0.482-0.247-1.027-0.371-1.64-0.371c-0.583,0-1.067,0.076-1.452,0.229c-0.387,0.153-0.695,0.349-0.93,0.59
		c-0.232,0.24-0.396,0.499-0.49,0.775c-0.096,0.276-0.143,0.531-0.143,0.764c0,0.655,0.189,1.158,0.567,1.507
		C177.643,215.903,178.114,216.188,178.674,216.406 M174.854,242.076c0.586,0,1.078-0.111,1.477-0.335
		c0.398-0.223,0.721-0.512,0.968-0.863c0.246-0.352,0.422-0.736,0.526-1.152c0.106-0.418,0.16-0.82,0.16-1.207v-7.645h1.693v7.907
		c0,0.729-0.123,1.391-0.369,1.983c-0.246,0.593-0.588,1.106-1.02,1.541c-0.435,0.434-0.946,0.768-1.533,1.005
		c-0.587,0.233-1.222,0.352-1.901,0.352c-0.683,0-1.316-0.118-1.904-0.352c-0.586-0.236-1.096-0.57-1.531-1.005
		c-0.434-0.435-0.775-0.948-1.021-1.541c-0.246-0.593-0.369-1.254-0.369-1.983v-7.907h1.694v7.645c0,0.387,0.052,0.789,0.158,1.207
		c0.104,0.416,0.282,0.801,0.526,1.152c0.248,0.352,0.57,0.641,0.969,0.863C173.774,241.965,174.268,242.076,174.854,242.076
		 M170.733,224.29c-0.539,0.539-1.172,0.954-1.898,1.245c-0.729,0.291-1.514,0.436-2.357,0.436c-0.846,0-1.631-0.145-2.359-0.436
		c-0.728-0.291-1.36-0.706-1.898-1.245c-0.539-0.539-0.961-1.175-1.266-1.911c-0.305-0.735-0.459-1.553-0.459-2.456v-9.804h2.093
		v9.475c0,0.48,0.065,0.979,0.196,1.496c0.131,0.516,0.35,0.993,0.656,1.429c0.305,0.437,0.705,0.794,1.2,1.071
		c0.496,0.276,1.108,0.414,1.837,0.414c0.728,0,1.34-0.138,1.834-0.414c0.496-0.277,0.896-0.634,1.202-1.071
		c0.306-0.436,0.524-0.913,0.655-1.429c0.131-0.517,0.197-1.016,0.197-1.496v-9.475h2.092v9.804c0,0.903-0.152,1.721-0.459,2.456
		C171.694,223.115,171.272,223.751,170.733,224.29 M162.03,230.554c0.951,0,1.826,0.167,2.625,0.502
		c0.797,0.335,1.482,0.795,2.051,1.383c0.57,0.588,1.016,1.28,1.339,2.08c0.323,0.797,0.483,1.66,0.483,2.59
		c0,0.927-0.16,1.791-0.483,2.588c-0.323,0.8-0.769,1.492-1.339,2.08c-0.569,0.586-1.254,1.049-2.051,1.383
		c-0.799,0.334-1.674,0.502-2.625,0.502c-0.95,0-1.825-0.168-2.623-0.502c-0.799-0.334-1.483-0.797-2.053-1.383
		c-0.568-0.588-1.015-1.28-1.339-2.08c-0.323-0.797-0.483-1.661-0.483-2.588c0-0.93,0.16-1.793,0.483-2.59
		c0.324-0.8,0.771-1.492,1.339-2.08c0.569-0.588,1.254-1.048,2.053-1.383C160.205,230.721,161.08,230.554,162.03,230.554
		 M158.612,233.601c-0.412,0.446-0.729,0.973-0.951,1.577c-0.225,0.604-0.336,1.248-0.336,1.931c0,0.68,0.111,1.323,0.336,1.928
		c0.223,0.605,0.539,1.131,0.951,1.576c0.41,0.447,0.904,0.804,1.479,1.067c0.576,0.265,1.222,0.396,1.939,0.396
		s1.363-0.132,1.939-0.396c0.576-0.264,1.069-0.62,1.479-1.067c0.412-0.445,0.73-0.971,0.953-1.576
		c0.223-0.605,0.334-1.248,0.334-1.928c0-0.683-0.111-1.326-0.334-1.931c-0.224-0.605-0.541-1.131-0.953-1.577
		c-0.41-0.445-0.903-0.802-1.479-1.066c-0.575-0.265-1.222-0.396-1.939-0.396s-1.362,0.132-1.939,0.396
		C159.516,232.799,159.022,233.155,158.612,233.601 M155.733,212.87h-0.045l-5.221,12.703h-1.398l-5.221-12.703h-0.043v12.703
		h-2.093v-15.454h3.123l4.913,11.701l0.086-0.001l4.869-11.7h3.123v15.454h-2.094V212.87z M130.983,240.631
		c0.399,0.447,0.887,0.799,1.461,1.058c0.576,0.258,1.227,0.388,1.955,0.388c0.717,0,1.344-0.148,1.883-0.441
		c0.541-0.293,1-0.704,1.375-1.232l1.427,1.074c-0.095,0.129-0.259,0.315-0.494,0.555c-0.233,0.24-0.545,0.482-0.933,0.722
		c-0.387,0.241-0.854,0.452-1.399,0.634c-0.547,0.182-1.177,0.273-1.894,0.273c-0.985,0-1.875-0.189-2.668-0.564
		c-0.791-0.375-1.467-0.869-2.024-1.479c-0.558-0.611-0.981-1.301-1.274-2.07c-0.293-0.77-0.439-1.548-0.439-2.335
		c0-0.963,0.156-1.853,0.474-2.669s0.761-1.521,1.329-2.114s1.252-1.054,2.051-1.383c0.797-0.329,1.678-0.493,2.641-0.493
		c0.822,0,1.629,0.158,2.422,0.475c0.792,0.317,1.441,0.805,1.945,1.463l-1.408,1.074c-0.352-0.459-0.799-0.811-1.338-1.058
		c-0.541-0.246-1.099-0.369-1.674-0.369c-0.705,0-1.342,0.132-1.91,0.396c-0.569,0.264-1.057,0.625-1.461,1.084
		c-0.405,0.457-0.719,0.995-0.942,1.612c-0.224,0.616-0.335,1.276-0.335,1.982c0,0.658,0.105,1.281,0.316,1.868
		C130.28,239.668,130.584,240.185,130.983,240.631 M126.217,210.119h2.092v13.487h7.098v1.967h-9.189V210.119z M121.084,221.753
		h-7.358l-1.527,3.82h-2.445l6.812-15.454h1.898l6.616,15.454h-2.445L121.084,221.753z M117.438,212.826h-0.043l-2.928,7.096h5.852
		L117.438,212.826z M115.844,243.341h-1.971l-1.251-3.081h-5.935l-1.232,3.081h-1.581h-0.392h-1.722l-3.172-5.49h-1.888v5.49h-1.694
		v-12.468h4.392c0.801,0,1.459,0.108,1.978,0.325c0.517,0.218,0.926,0.494,1.226,0.828c0.299,0.336,0.508,0.711,0.627,1.129
		c0.116,0.416,0.176,0.82,0.176,1.207c0,0.398-0.071,0.783-0.211,1.153c-0.144,0.37-0.346,0.705-0.609,1.005
		c-0.264,0.299-0.589,0.553-0.971,0.758c-0.383,0.205-0.809,0.332-1.278,0.379l3.31,5.316l5.332-12.101h1.532L115.844,243.341z
		 M100.772,236.004c0.254-0.142,0.457-0.343,0.608-0.608c0.153-0.266,0.229-0.61,0.229-1.033c0-0.426-0.076-0.77-0.229-1.034
		c-0.151-0.265-0.355-0.468-0.608-0.609c-0.254-0.141-0.541-0.239-0.865-0.292c-0.323-0.053-0.65-0.079-0.979-0.079h-2.226v4.027
		h2.226c0.329,0,0.656-0.026,0.979-0.079C100.231,236.243,100.518,236.146,100.772,236.004 M109.647,233.056l-2.359,5.73h4.718
		l-2.324-5.73H109.647z M97.35,212.87h-0.044v12.703h-2.091v-15.454h2.748l8.511,12.702l0.044,0.002v-12.704h2.092v15.454h-2.662
		L97.35,212.87z M85.572,240.631c0.399,0.447,0.886,0.799,1.462,1.058c0.575,0.258,1.226,0.388,1.954,0.388
		c0.716,0,1.344-0.148,1.884-0.441c0.539-0.293,0.998-0.704,1.374-1.232l1.426,1.074c-0.095,0.129-0.259,0.315-0.493,0.555
		c-0.234,0.24-0.546,0.482-0.933,0.722c-0.388,0.241-0.854,0.452-1.4,0.634c-0.546,0.182-1.178,0.273-1.894,0.273
		c-0.985,0-1.875-0.189-2.667-0.564c-0.792-0.375-1.467-0.869-2.024-1.479c-0.558-0.611-0.983-1.301-1.276-2.07
		c-0.293-0.77-0.439-1.548-0.439-2.335c0-0.963,0.158-1.853,0.475-2.669c0.316-0.816,0.759-1.521,1.328-2.114
		c0.568-0.593,1.253-1.054,2.051-1.383c0.798-0.329,1.678-0.493,2.641-0.493c0.821,0,1.629,0.158,2.421,0.475
		c0.792,0.317,1.441,0.805,1.945,1.463l-1.408,1.074c-0.352-0.459-0.799-0.811-1.338-1.058c-0.54-0.246-1.098-0.369-1.673-0.369
		c-0.704,0-1.341,0.132-1.911,0.396c-0.569,0.264-1.056,0.625-1.461,1.084c-0.405,0.457-0.719,0.995-0.942,1.612
		c-0.223,0.616-0.334,1.276-0.334,1.982c0,0.658,0.105,1.281,0.317,1.868C84.867,239.668,85.173,240.185,85.572,240.631
		 M90.809,223.634c-0.705,0.729-1.553,1.3-2.543,1.715c-0.991,0.415-2.074,0.622-3.253,0.622c-1.179,0-2.264-0.207-3.254-0.622
		c-0.99-0.415-1.838-0.986-2.544-1.715c-0.705-0.728-1.258-1.587-1.658-2.577c-0.401-0.99-0.601-2.059-0.601-3.211
		c0-1.15,0.2-2.22,0.601-3.211c0.4-0.989,0.953-1.849,1.658-2.577c0.706-0.728,1.554-1.299,2.544-1.714
		c0.99-0.415,2.075-0.623,3.254-0.623c1.179,0,2.262,0.208,3.253,0.623c0.99,0.415,1.838,0.986,2.543,1.714
		c0.706,0.728,1.26,1.588,1.66,2.577c0.4,0.991,0.6,2.061,0.6,3.211c0,1.151-0.199,2.221-0.6,3.211
		C92.069,222.047,91.515,222.906,90.809,223.634 M90.426,215.455c-0.277-0.749-0.669-1.401-1.179-1.954
		c-0.509-0.553-1.12-0.993-1.834-1.321c-0.712-0.327-1.513-0.491-2.4-0.491c-0.888,0-1.689,0.164-2.401,0.491
		c-0.714,0.328-1.324,0.768-1.834,1.321c-0.509,0.553-0.902,1.205-1.178,1.954c-0.277,0.75-0.415,1.547-0.415,2.391
		c0,0.845,0.138,1.642,0.415,2.391c0.276,0.75,0.669,1.402,1.178,1.954c0.51,0.554,1.12,0.994,1.834,1.322
		c0.712,0.327,1.513,0.491,2.401,0.491c0.887,0,1.688-0.164,2.4-0.491c0.714-0.328,1.325-0.768,1.834-1.322
		c0.51-0.552,0.901-1.204,1.179-1.954c0.275-0.749,0.415-1.546,0.415-2.391C90.841,217.002,90.702,216.205,90.426,215.455
		 M79.775,232.439c0.569,0.588,1.015,1.28,1.338,2.08c0.323,0.797,0.484,1.66,0.484,2.59c0,0.927-0.161,1.791-0.484,2.588
		c-0.323,0.8-0.769,1.492-1.338,2.08c-0.57,0.586-1.254,1.049-2.052,1.383c-0.799,0.334-1.673,0.502-2.624,0.502
		c-0.951,0-1.826-0.168-2.624-0.502c-0.799-0.334-1.483-0.797-2.052-1.383c-0.57-0.588-1.016-1.28-1.339-2.08
		c-0.323-0.797-0.484-1.661-0.484-2.588c0-0.93,0.161-1.793,0.484-2.59c0.323-0.8,0.769-1.492,1.339-2.08
		c0.569-0.588,1.253-1.048,2.052-1.383c0.798-0.335,1.673-0.502,2.624-0.502c0.951,0,1.825,0.167,2.624,0.502
		C78.521,231.391,79.205,231.851,79.775,232.439 M75.098,232.139c-0.717,0-1.363,0.132-1.939,0.396
		c-0.575,0.264-1.069,0.62-1.48,1.066c-0.411,0.446-0.728,0.973-0.951,1.577c-0.223,0.604-0.335,1.248-0.335,1.931
		c0,0.68,0.112,1.323,0.335,1.928c0.223,0.605,0.54,1.131,0.951,1.576c0.411,0.447,0.905,0.804,1.48,1.067
		c0.576,0.265,1.222,0.396,1.939,0.396c0.716,0,1.362-0.132,1.938-0.396c0.576-0.264,1.069-0.62,1.48-1.067
		c0.411-0.445,0.728-0.971,0.952-1.576c0.223-0.605,0.334-1.248,0.334-1.928c0-0.683-0.111-1.326-0.334-1.931
		c-0.224-0.605-0.541-1.131-0.952-1.577c-0.411-0.445-0.904-0.802-1.48-1.066C76.461,232.271,75.815,232.139,75.098,232.139
		 M72.727,210.119h2.092v15.454h-2.092V210.119z M66.389,225.573h-2.092v-13.486H59.32v-1.968h12.049v1.968h-4.979V225.573z
		 M59.492,225.573l-1.55-3.82h-7.358l-1.528,3.82h-2.445l6.811-15.454h1.901l6.615,15.454H59.492z M54.297,212.826h-0.044
		l-2.925,7.096h5.851L54.297,212.826z M34.211,212.87h-0.044v12.703h-2.093v-15.454h2.75l8.51,12.702l0.044,0.002v-12.704h2.092
		v15.454h-2.662L34.211,212.87z M38.116,231.172c0.664,0.2,1.24,0.467,1.727,0.802c0.488,0.334,0.893,0.719,1.216,1.153
		c0.323,0.435,0.578,0.881,0.766,1.339c0.188,0.458,0.323,0.915,0.406,1.373c0.082,0.459,0.123,0.881,0.123,1.27
		c0,0.797-0.147,1.569-0.44,2.314c-0.294,0.746-0.729,1.409-1.304,1.991c-0.576,0.581-1.289,1.047-2.141,1.399
		c-0.852,0.352-1.835,0.527-2.951,0.527h-4.07v-12.468h4.352C36.681,230.873,37.453,230.972,38.116,231.172 M33.144,232.457v9.3
		h2.132c0.716,0,1.394-0.097,2.035-0.291c0.639-0.193,1.2-0.484,1.682-0.871c0.482-0.388,0.864-0.872,1.145-1.454
		c0.282-0.581,0.423-1.259,0.423-2.032c0-0.401-0.064-0.867-0.193-1.401c-0.13-0.534-0.374-1.042-0.732-1.522
		c-0.358-0.482-0.854-0.891-1.489-1.226c-0.634-0.335-1.456-0.502-2.466-0.502H33.144z M52.118,232.457h-6.356v3.721h5.916v1.584
		h-5.916v3.995h6.673v1.584h-8.369v-12.468h8.052V232.457z M60.482,240.315l0.07-0.002l3.927-9.441h2.519v12.468h-1.695v-10.249
		H65.27l-4.206,10.249h-1.127l-4.206-10.249h-0.035v10.249h-1.695v-12.468h2.518L60.482,240.315z M113.727,230.873h9.725v1.584
		h-4.016v10.884h-1.693v-10.884h-4.016V230.873z M126.231,243.341h-1.695v-12.468h1.695V243.341z M145.643,232.43
		c0.568-0.593,1.252-1.054,2.051-1.383c0.797-0.329,1.678-0.493,2.641-0.493c0.822,0,1.629,0.158,2.421,0.475
		c0.793,0.317,1.44,0.805,1.946,1.463l-1.408,1.074c-0.352-0.459-0.799-0.811-1.339-1.058c-0.54-0.246-1.099-0.369-1.673-0.369
		c-0.705,0-1.342,0.132-1.91,0.396c-0.57,0.264-1.057,0.625-1.463,1.084c-0.403,0.457-0.719,0.995-0.94,1.612
		c-0.224,0.616-0.335,1.276-0.335,1.982c0,0.658,0.105,1.281,0.316,1.868c0.211,0.587,0.518,1.104,0.916,1.55
		c0.398,0.447,0.887,0.799,1.461,1.058c0.576,0.258,1.227,0.388,1.955,0.388c0.717,0,1.345-0.148,1.884-0.441
		c0.541-0.293,0.998-0.704,1.374-1.232l1.426,1.074c-0.094,0.129-0.258,0.315-0.493,0.555c-0.235,0.24-0.546,0.482-0.933,0.722
		c-0.387,0.241-0.854,0.452-1.4,0.634c-0.545,0.182-1.177,0.273-1.893,0.273c-0.986,0-1.875-0.189-2.667-0.564
		c-0.794-0.375-1.468-0.869-2.025-1.479c-0.557-0.611-0.981-1.301-1.274-2.07c-0.293-0.77-0.44-1.548-0.44-2.335
		c0-0.963,0.158-1.853,0.476-2.669C144.632,233.727,145.075,233.023,145.643,232.43 M191.026,241.119l0.037,0.004v-10.25h1.694
		v12.468h-2.148l-6.94-10.249h-0.035v10.249h-1.694v-12.468h2.219L191.026,241.119z M208.638,243.341h-1.694v-12.468h1.694V243.341z
		"/>
</g>
</svg>
