<?xml version="1.0" encoding="utf-8"?>
<!-- Generator: Adobe Illustrator 17.0.0, SVG Export Plug-In . SVG Version: 6.00 Build 0)  -->
<!DOCTYPE svg PUBLIC "-//W3C//DTD SVG 1.1//EN" "http://www.w3.org/Graphics/SVG/1.1/DTD/svg11.dtd">
<svg version="1.1" id="Layer_1" xmlns="http://www.w3.org/2000/svg" xmlns:xlink="http://www.w3.org/1999/xlink" x="0px" y="0px"
	 width="250px" height="250px" viewBox="0 0 250 250" enable-background="new 0 0 250 250" xml:space="preserve">
<circle fill="#60B4CE" cx="125" cy="125" r="124"/>
<path fill="#FFFFFF" d="M163.068,95.111v79.177l-1.546,0.716v-91.6l-35.021,15.913v91.114l-1.443,0.747V98.413l36.245-16.676
	l-7.279-3.473V50.278L126.372,63.33l0.07,29.883l-1.463,0.57V62.382l28.922-13.536l-7.934-3.59v-3.958l-6.367-2.931V34.82
	l-14.541-4.985l-13.899,5.504v2.588l-7.478,3.322v4.044l-7.834,3.568v29.553l-7.265,3.324v93.819l-1.491-0.64V81.299L57.508,95.37
	v89.132l68.624,31.534l66.479-31.004V109.18L163.068,95.111z M129.046,67.733l22.561-10.163v4.335L129.046,72.07V67.733z
	 M129.046,75.977l22.561-10.162v4.339l-22.561,10.164V75.977z M129.046,84.224l22.561-10.166v4.344l-22.561,10.166V84.224z
	 M70.559,167.471l-8.325-3.718v-8.208l8.325,3.752V167.471z M70.559,151.195l-8.325-3.716v-8.208l8.325,3.748V151.195z
	 M70.559,135.364l-8.325-3.718v-8.207l8.325,3.751V135.364z M70.559,119.089l-8.325-3.719v-8.208l8.325,3.752V119.089z
	 M81.886,172.53l-8.327-3.718v-8.165l8.327,3.752V172.53z M81.886,156.255l-8.327-3.718v-8.163l8.327,3.75V156.255z M81.886,140.422
	l-8.327-3.716v-8.163l8.327,3.751V140.422z M81.886,124.147l-8.327-3.718v-8.163l8.327,3.75V124.147z M119.728,203.319
	l-24.893-11.215v-4.759l24.893,11.217V203.319z M119.872,191.061v3.23l-25.036-11.281v-2.692v-2.127l25.036,11.281V191.061z
	 M119.872,185.136l-25.036-11.279v-4.816l25.036,11.278V185.136z M119.872,175.983l-25.036-11.28v-4.813l25.036,11.28V175.983z
	 M119.872,166.83l-25.036-11.276v-4.818l25.036,11.282V166.83z M119.872,157.679l-25.036-11.282v-4.812l25.036,11.28V157.679z
	 M119.872,148.531l-25.036-11.283v-4.812l25.036,11.276V148.531z M119.872,139.375l-25.036-11.28v-4.816l25.036,11.28V139.375z
	 M119.872,130.221l-25.036-11.278v-4.816l25.036,11.282V130.221z M119.872,121.068L94.836,109.79v-4.814l25.036,11.278V121.068z
	 M119.872,111.919l-25.036-11.28v-4.816l25.036,11.282V111.919z M121.069,88.015L98.511,77.849v-4.335l22.558,10.162V88.015z
	 M121.069,79.769L98.511,69.604v-4.342l22.558,10.166V79.769z M121.069,71.524L98.511,61.359v-4.342l22.558,10.162V71.524z
	 M157.468,190.673l-24.905,11.223v-4.473l24.905-11.22V190.673z M157.468,179.758l-0.012,0.007v1.88l-25.024,11.277v-4.61
	l25.036-11.284V179.758z M157.468,172.695l-25.036,11.278v-4.81l25.036-11.286V172.695z M157.468,163.542l-25.036,11.28v-4.816
	l25.036-11.277V163.542z M157.468,154.39l-25.036,11.278v-4.81l25.036-11.286V154.39z M157.468,145.238l-25.036,11.279v-4.81
	l25.036-11.286V145.238z M157.468,136.088l-25.036,11.28v-4.818l25.036-11.277V136.088z M157.468,126.933l-25.036,11.28v-4.814
	l25.036-11.282V126.933z M157.468,117.783l-25.036,11.277v-4.815l25.036-11.279V117.783z M157.468,108.628l-25.036,11.284v-4.817
	l25.036-11.278V108.628z M157.468,99.475l-25.036,11.28v-4.811l25.036-11.28V99.475z M183.051,133.38l4.876-2.197v4.993
	l-4.876,2.172V133.38z M183.051,142.05l4.876-2.197v4.992l-4.876,2.172V142.05z M175.971,136.384l4.876-2.196v4.993l-4.876,2.172
	V136.384z M175.971,145.054l4.876-2.197v4.992l-4.876,2.172V145.054z M168.602,139.707l4.876-2.196v4.992l-4.876,2.173V139.707z
	 M168.602,148.377l4.876-2.196v4.993l-4.876,2.172V148.377z M168.602,157.046l4.876-2.196v4.993l-4.876,2.172V157.046z
	 M175.971,153.724l4.876-2.197v4.992l-4.876,2.173V153.724z M183.051,150.719l4.876-2.197v4.992l-4.876,2.172V150.719z"/>
<polygon fill="#F6F9F9" points="95.848,48.86 124.98,62.381 153.902,48.846 145.967,45.255 145.967,47.969 125.059,57.938 
	103.679,48.257 103.682,45.292 "/>
<polygon fill="#F6F9F9" points="103.682,41.248 125.059,50.714 145.968,41.297 139.6,38.366 139.6,40.888 124.875,47.39 
	111.157,41.466 111.16,37.926 "/>
<polygon fill="#F6F9F9" points="111.16,35.338 124.825,41.25 139.6,34.82 125.059,29.834 "/>
<polygon fill="#EAEAEA" points="125.11,31.343 116.219,34.82 117.405,35.229 125.11,32.23 133.469,35.014 134.541,34.569 "/>
<polygon fill="#F6F9F9" points="57.508,95.37 87.093,108.006 87.093,81.299 "/>
<polygon fill="#F6F9F9" points="163.068,95.111 163.068,121.227 192.611,109.181 "/>
<polygon fill="#EAEAEA" points="65.939,95.923 83.512,87.614 83.479,85.596 63.683,94.976 "/>
<polygon fill="#EAEAEA" points="166.992,100.569 166.991,102.58 183.28,110.235 185.411,109.341 "/>
<polygon fill="#F6F9F9" points="88.583,81.737 95.848,77.723 95.844,80.148 124.999,93.782 154.047,80.495 154.043,78.263 
	161.323,81.737 125.079,98.413 "/>
</svg>
