<?xml version="1.0" encoding="utf-8"?>
<!-- Generator: Adobe Illustrator 17.0.0, SVG Export Plug-In . SVG Version: 6.00 Build 0)  -->
<!DOCTYPE svg PUBLIC "-//W3C//DTD SVG 1.1//EN" "http://www.w3.org/Graphics/SVG/1.1/DTD/svg11.dtd">
<svg version="1.1" xmlns="http://www.w3.org/2000/svg" xmlns:xlink="http://www.w3.org/1999/xlink" x="0px" y="0px" width="250px"
	 height="250px" viewBox="0 0 250 250" enable-background="new 0 0 250 250" xml:space="preserve">
<g id="Layer_1">
	<circle fill="none" stroke="#3B4D81" stroke-width="2" stroke-miterlimit="10" cx="125" cy="125" r="122.5"/>
	<circle fill="none" cx="125" cy="125" r="91.46"/>
	<text transform="matrix(0.9929 0.1193 -0.1193 0.9929 128.5453 33.2504)"><tspan x="0" y="0" fill="#3B4D81" font-family="'Garamond-Bold'" font-size="28.5831">S</tspan><tspan x="14.754" y="-0.616" fill="#3B4D81" font-family="'Garamond-Bold'" font-size="28.5831" rotate="12.67">M</tspan><tspan x="40.243" y="5.579" fill="#3B4D81" font-family="'Garamond-Bold'" font-size="28.5831" rotate="26.758">A</tspan><tspan x="57.093" y="14.018" fill="#3B4D81" font-family="'Garamond-Bold'" font-size="28.5831" rotate="38.955">R</tspan><tspan x="72.653" y="26.635" fill="#3B4D81" font-family="'Garamond-Bold'" font-size="28.5831" rotate="51.335">T</tspan><tspan x="84.557" y="42.235" fill="#3B4D81" font-family="'Garamond-Bold'" font-size="28.5831" rotate="59.662"> </tspan><tspan x="94.848" y="64.376" fill="#3B4D81" font-family="'Garamond-Bold'" font-size="28.5831" rotate="74.982"> </tspan><tspan x="99.121" y="88.463" fill="#3B4D81" font-family="'Garamond-Bold'" font-size="28.5831" rotate="92.748">S</tspan><tspan x="98.64" y="103.115" fill="#3B4D81" font-family="'Garamond-Bold'" font-size="28.5831" rotate="103.349">T</tspan><tspan x="94.096" y="122.322" fill="#3B4D81" font-family="'Garamond-Bold'" font-size="28.5831" rotate="115.78">R</tspan><tspan x="85.327" y="140.312" fill="#3B4D81" font-family="'Garamond-Bold'" font-size="28.5831" rotate="127.98">A</tspan><tspan x="73.766" y="155.179" fill="#3B4D81" font-family="'Garamond-Bold'" font-size="28.5831" rotate="139.989">T</tspan><tspan x="58.686" y="167.872" fill="#3B4D81" font-family="'Garamond-Bold'" font-size="28.5831" rotate="152.403">E</tspan><tspan x="40.655" y="177.325" fill="#3B4D81" font-family="'Garamond-Bold'" font-size="28.5831" rotate="165.289">G</tspan><tspan x="20.41" y="182.516" fill="#3B4D81" font-family="'Garamond-Bold'" font-size="28.5831" rotate="177.778">Y</tspan><tspan x="1.659" y="182.83" fill="#3B4D81" font-family="'Garamond-Bold'" font-size="28.5831" rotate="-174.109"> </tspan><tspan x="-22.268" y="178.076" fill="#3B4D81" font-family="'Garamond-Bold'" font-size="28.5831" rotate="-158.914"> </tspan><tspan x="-44.262" y="167.324" fill="#3B4D81" font-family="'Garamond-Bold'" font-size="28.5831" rotate="-141.131">S</tspan><tspan x="-55.94" y="158.421" fill="#3B4D81" font-family="'Garamond-Bold'" font-size="28.5831" rotate="-129.509">O</tspan><tspan x="-70.174" y="140.759" fill="#3B4D81" font-family="'Garamond-Bold'" font-size="28.5831" rotate="-116.804">L</tspan><tspan x="-78.577" y="124.542" fill="#3B4D81" font-family="'Garamond-Bold'" font-size="28.5831" rotate="-104.295">U</tspan><tspan x="-83.836" y="103.404" fill="#3B4D81" font-family="'Garamond-Bold'" font-size="28.5831" rotate="-91.257">T</tspan><tspan x="-83.91" y="83.746" fill="#3B4D81" font-family="'Garamond-Bold'" font-size="28.5831" rotate="-81.594">I</tspan><tspan x="-82.751" y="72.36" fill="#3B4D81" font-family="'Garamond-Bold'" font-size="28.5831" rotate="-71.05">O</tspan><tspan x="-75.437" y="50.813" fill="#3B4D81" font-family="'Garamond-Bold'" font-size="28.5831" rotate="-56.318">N</tspan><tspan x="-61.611" y="30.997" fill="#3B4D81" font-family="'Garamond-Bold'" font-size="28.5831" rotate="-44.167">S</tspan><tspan x="-51.011" y="21.006" fill="#3B4D81" font-family="'Garamond-Bold'" font-size="28.5831" rotate="-37.406"> </tspan><tspan x="-30.345" y="7.945" fill="none" font-family="'Garamond-Bold'" font-size="28.5831" rotate="-20.648">s</tspan></text>
	<line fill="none" stroke="#D7E1F2" stroke-miterlimit="10" x1="60.103" y1="21.094" x2="63.185" y2="19.227"/>
	<g id="Compass_Rose">
		<g>
			<path fill="#3B4D81" d="M99.327,32.386c-2.263,1.012-4.98-0.121-6.054-2.527c-0.685-1.53-0.559-3.31,0.329-4.647
				c0.193-0.289,0.417-0.554,0.666-0.785c0.934-0.869,2.25-1.277,3.53-1.09c1.588,0.228,2.999,1.322,3.683,2.851
				C102.556,28.594,101.59,31.374,99.327,32.386z M95.763,24.418c-0.342,0.153-0.658,0.361-0.932,0.617
				c-0.202,0.188-0.385,0.402-0.54,0.636c-0.732,1.102-0.833,2.578-0.263,3.852c0.889,1.988,3.114,2.935,4.961,2.109
				c1.847-0.826,2.625-3.116,1.735-5.104c-0.569-1.273-1.736-2.182-3.045-2.371C97.023,24.06,96.36,24.151,95.763,24.418z"/>
			<g>
				<path fill="#3B4D81" d="M98.817,24.321l-1.138-0.165c-1.034-0.151-2.095,0.178-2.848,0.879c-0.202,0.188-0.385,0.402-0.54,0.636
					l-0.624,0.939l-1.089-9.187L98.817,24.321z M93.706,19.902l0.539,4.548c0.009-0.008,0.016-0.015,0.023-0.022
					c0.689-0.639,1.587-1.036,2.519-1.119L93.706,19.902z"/>
				<g>
					<path fill="#3B4D81" d="M95.595,24.04c0.693-0.31,1.431-0.397,2.144-0.293l-4.596-5.085l2.414,5.398L95.595,24.04z"/>
					<path fill="#3B4D81" d="M98.817,24.321l-1.138-0.165c-0.656-0.095-1.319-0.005-1.916,0.262l-0.379,0.169l-0.207-0.358
						l-2.414-5.398l0.685-0.447L98.817,24.321z M95.772,23.531c0.336-0.116,0.675-0.189,1.014-0.22l-2.201-2.436L95.772,23.531z"/>
				</g>
			</g>
			<g>
				<path fill="#3B4D81" d="M96.197,31.814l-8.679,0.677l6.249-6.135l-0.094,1.111c-0.06,0.694,0.065,1.404,0.355,2.054
					c0.168,0.376,0.386,0.722,0.648,1.029c0.195,0.227,0.413,0.43,0.646,0.605L96.197,31.814z M89.718,31.49l4.381-0.342
					c-0.017-0.02-0.034-0.039-0.05-0.058c-0.314-0.367-0.575-0.781-0.776-1.231c-0.209-0.467-0.346-0.96-0.405-1.461L89.718,31.49z"
					/>
				<g>
					<path fill="#3B4D81" d="M93.649,29.691c-0.33-0.74-0.452-1.517-0.388-2.259l-4.642,4.558l5.05-2.258L93.649,29.691z"/>
					<path fill="#3B4D81" d="M93.838,30.109l-5.05,2.259l-0.46-0.673l5.438-5.339l-0.094,1.111c-0.06,0.694,0.065,1.404,0.355,2.054
						l0.169,0.377L93.838,30.109z M90.55,30.674l2.586-1.156c-0.133-0.366-0.223-0.741-0.268-1.119L90.55,30.674z"/>
				</g>
			</g>
			<g>
				<path fill="#3B4D81" d="M102.173,38.628l-6.235-6.901l1.136,0.166c1.031,0.15,2.089-0.179,2.85-0.88
					c0.201-0.188,0.382-0.402,0.539-0.636l0.621-0.935L102.173,38.628z M97.966,32.741l3.079,3.408l-0.537-4.548
					c-0.007,0.006-0.015,0.013-0.022,0.02C99.791,32.262,98.898,32.657,97.966,32.741z"/>
				<g>
					<path fill="#3B4D81" d="M99.157,32.008c-0.693,0.31-1.43,0.398-2.143,0.294l4.596,5.085l-2.414-5.399L99.157,32.008z"/>
					<path fill="#3B4D81" d="M101.302,37.666l-5.364-5.938l1.136,0.166c0.654,0.096,1.317,0.005,1.915-0.262l0.377-0.169
						l0.208,0.358l2.414,5.399L101.302,37.666z M97.966,32.739l2.2,2.435l-1.187-2.655C98.645,32.634,98.304,32.708,97.966,32.739z"
						/>
				</g>
			</g>
			<g>
				<path fill="#3B4D81" d="M100.984,29.696l0.095-1.114c0.061-0.694-0.063-1.405-0.354-2.055c-0.168-0.377-0.386-0.722-0.648-1.029
					c-0.194-0.224-0.411-0.428-0.646-0.606l-0.875-0.657l8.676-0.676L100.984,29.696z M100.653,24.901
					c0.017,0.019,0.034,0.039,0.051,0.059c0.314,0.366,0.575,0.78,0.776,1.229c0.208,0.468,0.346,0.961,0.405,1.462l3.148-3.091
					L100.653,24.901z"/>
				<g>
					<path fill="#3B4D81" d="M101.103,26.358c0.331,0.741,0.453,1.518,0.389,2.26l4.642-4.559l-5.05,2.259L101.103,26.358z"/>
					<path fill="#3B4D81" d="M100.984,29.696l0.095-1.114c0.061-0.694-0.063-1.405-0.354-2.055l-0.168-0.378l0.358-0.21l5.05-2.258
						l0.459,0.673L100.984,29.696z M101.616,26.532c0.134,0.372,0.223,0.746,0.27,1.119l2.318-2.276L101.616,26.532z"/>
				</g>
			</g>
		</g>
		<g>
			<path fill="#3B4D81" d="M218.493,106.168c-0.545-2.417,1.101-4.858,3.671-5.438c1.636-0.369,3.356,0.107,4.49,1.24
				c0.245,0.246,0.461,0.518,0.637,0.808c0.668,1.088,0.809,2.459,0.374,3.677c-0.538,1.511-1.888,2.679-3.523,3.048
				C221.572,110.082,219.038,108.587,218.493,106.168z M227.008,104.247c-0.083-0.366-0.226-0.716-0.421-1.035
				c-0.144-0.236-0.317-0.458-0.516-0.654c-0.937-0.936-2.363-1.326-3.724-1.017c-2.125,0.477-3.493,2.473-3.047,4.446
				c0.444,1.973,2.535,3.188,4.661,2.709c1.36-0.308,2.482-1.271,2.925-2.517C227.109,105.552,227.152,104.884,227.008,104.247z"/>
			<g>
				<path fill="#3B4D81" d="M226.5,107.26l0.386-1.083c0.353-0.985,0.239-2.09-0.3-2.966c-0.144-0.236-0.317-0.458-0.516-0.654
					l-0.798-0.797l9.223,0.744L226.5,107.26z M231.841,103.121l-4.565-0.368c0.006,0.01,0.012,0.017,0.016,0.026
					c0.491,0.803,0.704,1.761,0.602,2.689L231.841,103.121z"/>
				<g>
					<path fill="#3B4D81" d="M227.412,104.157c0.167,0.739,0.107,1.481-0.136,2.159l5.892-3.503l-5.767,1.302L227.412,104.157z"/>
					<path fill="#3B4D81" d="M226.5,107.26l0.386-1.083c0.223-0.626,0.266-1.294,0.122-1.931l-0.092-0.405l0.393-0.131l5.769-1.302
						l0.301,0.76L226.5,107.26z M227.875,104.433c0.048,0.35,0.052,0.697,0.016,1.036l2.823-1.678L227.875,104.433z"/>
				</g>
			</g>
			<g>
				<path fill="#3B4D81" d="M219.671,103.213l1.048-8.642l4.782,7.336l-1.071-0.311c-0.668-0.194-1.389-0.213-2.083-0.055
					c-0.404,0.089-0.785,0.234-1.138,0.43c-0.261,0.147-0.503,0.32-0.72,0.513L219.671,103.213z M221.268,96.926l-0.53,4.361
					c0.022-0.012,0.045-0.025,0.067-0.039c0.422-0.234,0.879-0.409,1.359-0.518c0.5-0.114,1.01-0.148,1.512-0.107L221.268,96.926z"
					/>
				<g>
					<path fill="#3B4D81" d="M222.256,101.134c0.79-0.177,1.575-0.144,2.29,0.066l-3.553-5.45l1.218,5.396L222.256,101.134z"/>
					<path fill="#3B4D81" d="M221.808,101.236l-1.217-5.397l0.75-0.318l4.161,6.386l-1.071-0.311
						c-0.668-0.194-1.389-0.213-2.083-0.055l-0.404,0.09L221.808,101.236z M221.904,97.901l0.623,2.764
						c0.384-0.059,0.769-0.073,1.149-0.042L221.904,97.901z"/>
				</g>
			</g>
			<g>
				<path fill="#3B4D81" d="M211.812,107.729l7.994-4.753l-0.386,1.081c-0.351,0.983-0.236,2.084,0.301,2.969
					c0.143,0.233,0.318,0.453,0.515,0.653l0.795,0.794L211.812,107.729z M218.414,104.766l-3.949,2.345l4.565,0.37
					c-0.005-0.008-0.01-0.016-0.015-0.024C218.522,106.648,218.312,105.695,218.414,104.766z"/>
				<g>
					<path fill="#3B4D81" d="M218.895,106.077c-0.167-0.741-0.107-1.482,0.136-2.159l-5.893,3.502l5.769-1.302L218.895,106.077z"/>
					<path fill="#3B4D81" d="M212.928,107.064l6.879-4.088l-0.386,1.081c-0.223,0.623-0.264,1.292-0.12,1.93l0.09,0.403
						l-0.393,0.132l-5.769,1.302L212.928,107.064z M218.415,104.765l-2.821,1.676l2.837-0.64
						C218.385,105.451,218.38,105.103,218.415,104.765z"/>
				</g>
			</g>
			<g>
				<path fill="#3B4D81" d="M220.803,108.323l1.073,0.314c0.668,0.196,1.389,0.214,2.085,0.058c0.403-0.092,0.783-0.237,1.136-0.432
					c0.259-0.145,0.501-0.319,0.723-0.514l0.816-0.728l-1.049,8.641L220.803,108.323z M225.569,108.946
					c-0.022,0.014-0.045,0.025-0.068,0.038c-0.422,0.236-0.877,0.41-1.358,0.519c-0.499,0.113-1.01,0.149-1.512,0.108l2.409,3.696
					L225.569,108.946z"/>
				<g>
					<path fill="#3B4D81" d="M224.052,109.099c-0.791,0.178-1.577,0.145-2.292-0.065l3.554,5.45l-1.218-5.397L224.052,109.099z"/>
					<path fill="#3B4D81" d="M220.803,108.323l1.073,0.314c0.668,0.196,1.389,0.214,2.085,0.058l0.404-0.091l0.134,0.393
						l1.218,5.397l-0.75,0.316L220.803,108.323z M223.78,109.566c-0.391,0.058-0.775,0.072-1.149,0.044l1.772,2.722L223.78,109.566z
						"/>
				</g>
			</g>
		</g>
		<g>
			<path fill="#3B4D81" d="M78.374,221.291c-2.025-1.432-2.432-4.346-0.912-6.497c0.97-1.368,2.565-2.167,4.167-2.083
				c0.348,0.019,0.689,0.077,1.016,0.174c1.224,0.361,2.245,1.286,2.736,2.482c0.612,1.483,0.389,3.254-0.578,4.622
				C83.28,222.139,80.396,222.723,78.374,221.291z M83.415,214.166c-0.306-0.217-0.646-0.381-1.006-0.488
				c-0.263-0.078-0.542-0.127-0.823-0.141c-1.32-0.068-2.642,0.596-3.447,1.736c-1.258,1.777-0.94,4.175,0.711,5.343
				c1.652,1.168,4.019,0.672,5.276-1.106c0.807-1.138,0.994-2.605,0.489-3.828C84.364,215.068,83.948,214.543,83.415,214.166z"/>
			<g>
				<path fill="#3B4D81" d="M85.054,216.744l-0.437-1.062c-0.397-0.967-1.221-1.713-2.207-2.004
					c-0.263-0.078-0.542-0.127-0.823-0.141l-1.126-0.059l7.351-5.616L85.054,216.744z M86.253,210.095l-3.639,2.78
					c0.011,0.004,0.02,0.006,0.031,0.009c0.901,0.267,1.7,0.838,2.246,1.597L86.253,210.095z"/>
				<g>
					<path fill="#3B4D81" d="M83.653,213.829c0.62,0.439,1.071,1.029,1.345,1.695l2.035-6.545l-3.416,4.827L83.653,213.829z"/>
					<path fill="#3B4D81" d="M85.054,216.744l-0.437-1.062c-0.252-0.614-0.668-1.138-1.201-1.516l-0.338-0.24l0.202-0.36
						l3.416-4.827l0.733,0.362L85.054,216.744z M84.183,213.723c0.27,0.229,0.506,0.484,0.706,0.761l0.974-3.137L84.183,213.723z"/>
				</g>
			</g>
			<g>
				<path fill="#3B4D81" d="M77.271,218.306l-5.004-7.124l8.462,2.252l-1.005,0.486c-0.626,0.302-1.174,0.771-1.585,1.353
					c-0.239,0.336-0.426,0.7-0.556,1.081c-0.096,0.284-0.16,0.575-0.192,0.864L77.271,218.306z M74.25,212.566l2.525,3.595
					c0.008-0.024,0.016-0.048,0.024-0.073c0.156-0.458,0.379-0.893,0.662-1.295c0.297-0.417,0.65-0.787,1.052-1.092L74.25,212.566z"
					/>
				<g>
					<path fill="#3B4D81" d="M77.801,215.032c0.468-0.661,1.076-1.161,1.745-1.485l-6.286-1.673l4.515,3.196L77.801,215.032z"/>
					<path fill="#3B4D81" d="M77.537,215.409l-4.516-3.196l0.345-0.739l7.364,1.96l-1.005,0.486
						c-0.626,0.302-1.174,0.771-1.585,1.353L77.9,215.61L77.537,215.409z M75.376,212.867l2.311,1.635
						c0.247-0.301,0.525-0.569,0.827-0.801L75.376,212.867z"/>
				</g>
			</g>
			<g>
				<path fill="#3B4D81" d="M74.451,226.92l2.762-8.88l0.435,1.062c0.396,0.964,1.218,1.707,2.209,2.004
					c0.263,0.078,0.541,0.125,0.822,0.14l1.122,0.059L74.451,226.92z M77.374,220.301l-1.363,4.386l3.64-2.78
					c-0.009-0.003-0.019-0.006-0.028-0.008C78.716,221.628,77.921,221.06,77.374,220.301z"/>
				<g>
					<path fill="#3B4D81" d="M78.612,220.954c-0.62-0.439-1.071-1.029-1.345-1.695l-2.036,6.545l3.417-4.827L78.612,220.954z"/>
					<path fill="#3B4D81" d="M74.836,225.681l2.378-7.641l0.435,1.062c0.25,0.612,0.667,1.136,1.201,1.514l0.339,0.239l-0.205,0.361
						l-3.416,4.828L74.836,225.681z M77.376,220.3l-0.975,3.134l1.68-2.375C77.812,220.83,77.575,220.575,77.376,220.3z"/>
				</g>
			</g>
			<g>
				<path fill="#3B4D81" d="M81.532,221.347l1.008-0.485c0.627-0.301,1.175-0.77,1.586-1.352c0.239-0.336,0.426-0.7,0.556-1.081
					c0.094-0.281,0.159-0.572,0.192-0.865l0.12-1.088l5.002,7.123L81.532,221.347z M85.49,218.621
					c-0.008,0.024-0.016,0.049-0.024,0.074c-0.156,0.456-0.378,0.892-0.662,1.294c-0.297,0.418-0.65,0.787-1.052,1.092l4.262,1.135
					L85.49,218.621z"/>
				<g>
					<path fill="#3B4D81" d="M84.466,219.749c-0.469,0.663-1.077,1.163-1.746,1.486l6.286,1.672l-4.515-3.196L84.466,219.749z"/>
					<path fill="#3B4D81" d="M81.532,221.347l1.008-0.485c0.627-0.301,1.175-0.77,1.586-1.352l0.24-0.337l0.363,0.202l4.516,3.196
						l-0.347,0.737L81.532,221.347z M84.576,220.279c-0.252,0.305-0.528,0.573-0.825,0.802l3.138,0.836L84.576,220.279z"/>
				</g>
			</g>
		</g>
	</g>
</g>
<g id="Layer_2">
	<g>
		<g>
			<g>
				<path fill="#3B4D81" d="M125.009,189.073l-0.317-0.046c-11.91-1.74-23.063-6.412-31.484-13.156
					c-8.957-7.032-14.306-15.918-14.919-25.019c-0.089-1.322-0.093-2.531-0.097-4.727c-0.002-1.001-0.004-2.22-0.013-3.768
					l4.213,0.177c0.001,1.554-0.005,2.777-0.01,3.782c-0.007,2.203-0.012,3.309,0.063,4.535
					c1.021,16.602,18.99,31.147,42.564,34.673c23.576-3.528,41.56-18.332,42.603-35.291c0.047-0.768,0.037-1.706,0.019-3.575
					c-0.011-0.947-0.024-2.123-0.033-3.622l4.21-0.196c0,1.494,0.006,2.664,0.011,3.608c0.008,1.939,0.014,2.912-0.046,3.785
					c-1.266,18.758-20.904,35.073-46.445,38.793L125.009,189.073z"/>
			</g>
			<g>
				<path fill="#3B4D81" d="M80.2,79.675c-0.876,0-1.671-0.5-1.881-1.242c-0.247-0.867,0.397-1.736,1.437-1.941l0.454-0.089
					c29.905-5.418,60.178-5.389,90.006,0.083c1.044,0.191,1.705,1.051,1.475,1.922c-0.23,0.87-1.263,1.421-2.306,1.229
					c-29.279-5.371-58.997-5.4-88.324-0.087l-0.412,0.081C80.498,79.661,80.347,79.675,80.2,79.675z"/>
			</g>
			<g>
				<path fill="#3B4D81" d="M171.839,144.188l-2.947-0.745c-29.109-6.777-58.669-6.777-87.821,0.008l-2.91,0.737l0.018-26.489
					c0.009-12.963,0.018-25.926,0.026-38.89v-1.616l3.879,0.001l-0.002,1.617c-0.007,12.963-0.016,25.927-0.024,38.89l-0.016,22.179
					c28.54-6.335,57.414-6.333,85.915,0l-0.041-62.685l3.877-0.001L171.839,144.188z"/>
			</g>
			<g>
				<g>
					<path fill="#3B4D81" d="M104.027,105.281c-7.955,0.67-15.899,1.719-23.819,3.155l-0.451,0.089
						c-1.04,0.204-1.686,1.073-1.439,1.94c0.209,0.743,1.003,1.244,1.881,1.244c0.147,0,0.297-0.014,0.446-0.043l0.415-0.082
						c7.633-1.384,15.295-2.401,22.967-3.061V105.281z"/>
				</g>
				<g>
					<path fill="#3B4D81" d="M170.214,108.52c-8.054-1.478-16.139-2.555-24.242-3.238v3.243c7.824,0.673,15.633,1.719,23.411,3.146
						c1.044,0.192,2.076-0.359,2.306-1.228C171.919,109.571,171.258,108.711,170.214,108.52z"/>
				</g>
			</g>
		</g>
		<path fill="#3B4D81" d="M132.732,103.303l-8.474-4.121c-3.919-1.896-9.003-5.357-9.003-10.139c0-3.792,2.224-9.149,12.604-9.149
			c10.169,0,13.029,5.357,14.405,9.314c0.53,0.495,2.226,0.247,2.649-0.247c0-3.462-0.953-8.077-1.907-10.056
			c-0.848,0-2.33-0.165-3.709-0.495c-2.753-0.577-6.566-1.072-9.85-1.072c-13.771,0-21.61,6.347-21.61,14.178
			c0,6.759,6.145,11.458,11.441,14.178l10.063,5.11c7.732,3.874,8.686,7.913,8.686,11.539c0,4.946-4.342,9.479-13.241,9.479
			c-12.287,0-16.629-8.078-18.218-12.282c-0.423-0.495-2.013-0.329-2.543,0.247c0.213,3.874,1.589,9.727,2.861,11.54
			c2.013,0.907,7.625,3.05,16.523,3.05c13.772,0,22.561-6.182,22.561-15.249C145.972,111.299,139.406,106.517,132.732,103.303z"/>
		<g>
			<path fill="none" stroke="#3B4D81" stroke-width="1.9511" d="M128.77,156.401c-0.421-0.597-1.006-1.091-1.739-1.392
				c-0.415-0.178-0.853-0.276-1.29-0.311c-0.329-0.029-0.666-0.014-0.994,0.03c-1.507,0.217-2.916,1.18-3.639,2.655
				c-1.086,2.216-0.196,4.748,1.986,5.656c2.183,0.908,4.835-0.158,5.92-2.374C129.736,159.188,129.588,157.585,128.77,156.401z"/>
			<g>
				<path fill="none" stroke="#3B4D81" stroke-width="1.0916" d="M129.283,156.504l1.081-8.345l-5.978,6.312
					c0.133-0.02,0.265-0.035,0.399-0.044c0.272-0.015,0.545-0.015,0.814,0.005L129.283,156.504z"/>
				<path fill="#3B4D81" stroke="#3B4D81" stroke-width="1.0916" d="M127.168,154.806c0.894,0.371,1.611,0.968,2.116,1.698
					l1.081-8.345l-3.25,6.628L127.168,154.806z"/>
			</g>
			<g>
				<path fill="none" stroke="#3B4D81" stroke-width="1.0916" d="M120.106,159.958c-0.031-0.389-0.012-0.79,0.051-1.189
					c0.081-0.528,0.246-1.061,0.498-1.579c0.447-0.908,1.108-1.653,1.891-2.211l-8.434-0.444L120.106,159.958z"/>
				<path fill="#3B4D81" stroke="#3B4D81" stroke-width="0.5475" d="M120.655,157.19c0.447-0.908,1.108-1.653,1.891-2.211
					l-8.434-0.444l6.524,2.704L120.655,157.19z"/>
			</g>
			<g>
				<path fill="none" stroke="#3B4D81" stroke-width="1.0916" d="M125.76,163.689c-0.399,0.06-0.809,0.074-1.212,0.045
					c-0.534-0.045-1.06-0.167-1.571-0.38c-0.894-0.375-1.611-0.968-2.118-1.698l-1.078,8.345L125.76,163.689z"/>
				<path fill="#3B4D81" stroke="#3B4D81" stroke-width="0.5475" d="M122.977,163.354c-0.894-0.375-1.611-0.968-2.118-1.698
					l-1.078,8.345l3.247-6.628L122.977,163.354z"/>
			</g>
			<g>
				<path fill="none" stroke="#3B4D81" stroke-width="1.0916" d="M129.894,158.034c0.031,0.391,0.013,0.789-0.047,1.189
					c-0.085,0.529-0.25,1.062-0.505,1.579c-0.444,0.908-1.104,1.658-1.887,2.211l8.433,0.444L129.894,158.034z"/>
				<path fill="#3B4D81" stroke="#3B4D81" stroke-width="0.5475" d="M129.341,160.802c-0.444,0.908-1.104,1.658-1.887,2.211
					l8.433,0.444l-6.521-2.709L129.341,160.802z"/>
			</g>
		</g>
	</g>
</g>
</svg>
