<?xml version="1.0" encoding="utf-8"?>
<!-- Generator: Adobe Illustrator 17.0.0, SVG Export Plug-In . SVG Version: 6.00 Build 0)  -->
<!DOCTYPE svg PUBLIC "-//W3C//DTD SVG 1.1//EN" "http://www.w3.org/Graphics/SVG/1.1/DTD/svg11.dtd">
<svg version="1.1" xmlns="http://www.w3.org/2000/svg" xmlns:xlink="http://www.w3.org/1999/xlink" x="0px" y="0px" width="250px"
	 height="250px" viewBox="0 0 250 250" enable-background="new 0 0 250 250" xml:space="preserve">
<g id="Background">
</g>
<g id="Background2">
</g>
<g id="Rays">
	<g>
		<circle fill="#01192B" cx="125" cy="125" r="122.5"/>
		<path fill="#FBB040" d="M244.657,125c0-34.223-14.035-65.167-36.662-87.394c-12.288,24.53-19.418,53.728-19.418,85.068
			c0,32.658,7.743,62.993,20.997,88.141C231.273,188.713,244.657,158.42,244.657,125z"/>
		<g>
			<polygon fill="#FBB040" points="194.687,62.895 86.177,16.162 196.92,57.326 			"/>
		</g>
		<g>
			<polygon fill="#FBB040" points="195.977,186.921 84.107,234.399 193.498,181.458 			"/>
		</g>
		<g>
			<polygon fill="#FBB040" points="187.567,94.193 37.952,70.631 188.382,88.249 			"/>
		</g>
		<g>
			<polygon fill="#FBB040" points="187.973,155.528 38.822,180.43 186.868,149.631 			"/>
		</g>
		<g>
			<polygon fill="#FBB040" points="185,126.708 9.626,123.708 185,120.708 			"/>
		</g>
	</g>
</g>
</svg>
