<?xml version="1.0" encoding="utf-8"?>
<!-- Generator: Adobe Illustrator 17.0.0, SVG Export Plug-In . SVG Version: 6.00 Build 0)  -->
<!DOCTYPE svg PUBLIC "-//W3C//DTD SVG 1.1//EN" "http://www.w3.org/Graphics/SVG/1.1/DTD/svg11.dtd">
<svg version="1.1" id="Capa_1" xmlns="http://www.w3.org/2000/svg" xmlns:xlink="http://www.w3.org/1999/xlink" x="0px" y="0px"
	 width="250px" height="250px" viewBox="0 0 250 250" enable-background="new 0 0 250 250" xml:space="preserve">
<g>
	<g>
		<g>
			<path fill="#00AEEF" d="M157.253,147.395c0,0,2.458-0.96,6.214-4.309c3.764-3.32,4.367-7.696,7.739-11.929
				c3.742-4.712,11.705-12.07,11.705-12.07s-2.429,10.163-4.726,14.899c-3.373,6.884-7.077,9.01-7.077,9.01s1.854,1.292,4.35,0.174
				c2.493-1.089,5.134-2.474,8.881-2.079c3.754,0.427,8.428,0.541,13.135-2.217c4.705-2.784,8.891-5.504,8.891-5.504
				s-2.955,9.041-14.718,14.051c-7.572,3.253-16.456,3.168-19.228,1.652c-2.789-1.523-6.099-2.248-8.457-1.552
				C161.606,148.227,157.253,147.395,157.253,147.395"/>
			<path fill="#00AEEF" d="M195.258,99.212c0,0,0.086,8.738,0.644,11.794c0.558,3.039-0.093,6.802-1.363,9.713
				c-1.239,2.922-3.358,7.086-1.838,7.909c1.559,0.841,2.076-2.493,5.42-4.874c3.33-2.367,9.398-5.465,12.697-7.451
				c5.318-3.215,9.367-9.191,9.367-9.191s-2.341,13.607-13.779,21.506c-7.556,5.213-22.577,6.535-22.577,6.535
				s1.587-1.413,2.417-5.027c0.825-3.597,1.213-11.224,2.725-16.081C190.477,109.19,195.258,99.212,195.258,99.212"/>
			<path fill="#00AEEF" d="M201.434,79.432c0,0,4.326,10.886,4.874,13.915c0.539,3.056-0.312,12.158-0.312,12.158
				s3.554-3.213,7.058-8.705c2.727-4.331,6.64-5.842,8.881-9.322c2.205-3.463,3.065-4.865,3.065-4.865s-2.183,9.651-4.61,15.278
				c-4.031,9.401-20.114,19.323-20.114,19.323s0.851-2.76,1.263-8.161c0.41-5.399-0.958-11.679-1.354-15.726
				C199.811,89.464,201.434,79.432,201.434,79.432"/>
			<path fill="#00AEEF" d="M201.174,57.168c0,0,1.261,1.521,3.89,5.68c2.636,4.157,6.097,8.588,6.238,11.098
				c0.133,2.495,1.385,5.566,2.219,5.425c0.83-0.141,0.82-2.977,2.076-7.301c1.249-4.293,4.953-8.547,5.558-11.715
				c0.498-2.581,1.509-6.259,1.509-6.259s1.959,10.964-0.391,19.85c-2.369,8.879-7.618,13.164-8.452,14.294
				c-0.851,1.094-2.386,2.641-2.386,2.641s0.822,0.817-1.649-4.724c-2.481-5.554-4.233-8.986-6.424-13.073
				C201.677,69.948,201.174,57.168,201.174,57.168"/>
			<path fill="#00AEEF" d="M195.621,38.812c0,0,6.044,3.501,8.817,6.502c3.106,3.375,6.595,9.641,7.706,9.363
				c1.115-0.281-0.067-5.561,0.219-7.642c0.303-2.076,1.099-11.453,0.672-13.936c-0.41-2.486-1.17-6.04-1.17-6.04
				s6.898,10.092,6.755,17.297c-0.133,7.213,0.212,8.821-3.039,14.444c-1.711,2.975-2.784,7.072-2.784,7.072
				s-1.006-2.114-3.373-5.022c-2.357-2.932-7.453-7.923-9.262-12.368C198.333,44.037,195.621,38.812,195.621,38.812"/>
			<path fill="#00AEEF" d="M186.461,21.172c0,0,1.723,1.583,4.5,3.516c2.777,1.952,6.28,3.261,8.216,5.196
				c1.919,1.935,4.359,4.202,5.339,3.637c0.953-0.544-0.281-2.286-1.792-6.462c-1.537-4.171-1.559-8.29-2.789-10.106
				c-1.227-1.79-2.364-5.341-2.364-5.341s7.622,5.935,9.024,10.795c1.389,4.843,1.211,20.136,1.211,20.136s-1.37-1.928-3.997-3.873
				c-2.644-1.931-9.27-6.748-11.515-8.516C188.184,26.992,186.461,21.172,186.461,21.172"/>
			<g>
				<path fill="#00AEEF" d="M180.271,4.873c0,0,6.123,1.659,10.006,4.972c3.876,3.344,7.079,12.521,7.079,12.521
					s-6.407-3.211-9.026-5.718C185.703,14.167,180.271,4.873,180.271,4.873"/>
				<path fill="#00AEEF" d="M62.247,152.391c0,0,7.031,3.628,12.451,3.215c5.427-0.408,10.452-2.202,19.395-4.529
					c8.969-2.302,15.803-2.81,19.828-2.093c4.007,0.682,11.062,1.604,11.062,1.604s9.143-1.425,16.27-1.814
					c3.618-0.217,8.423,0.848,13.765,2.517c5.177,1.64,14.594,4.636,19.809,4.715c7.737,0.105,13.576-2.922,13.576-2.922
					s-0.751,5.659-19.297,7.441c-11.024,1.023-15.564,0.203-20.403-2.913c-4.841-3.122-10.175-5.709-12.566-5.816
					c-2.427-0.122-6.057,0.191-6.057,0.191s6.65,2.407,9.965,5.024c3.303,2.622,11.867,9.639,11.867,9.639l-2.128,2.429
					c0,0-3.306-4.826-8.738-8.759c-5.434-3.907-13.043-7.839-15.874-7.839c-2.817,0-12.051,4.219-17.996,9.746
					c-5.689,5.315-6.345,6.633-6.345,6.633l-2.21-2.21c0,0,4.355-4.317,10.154-8.128c5.816-3.84,11.965-6.848,11.965-6.848
					s-0.198-0.598-3.718-0.293c-3.525,0.293-6.333,0.713-12.349,4.417c-6.052,3.718-8.371,4.612-13.581,5.21
					c-5.091,0.615-15.293-0.393-21.416-2.994C63.541,155.408,62.247,152.391,62.247,152.391"/>
			</g>
			<path fill="#00AEEF" d="M43.641,132.491c0,0,5.604,4.44,8.228,5.93c5.852,3.315,10.981,1.802,14.675,2.307
				c3.74,0.515,7.043,1.401,8.154,1.919c1.123,0.513,4.412,0.808,4.741,0.212c0.343-0.713-3.013-2.093-5.53-6.545
				c-3.68-6.507-5.842-17.178-5.842-17.178s5.52,3.914,10.545,10.554c5.029,6.645,4.343,9.913,7.851,12.873
				c3.706,3.094,7.141,4.812,7.141,4.812s-4.607-0.486-7.916-0.186c-3.315,0.293-8.893,2.574-13.974,2.476
				c-4.877-0.088-14.273-0.503-22.128-9.243C44.349,134.62,43.641,132.491,43.641,132.491"/>
			<path fill="#00AEEF" d="M29.567,107.569c0,0,3.313,4.421,8.166,8.33c4.822,3.907,12.146,6.233,14.678,9.06
				c2.522,2.829,3.594,5.134,5.001,4.44c1.423-0.713-0.863-3.156-1.783-6.845c-0.934-3.733-1.719-13.672-0.934-17.502
				c0.436-2.009,0.226-5.02,0.226-5.02s2.229,3.78,4.838,9.646c2.381,5.427,2.226,14.766,3.301,18.911
				c1.096,4.343,3.413,7.203,3.413,7.203s-7.451-0.388-11.162-1.788c-3.709-1.423-14.168-5.229-18.091-11.667
				C33.309,115.909,29.567,107.569,29.567,107.569"/>
			<path fill="#00AEEF" d="M25,82.733c0,0,1.516,3.864,3.914,6.149c2.429,2.293,3.907,3.416,6.724,6.721
				c1.981,2.329,6.652,11.31,8.156,11.06c1.201-0.205-0.601-4.822-0.129-9.358c0.829-7.73,5.642-16.854,5.642-16.854
				s1.115,9.505,0.813,15.152c-0.269,5.642-2.21,11.965-1.506,15.185c0.694,3.227,1.096,7.225,1.096,7.225
				s-7.336-4.896-12.578-9.615c-5.194-4.755-9.939-15.09-10.838-18.308C25.396,86.885,25,82.733,25,82.733"/>
			<path fill="#00AEEF" d="M26.969,54.608c0,0-0.939,13.946,0.82,20.303c2.789,10.232,10.638,16.787,10.638,16.787
				s0.694-3.52,2.41-7.151c1.719-3.606,4.438-7.208,5.53-10.123c2.129-5.756,2.617-15.986,2.617-15.986s-1.893,2.889-3.611,5.215
				c-1.707,2.317-3.799,5.113-5.432,8.945c-1.609,3.833-1.814,7.36-3.623,7.546c-2.543,0.224-0.398-3.406-2.514-8.354
				c-2.107-4.924-5.12-9.946-5.43-12.349C28.079,57.037,26.969,54.608,26.969,54.608"/>
			<path fill="#00AEEF" d="M37.988,27.631c0,0-5.535,7.549-6.345,14.454c-0.791,6.95-0.274,12.523,2.417,17.102
				c1.814,3.115,2.396,7.739,2.396,7.739s0.927-2.391,3.23-4.931c2.3-2.512,6.314-6.107,9.139-10.94
				c2.834-4.829,5.334-11.169,5.334-11.169s-4.514,2.548-7.041,4.853c-6.357,5.766-9.458,11.245-9.458,11.245
				s-1.785-1.602-1.203-3.928c0.636-2.314,0.915-5.847,0.729-8.457c-0.217-2.589-1.032-4.09-0.551-7.329
				C37.185,33.049,37.988,27.631,37.988,27.631"/>
			<path fill="#00AEEF" d="M53.037,12.022c0,0-7.42,4.524-9.436,10.156c-1.518,4.305-0.913,8.831-1.616,13.369
				c-0.689,4.512,0.203,7.634,0.203,7.634s0.594-1.123,3.234-3.914c2.612-2.817,6.731-4.517,9.625-6.567
				c6.249-4.309,9.064-11.343,9.064-11.343s-3.625,3.315-5.451,4.333c-1.788,0.999-5.201,2.605-7.694,4.428
				c-1.84,1.275-3.315,5.086-3.315,5.086s-2.338-2.176-1.537-4.593c0.808-2.412,2.009-4.231,2.5-6.633
				c0.513-2.415,1.216-5.94,2.224-7.739C51.8,14.567,53.037,12.022,53.037,12.022"/>
			<path fill="#00AEEF" d="M58.445,11.659C61.477,8.759,69.891,5.65,69.891,5.65s-3.623,6.047-7.532,10.054
				c-4.55,4.672-10.263,7.427-10.263,7.427S53.218,16.677,58.445,11.659"/>
			<path fill="#00AEEF" d="M97.866,21.608c7.785,0,23.399,8.407,23.399,19.616c0,7.029-5.451,11.763-5.451,11.763
				s0.224,3.907-0.327,5.098c-1.022,2.26-2.05,1.597-3.394,3.628c-1.361,2.028-1.916,5.201-7.582,5.201
				c-5.682,0-5.554-1.814-8.268-1.814c-2.705,0-4.524,2.6-4.524,2.6v20.272c0,0,0.567,2.584,5.656,5.308
				c5.086,2.722,9.074,4.416,10.645,4.416c1.573,0,1.568-1.807,3.497-1.807c1.935,0,9.739,0,9.739,3.625
				c0,3.623-3.845,6.097-17.886,6.097c-14.027,0-18.322-1.123-19.919-1.123c-1.59,0-1.814,0.343-1.814,2.486
				c0,2.152-0.103,5.201-0.103,5.201s2.355,3.745,5.194,5.213c2.834,1.471,4.429,2.26,7.592,2.26c3.163,0,7.906-1.013,11.77-2.724
				c3.857-1.692,7.575-2.701,12.008-2.701c4.409,0,12.211-1.015,12.211-5.544c0-4.538-1.688-6.116-1.688-9.62
				c0-3.511,0.553-6.59-1.132-8.278c-1.683-1.678-9.169-7.115-9.169-10.17c0-3.053,2.727-4.414,3.063-6.111
				c0.334-1.697,0.107-2.71,1.242-3.058c1.132-0.336,2.035-0.796,2.035-0.796l0.56-2.822c0,0,1.49-0.694,2.269-1.37
				c0.787-0.67,1.456-1.118,1.456-1.118s-0.67-2.159,0.579-3.516c1.242-1.354,2.951-1.025,4.188-1.025
				c1.237,0,5.074-0.451,5.074-0.451s1.235-2.233,2.629-3.27c2.269-1.711,8.469-2.603,10.065-3.849
				c1.583-1.239,3.28-4.304,7.472-4.304c17.19,0,28.738,15.517,28.738,23.883c0,14.485-9.391,32.015-22.51,32.015
				c-10.309,0-9.622,3.053-9.622,6.454c0,7.925,7.703,9.391,7.703,9.391s-16.198,12.223-34.987,12.223
				c-17.855,0-35.621-6.581-48.395-20.665c-8.8-9.672-15.505-22.522-15.505-40.162c0-6.941,0.017-8.094,0.017-8.094
				s4.669-3.649,7.508-5.091c2.848-1.428,9.162-5.113,9.162-8.147c0-3.013-1.182-4.178-1.182-10.578
				c0-2.951,0.732-8.321,3.423-11.963C86.449,23.951,91.953,21.608,97.866,21.608"/>
			<path fill="#00AEEF" d="M125.66,3C87.896,3,57.296,33.611,57.296,71.364c0,37.764,30.599,68.371,68.364,68.371
				c37.75,0,68.356-30.607,68.356-68.371C194.017,33.611,163.41,3,125.66,3L125.66,3z M176.698,28.973
				c3.559,4.209,5.136,7.222,5.136,7.222s-2.362,2.41-5.101,3.711c-2.741,1.282-7.863,3.22-7.863,3.22s-1.873-5.825-3.382-8.931
				c-1.511-3.089-3.07-6.752-3.07-6.752s1.506-1.023,3.737-2.603c2.217-1.568,3.728-2.946,3.728-2.946
				S173.719,25.431,176.698,28.973L176.698,28.973z M154.133,11.39c0,0,4.638,2.026,7.746,4.336
				c3.103,2.295,6.691,5.113,6.691,5.113s-0.551,0.965-2.281,2.276c-1.73,1.311-4.276,2.448-4.276,2.448s-2.29-3.222-4.228-5.677
				c-1.926-2.453-5.551-6.629-5.551-6.629s0.815-0.787,1.237-1.294C153.902,11.454,154.133,11.39,154.133,11.39L154.133,11.39z
				 M145.191,25.634c-0.725-3.184-2.474-6.111-2.474-6.111s2.841-1.387,4.707-2.598c1.878-1.22,3.382-2.453,3.382-2.453
				s3.251,3.253,5.616,6.195c2.35,2.946,4.026,5.775,4.026,5.775s-3.02,1.363-6.471,2.939c-3.449,1.578-7.785,2.233-7.785,2.233
				S145.911,28.811,145.191,25.634L145.191,25.634z M146.921,48.966c0,0-1.592,0.436-6.907,0.663
				c-5.327,0.212-10.037-0.088-10.037-0.088V34.417c0,0,4.126,0.277,7.158,0.277c3.015,0,8.13-0.915,8.13-0.915
				s0.293,2.369,0.927,6.187C146.842,43.777,146.921,48.966,146.921,48.966L146.921,48.966z M148.623,9.021
				c1.876,0.508,4.078,1.838,4.078,1.838l-1.969,1.533c0,0-1.43-1.29-2.66-2.527c-1.409-1.418-4.305-2.279-4.305-2.279
				S146.752,8.523,148.623,9.021L148.623,9.021z M143.236,8.501c3.48,1.902,6.137,4.946,6.137,4.946s-1.301,0.863-3.103,2.167
				c-1.788,1.311-4.34,1.842-4.34,1.842s-1.583-3.78-2.722-5.94c-1.075-2.009-4.593-5.768-4.593-5.768S139.759,6.592,143.236,8.501
				L143.236,8.501z M129.676,5.353c0,0,3.742-0.989,7.153,5.477c1.771,3.346,3.392,7.155,3.392,7.155s-2.648,0.805-5.299,1.099
				c-2.665,0.279-5.246-0.141-5.246-0.141V5.353L129.676,5.353z M129.645,20.891c0,0,2.574,0.212,5.539,0
				c2.97-0.198,5.821-0.834,5.821-0.834s1.02,1.084,1.976,5.375c0.865,3.902,1.318,6.695,1.318,6.695s-3.146,0.856-7.599,1.146
				c-4.462,0.281-7.055-0.224-7.055-0.224V20.891L129.645,20.891z M127.627,5.353l0.25,13.791c0,0-2.953,0.267-6.202-0.615
				c-3.234-0.882-4.741-1.84-4.741-1.84s1.738-3.473,3.961-6.497C125.822,3.427,127.627,5.353,127.627,5.353L127.627,5.353z
				 M123.448,5.005c0,0-3.177,2.986-4.579,5.716c-1.406,2.727-3.33,5.353-3.33,5.353s-2.462-1.056-4.133-2.288
				c-1.668-1.225-2.555-2.107-2.555-2.107s2.708-3.087,7.551-4.836C121.234,5.095,123.448,5.005,123.448,5.005L123.448,5.005z
				 M110.62,6.592c2.56-0.615,4.569-0.784,4.569-0.784s-2.81,1.394-4.395,2.619c-1.587,1.23-2.989,2.119-2.989,2.119
				s-0.768-0.539-1.142-1.154c-0.355-0.612-0.529-1.401-0.529-1.401S108.063,7.202,110.62,6.592L110.62,6.592z M125.784,137.647
				c-33.593,0-66.536-26.779-66.536-66.142c0-49.346,44.869-62.891,44.869-62.891l2.72,2.543c0,0-2.393,1.559-4.319,3.597
				c-1.916,2.026-3.072,3.776-3.072,3.776l1.156,1.061c0,0,1.389-2.043,2.972-3.611c1.587-1.575,3.873-3.418,3.873-3.418
				s2.302,2.364,3.778,3.244c1.483,0.884,3.594,1.842,3.594,1.842s-0.169,1.144-0.787,2.553c-0.608,1.404-1.23,3.244-1.23,3.244
				l1.404,0.789c0,0,0.982-2.715,1.49-3.773c0.527-1.049,0.963-2.105,0.963-2.105s3.354,1.404,6.247,2.021
				c2.898,0.615,5.001,0.532,5.001,0.532v11.767h-4.305v2.007h4.448v14.763h-3.73v1.671h3.637v5.432h1.797v-5.265
				c0,0,2.36,0.1,8.521-0.167c6.157-0.277,10.111-0.882,10.111-0.882s-0.172-5.625-0.705-9.748
				c-0.536-4.133-1.411-7.294-1.411-7.294s3.504-0.439,7.375-2.017c3.883-1.578,7.193-3.072,7.193-3.072s2.043,2.977,3.613,7.203
				c1.568,4.224,3.063,8.502,3.063,8.502l-2.617,1.151l0.439,1.32l3.041-0.906l0.877,1.835l1.161-0.517l-0.858-1.859
				c0,0,3.616-1.085,7.215-3.022c3.609-1.943,6.238-3.773,6.238-3.773s9.048,13.774,9.048,33.326
				C192.057,101.424,168.833,137.647,125.784,137.647"/>
			<path fill="none" stroke="#000000" stroke-width="0.8169" d="M63.918,59.17"/>
			<path fill="none" stroke="#000000" stroke-width="0.8169" d="M76.217,32.443"/>
		</g>
		<g>
			<path fill="#00AEEF" d="M36.21,245.219v-7.073l-0.187-0.189c-3.444,5.682-7.633,8.655-15.45,8.655
				c-7.165,0-15.822-3.441-15.822-15.075v-34.994h8.191v32.298c0,8.001,4.097,10.698,9.401,10.698
				c10.329,0,13.401-9.119,13.401-16.192v-26.804h8.19v48.676H36.21"/>
			<path fill="#00AEEF" d="M95.867,245.219H87.68v-29.969c0-8.469-2.419-12.748-10.427-12.748c-4.652,0-12.843,2.975-12.843,16.192
				v26.524h-8.19v-48.676h7.725v6.889h0.185c1.771-2.607,6.33-8.285,14.71-8.285c7.534,0,17.028,3.071,17.028,16.941V245.219"/>
			<path fill="#00AEEF" d="M108.153,187.702v-9.305h8.189v9.305H108.153L108.153,187.702z M116.343,245.219h-8.189v-48.676h8.189
				V245.219"/>
			<path fill="#00AEEF" d="M159.064,212.924c-1.023-6.514-4.657-10.422-11.541-10.422c-10.146,0-13.403,9.675-13.403,18.333
				c0,8.376,2.049,18.704,13.306,18.704c5.497,0,10.243-4.093,11.639-11.538h7.909c-0.84,7.725-5.587,18.611-19.824,18.611
				c-13.683,0-21.776-10.328-21.776-24.382c0-15.076,7.257-27.084,23.359-27.084c12.749,0,17.594,9.308,18.241,17.777H159.064"/>
			<path fill="#00AEEF" d="M216.485,229.958c-0.278,2.326-2.512,9.213-8.655,13.307c-2.232,1.488-5.396,3.349-13.214,3.349
				c-13.681,0-21.779-10.328-21.779-24.382c0-15.076,7.259-27.084,23.362-27.084c14.053,0,20.943,11.168,20.943,28.388h-35.555
				c0,10.144,4.743,16.005,14.145,16.005c7.729,0,12.289-5.957,12.564-9.582H216.485L216.485,229.958z M208.669,217.016
				c-0.466-7.534-3.631-14.514-13.587-14.514c-7.538,0-13.494,6.98-13.494,14.514H208.669"/>
			<path fill="#00AEEF" d="M237.056,203.335v41.884h-8.191v-41.884h-6.699v-6.792h6.699v-8.379c0-7.35,4.655-10.697,12.659-10.697
				c1.209,0,2.421,0.087,3.726,0.184v7.354c-1.028-0.097-2.332-0.189-3.355-0.189c-3.534,0-4.839,1.768-4.839,5.676v6.051h8.193
				v6.792H237.056"/>
		</g>
	</g>
</g>
</svg>
